<svg width="86" height="86" viewBox="0 0 86 86" fill="none" xmlns="http://www.w3.org/2000/svg">
<circle opacity="0.2" cx="43" cy="43" r="43" fill="white"/>
<path d="M29 52.2254C29.2215 51.5663 29.3591 50.8622 29.6812 50.2569C30.4392 48.8326 31.6698 47.9851 33.2466 47.6796C33.5231 47.6258 33.6237 47.5079 33.6961 47.2664C34.3078 45.2376 35.6435 43.7369 36.8474 41.9998C40.9119 37.8773 45.5 35.6942 52.133 34.0829C52.9445 33.8654 53.7785 33.7352 54.6023 33.5643C54.7058 33.5425 54.8101 33.5221 54.9773 33.4879C54.3272 32.919 53.7205 32.3902 53.1168 31.8592C52.9358 31.6998 52.7461 31.5471 52.5854 31.3689C52.2133 30.9571 52.2155 30.3599 52.5724 29.946C52.9322 29.5299 53.5142 29.4448 53.9768 29.7459C54.0673 29.8049 54.1498 29.8769 54.2316 29.9482C55.6042 31.1455 56.9775 32.3422 58.3479 33.5425C58.9726 34.0895 59.0154 34.6802 58.4753 35.3072C57.2692 36.7061 56.0596 38.1013 54.852 39.4995C54.5227 39.8807 54.1281 40.0502 53.6293 39.8923C53.1935 39.7541 52.9568 39.4391 52.888 38.9983C52.8316 38.6382 52.9785 38.3378 53.2102 38.0715C53.7879 37.4059 54.3648 36.7396 54.9411 36.0732C55.041 35.9576 55.138 35.839 55.2589 35.6942C48.6436 36.3904 38.0788 40.7456 35.8042 47.8134C36.151 47.9902 36.5137 48.1466 36.8474 48.3503C38.6485 49.4524 39.6418 51.5583 39.3087 53.537C38.9395 55.728 37.4171 57.3801 35.3185 57.8682C32.4235 58.5418 29.5183 56.5508 29.068 53.5864C29.0579 53.5181 29.0232 53.4533 29 53.3871C29 53.0001 29 52.6124 29 52.2254ZM34.1906 55.8066C35.8484 55.7986 37.192 54.4412 37.1847 52.7797C37.1782 51.1182 35.8143 49.7514 34.1739 49.7608C32.5313 49.771 31.1631 51.1539 31.1711 52.7957C31.1783 54.4514 32.5465 55.8146 34.1906 55.8066Z" fill="white"/>
<path d="M25.0001 32.1839C25.0182 29.2959 27.3471 26.9798 30.2117 27.0001C33.0574 27.0205 35.3682 29.3643 35.3574 32.2195C35.3458 35.0951 32.9981 37.4259 30.1407 37.4004C27.2805 37.3742 24.9827 35.0427 25.0001 32.1839ZM27.1733 32.1992C27.1712 33.8657 28.5242 35.2232 30.1827 35.2188C31.8239 35.2144 33.1675 33.8745 33.1877 32.2224C33.208 30.5799 31.8354 29.189 30.1878 29.181C28.5358 29.1723 27.1755 30.5341 27.1733 32.1992Z" fill="white"/>
<path d="M56.1964 52.7151C56.473 52.9857 56.7408 53.2425 57.0036 53.5058C57.6523 54.1547 58.3016 54.8014 58.9437 55.4568C59.444 55.9675 59.465 56.6149 59.0096 57.0689C58.5666 57.5104 57.9027 57.4813 57.404 56.983C56.4998 56.0788 55.6028 55.168 54.6805 54.2369C54.5698 54.3417 54.4742 54.4275 54.383 54.5184C53.5483 55.3565 52.7187 56.1996 51.8789 57.031C51.5061 57.4006 51.0023 57.4791 50.5853 57.2638C50.1676 57.0485 49.9099 56.5837 50.0293 56.113C50.0937 55.8591 50.2537 55.6023 50.4369 55.411C51.2216 54.5919 52.0288 53.7946 52.8331 52.9952C52.9257 52.9028 53.0524 52.8439 53.1892 52.7522C52.3538 51.9135 51.5988 51.1547 50.8437 50.396C50.6649 50.2163 50.4803 50.0418 50.3109 49.8541C49.8939 49.3914 49.9004 48.7345 50.3189 48.3184C50.7424 47.8965 51.391 47.8871 51.8435 48.3308C52.6883 49.1586 53.5165 50.0025 54.3483 50.8434C54.4409 50.9365 54.5068 51.0558 54.6024 51.1867C54.7587 51.0413 54.855 50.9576 54.9455 50.8674C55.7809 50.0308 56.6134 49.1906 57.4517 48.3563C57.7659 48.0435 58.1409 47.9191 58.5745 48.0609C58.9749 48.1911 59.2196 48.4756 59.3079 48.8837C59.4013 49.3158 59.2225 49.6598 58.9242 49.9581C58.1054 50.7779 57.2888 51.5992 56.4723 52.4212C56.3905 52.5041 56.3115 52.5929 56.1964 52.7151Z" fill="white"/>
</svg>
