<svg width="86" height="86" viewBox="0 0 86 86" fill="none" xmlns="http://www.w3.org/2000/svg">
<circle opacity="0.2" cx="43" cy="43" r="43" fill="white"/>
<path d="M32.1652 55.9958C31.2722 55.9979 30.6693 55.6462 30.2812 54.9513C29.891 54.2542 29.9036 53.5467 30.3396 52.8769C30.5274 52.5902 30.7736 52.3369 31.0177 52.092C38.03 45.0504 45.0466 38.011 52.0589 30.9695C52.5555 30.4692 53.0541 30.0108 53.8261 30.0003C54.669 29.9878 55.3074 30.3248 55.7184 31.0532C56.1315 31.7858 56.0856 32.5247 55.6099 33.2155C55.4347 33.4709 55.2094 33.6948 54.9903 33.9146C47.9758 40.9561 40.9593 47.9935 33.9491 55.035C33.4212 55.5688 32.8871 56.0502 32.1652 55.9958Z" fill="white"/>
<path d="M34.9466 40.9999C31.6574 40.981 28.9771 38.2683 29.0001 34.9811C29.0232 31.6561 31.7642 28.9687 35.1036 29.0003C38.3112 29.0318 40.9768 31.7361 40.9999 34.9811C41.0229 38.3125 38.3007 41.0188 34.9466 40.9999ZM34.9634 36.8015C35.9531 36.8183 36.7879 36.0397 36.8235 35.0674C36.8612 34.0552 36.0117 33.1924 34.9843 33.1987C34.003 33.2071 33.1828 34.0194 33.1723 34.9938C33.1619 35.9576 33.9821 36.7847 34.9634 36.8015Z" fill="white"/>
<path d="M56.9999 50.9455C57.0168 54.2965 54.3052 57.0188 50.9705 56.9999C47.6779 56.981 45 54.286 45 50.9895C45 47.6888 47.6652 45.019 50.9789 45.0001C54.2778 44.9812 56.9852 47.6532 56.9999 50.9455ZM52.7999 50.9644C52.7852 49.9647 51.9852 49.1684 50.9979 49.1705C49.9726 49.1726 49.1621 50.0318 49.2021 51.0733C49.2379 52.0478 50.0947 52.8526 51.0568 52.819C52.0273 52.7855 52.8147 51.9472 52.7999 50.9644Z" fill="white"/>
</svg>
