<svg width="80" height="80" viewBox="0 0 80 80" fill="none" xmlns="http://www.w3.org/2000/svg">
<circle opacity="0.1" cx="40" cy="40" r="40" fill="white"/>
<path d="M38.3749 24C38.9176 24.2426 39.0721 24.6684 39.0708 25.2467C39.0583 33.8697 39.0614 42.4934 39.0652 51.1164C39.0652 51.4528 39.0239 51.7648 38.7613 51.9986C38.473 52.2549 38.1347 52.33 37.7752 52.1793C37.3938 52.0198 37.1918 51.7191 37.1893 51.3027C37.1843 50.4799 37.1768 49.6571 37.1943 48.8344C37.1999 48.5736 37.1524 48.4911 36.8654 48.4917C33.043 48.5036 29.2212 48.4911 25.3988 48.5086C24.8085 48.5111 24.3083 48.4361 24.0006 47.8746C24 41.3955 24 34.9163 24 28.4372C24.302 27.8945 24.7822 27.8001 25.3656 27.8026C29.2056 27.8207 33.0455 27.8101 36.8848 27.817C37.1161 27.8176 37.2012 27.777 37.1943 27.5206C37.1743 26.7616 37.2131 26.0001 37.1787 25.2423C37.153 24.6621 37.3375 24.2432 37.8753 24C38.0416 24 38.2085 24 38.3749 24ZM26.8751 36.2443C26.8732 38.8233 28.9748 40.9328 31.5498 40.9372C34.1316 40.941 36.242 38.8458 36.2501 36.2699C36.2582 33.674 34.1529 31.5614 31.5598 31.5627C28.9805 31.5639 26.877 33.6659 26.8751 36.2443ZM31.5936 42.8122C30.3655 42.8122 29.1374 42.8141 27.9093 42.8104C27.6842 42.8097 27.476 42.8504 27.289 42.9773C26.9551 43.2043 26.8026 43.6138 26.9107 43.987C27.0383 44.4266 27.381 44.6854 27.8631 44.686C30.2986 44.6885 32.7341 44.6873 35.1696 44.6866C35.8255 44.6866 36.2545 44.3096 36.2495 43.7413C36.2445 43.1742 35.8187 42.8129 35.1534 42.8122C33.9665 42.8122 32.7797 42.8122 31.5936 42.8122Z" fill="white"/>
<path d="M55.9996 47.8729C55.692 48.4343 55.1917 48.5093 54.6021 48.5068C50.1562 48.4899 45.7104 48.4949 41.264 48.505C40.9863 48.5056 40.93 48.4368 40.9307 48.1673C40.9388 41.4931 40.9388 34.8189 40.9313 28.1447C40.9313 27.8858 40.9707 27.8014 41.2589 27.802C45.7567 27.8133 50.255 27.8171 54.7528 27.8008C55.3324 27.7989 55.7557 27.9559 55.999 28.4973C55.9996 34.9564 55.9996 41.415 55.9996 47.8729ZM48.4048 40.9354C49.6335 40.9354 50.8622 40.9373 52.0903 40.9348C52.7368 40.9335 53.1226 40.5528 53.1233 39.9107C53.1251 37.4742 53.1251 35.0383 53.1233 32.6019C53.1226 31.9379 52.7431 31.5615 52.0759 31.5609C49.6498 31.5596 47.2242 31.5596 44.7981 31.5609C44.1297 31.5615 43.7501 31.9373 43.7495 32.6C43.7482 35.0258 43.7482 37.4517 43.7495 39.8775C43.7495 40.5622 44.1247 40.9335 44.8125 40.9348C46.0106 40.9367 47.2074 40.9354 48.4048 40.9354ZM48.4436 42.8105C47.2261 42.8105 46.008 42.8092 44.7906 42.8111C44.1822 42.8117 43.7582 43.19 43.7507 43.7333C43.7426 44.2903 44.1709 44.6849 44.7931 44.6849C47.218 44.6861 49.6429 44.6861 52.0684 44.6849C52.6999 44.6849 53.1245 44.3041 53.1239 43.7464C53.1233 43.1887 52.6987 42.8111 52.0659 42.8105C50.8584 42.8098 49.651 42.8105 48.4436 42.8105Z" fill="white"/>
<path d="M30.3747 55.999C30.2403 55.889 30.0664 55.8402 29.9445 55.7083C29.595 55.3313 29.5987 54.7805 29.9758 54.3866C30.2997 54.0483 30.6286 53.7138 30.9712 53.3956C31.1357 53.2431 31.1644 53.1511 30.9806 52.9855C30.6486 52.686 30.3409 52.3596 30.027 52.0408C29.6006 51.6069 29.5749 51.041 29.9589 50.6528C30.3428 50.2645 30.9137 50.2845 31.347 50.7078C31.6822 51.0348 32.0167 51.363 32.3394 51.7019C32.4588 51.8269 32.5307 51.8407 32.657 51.7069C32.9784 51.3668 33.3142 51.0398 33.6481 50.7115C34.0808 50.2864 34.6492 50.2626 35.0363 50.6484C35.4227 51.0335 35.4014 51.6019 34.9769 52.0376C34.6498 52.3727 34.3215 52.7072 33.982 53.0292C33.8501 53.1536 33.8576 53.2268 33.9851 53.3468C34.2953 53.6394 34.5911 53.9471 34.8924 54.2497C35.5646 54.9249 35.4314 55.6276 34.5623 55.999C34.4166 55.999 34.2709 55.999 34.1246 55.999C33.6612 55.7633 33.3505 55.3525 32.9897 55.0012C32.4951 54.5198 32.5082 54.5235 32.0111 54.9993C31.6347 55.3588 31.3351 55.814 30.8124 55.999C30.6667 55.999 30.5204 55.999 30.3747 55.999Z" fill="white"/>
<path d="M46.312 55.9998C45.8574 55.7691 45.5529 55.3665 45.1977 55.0232C44.8307 54.6687 44.4737 54.3042 44.1141 53.9422C43.6658 53.4902 43.6289 52.9287 44.0178 52.5311C44.4074 52.1335 44.9795 52.161 45.4291 52.603C45.7336 52.9025 46.0463 53.1951 46.3314 53.5114C46.5008 53.6996 46.5978 53.7128 46.786 53.5202C47.717 52.5667 48.6612 51.6258 49.6104 50.6898C50.1744 50.134 51.0142 50.3447 51.2156 51.0818C51.3087 51.4238 51.2162 51.7289 50.9748 51.9721C49.728 53.2282 48.473 54.4768 47.2224 55.7297C47.088 55.8641 46.911 55.9173 46.7491 55.9998C46.604 55.9998 46.4577 55.9998 46.312 55.9998Z" fill="white"/>
<path d="M30.8125 56.0018C31.3352 55.8167 31.6354 55.3616 32.0112 55.0021C32.5083 54.5269 32.4952 54.5232 32.9898 55.004C33.3506 55.3553 33.6613 55.7661 34.1247 56.0018C33.021 56.0018 31.9168 56.0018 30.8125 56.0018Z" fill="#FEFEFE"/>
<path d="M26.875 36.2448C26.8769 33.6664 28.9804 31.5638 31.5591 31.5625C34.1522 31.5613 36.2569 33.6745 36.2494 36.2698C36.2419 38.8451 34.1315 40.9408 31.5491 40.9371C28.9747 40.9339 26.8731 38.8244 26.875 36.2448ZM28.7509 36.2341C28.7446 37.7872 30.0046 39.0583 31.5547 39.062C33.1073 39.0658 34.3735 37.8034 34.3741 36.2504C34.3754 34.7117 33.1217 33.4475 31.586 33.4382C30.0302 33.4294 28.7571 34.6849 28.7509 36.2341Z" fill="#FEFEFE"/>
<path d="M31.5938 42.8105C32.78 42.8105 33.9668 42.8099 35.153 42.8105C35.8183 42.8105 36.2441 43.1725 36.2491 43.7396C36.2541 44.3079 35.8252 44.6849 35.1693 44.6849C32.7337 44.6855 30.2982 44.6868 27.8627 44.6843C27.3806 44.6836 27.0379 44.4248 26.9104 43.9853C26.8022 43.612 26.9548 43.2019 27.2887 42.9755C27.4756 42.8486 27.6839 42.808 27.909 42.8086C29.1377 42.813 30.3658 42.8105 31.5938 42.8105Z" fill="#FEFEFE"/>
<path d="M48.4056 40.938C47.2082 40.938 46.0107 40.9392 44.8139 40.9374C44.1261 40.9367 43.7509 40.5647 43.7509 39.8801C43.7497 37.4543 43.7497 35.0284 43.7509 32.6026C43.7516 31.9392 44.1311 31.5634 44.7996 31.5634C47.2257 31.5622 49.6512 31.5622 52.0773 31.5634C52.7445 31.5641 53.1241 31.9404 53.1247 32.6044C53.1266 35.0409 53.1266 37.4768 53.1247 39.9133C53.1241 40.5554 52.7383 40.9361 52.0917 40.9374C50.863 40.9399 49.6343 40.938 48.4056 40.938ZM48.4388 33.4385C47.5846 33.4385 46.7305 33.4454 45.8769 33.4335C45.6743 33.431 45.6199 33.4829 45.6206 33.6879C45.6293 35.396 45.6293 37.1041 45.6206 38.8122C45.6193 39.0148 45.67 39.0692 45.8751 39.0686C47.5834 39.0598 49.291 39.0598 50.9993 39.0686C51.2019 39.0698 51.2563 39.0192 51.2557 38.8141C51.247 37.106 51.247 35.3979 51.2557 33.6898C51.257 33.4872 51.2069 33.4303 51.0012 33.4335C50.1471 33.4454 49.2929 33.4385 48.4388 33.4385Z" fill="#FEFEFE"/>
<path d="M48.4436 42.8128C49.651 42.8128 50.8584 42.8122 52.0653 42.8134C52.6981 42.8141 53.1226 43.1917 53.1233 43.7494C53.1239 44.3071 52.6987 44.6878 52.0678 44.6878C49.6429 44.6891 47.218 44.6891 44.7925 44.6878C44.1703 44.6872 43.742 44.2933 43.7501 43.7363C43.7582 43.1929 44.1822 42.8147 44.79 42.8141C46.008 42.8116 47.2261 42.8128 48.4436 42.8128Z" fill="#FEFEFE"/>
<path d="M28.751 36.2335C28.7573 34.6842 30.031 33.4282 31.5861 33.4376C33.1218 33.4469 34.3755 34.7111 34.3743 36.2498C34.373 37.8028 33.1074 39.0651 31.5548 39.0614C30.0047 39.0583 28.7441 37.7866 28.751 36.2335Z" fill="white"/>
<path d="M48.438 33.4387C49.2921 33.4387 50.1463 33.4456 50.9998 33.4337C51.2055 33.4306 51.2549 33.4875 51.2543 33.6901C51.2462 35.3982 51.2455 37.1063 51.2543 38.8144C51.2556 39.0194 51.2005 39.0695 50.9979 39.0688C49.2896 39.0607 47.582 39.0601 45.8737 39.0688C45.6686 39.0701 45.6185 39.0151 45.6192 38.8125C45.6273 37.1044 45.6279 35.3963 45.6192 33.6882C45.6179 33.4831 45.6729 33.4306 45.8755 33.4337C46.7297 33.445 47.5838 33.4387 48.438 33.4387Z" fill="white"/>
</svg>
