<svg width="80" height="80" viewBox="0 0 80 80" fill="none" xmlns="http://www.w3.org/2000/svg">
<circle opacity="0.1" cx="40" cy="40" r="40" fill="white"/>
<path d="M59 40.0003C59 39.1571 58.3164 38.4736 57.4732 38.4736H52.7687C52.0736 32.5914 47.4088 27.9267 41.5267 27.2316V22.5193C41.5267 21.6802 40.8433 21 40.0043 21.0001C39.1594 21.0001 38.4731 21.6894 38.4731 22.5343V27.2316C32.591 27.9267 27.9263 32.5914 27.2312 38.4736H22.5268C21.6836 38.4736 21 39.1571 21 40.0003C21 40.8436 21.6836 41.5271 22.5268 41.5271H27.2312C27.9263 47.4093 32.591 52.074 38.4731 52.7691V56.4732C38.4731 57.3164 39.1567 58 39.9999 58C40.8431 58 41.5267 57.3164 41.5267 56.4732V52.7691C47.4088 52.074 52.0736 47.4093 52.7687 41.5271H57.4732C58.3164 41.5271 59 40.8436 59 40.0003ZM39.9999 49.8039C34.5839 49.8039 30.1964 45.4164 30.1964 40.0003C30.1964 34.5843 34.5839 30.1968 39.9999 30.1968C45.416 30.1968 49.8035 34.5843 49.8035 40.0003C49.8035 45.4164 45.416 49.8039 39.9999 49.8039Z" fill="white"/>
<path d="M40.0001 35.1797C38.7104 35.1797 37.5051 35.6779 36.593 36.594C35.6809 37.506 35.1787 38.7114 35.1787 40.0011C35.1787 41.2908 35.6809 42.4962 36.593 43.4083C37.5051 44.3163 38.7144 44.8225 40.0001 44.8225C41.2859 44.8225 42.4952 44.3203 43.4073 43.4083C44.3153 42.4962 44.8216 41.2868 44.8216 40.0011C44.8216 38.7154 44.3193 37.506 43.4073 36.594C42.4952 35.6779 41.2899 35.1797 40.0001 35.1797Z" fill="white"/>
</svg>
