<svg width="80" height="80" viewBox="0 0 80 80" fill="none" xmlns="http://www.w3.org/2000/svg">
<circle opacity="0.1" cx="40" cy="40" r="40" fill="white"/>
<g clip-path="url(#clip0_6_49460)">
<path d="M36.7019 42.5108C36.7012 43.3911 36.9946 44.2062 37.5946 44.8344C37.9294 45.185 38.2868 45.5256 38.68 45.8023C41.8363 48.0223 45.0025 50.2277 48.1701 52.431C48.6632 52.765 49.3681 52.6781 49.672 52.1216C49.9301 51.6949 49.8689 51.2739 49.608 50.8675C47.276 47.2789 45.108 43.5592 42.43 40.2264C40.4928 37.8819 36.6689 39.4707 36.7019 42.5108ZM51.9216 28.6072C48.8222 25.8258 45.2143 24.2818 41.0787 24.0007V30.8431C43.3994 31.0873 45.4534 31.9603 47.2184 33.4492C48.7877 31.8328 50.3402 30.2345 51.9216 28.6072ZM48.7899 35.0642C50.2516 36.9023 51.0964 39.0179 51.3356 41.3857H57.9838C57.6933 37.1175 56.1971 33.4036 53.4818 30.2128C51.9152 31.8321 50.3656 33.4347 48.7899 35.0642ZM38.9332 24C34.7872 24.292 31.1743 25.8309 28.0742 28.6254C29.6478 30.2454 31.201 31.8451 32.7732 33.4644C34.5578 31.9618 36.621 31.0844 38.9332 30.8402V24Z" fill="white"/>
<path d="M22.1696 43.582H28.5758C28.8326 44.5971 29.0267 45.5745 29.3292 46.5149C30.6531 50.6795 33.4443 50.8294 31.7293 52.5654C30.8282 53.4935 29.9349 54.4296 29.0197 55.3439C28.8164 55.5468 28.5646 55.6975 28.3254 55.862C28.1495 55.9822 27.8604 55.9895 27.6796 55.8757C27.5185 55.7743 27.349 55.6808 27.2203 55.5468C24.1146 52.3777 22.4045 48.2349 22.0036 43.7682C21.9951 43.6682 22.0718 43.582 22.1696 43.582Z" fill="white"/>
<path d="M22.0007 41.2435C22.4003 37.0181 23.8289 33.3934 26.5196 30.1953C28.0995 31.8277 29.6499 33.4296 31.2242 35.0554C29.7772 36.874 28.9183 38.983 28.6749 41.4102H22.1484C22.0612 41.4109 21.9923 41.3327 22.0007 41.2435Z" fill="white"/>
<path d="M51.7753 55.9209C51.233 55.4789 50.6892 55.0362 50.1025 54.5588C51.8006 53.5829 52.4858 51.6368 51.4785 49.8697C51.1063 49.2299 50.6955 48.6141 50.3143 47.9794C50.2566 47.883 50.2081 47.7193 50.2489 47.6316C50.8341 46.3594 51.1922 45.0226 51.3322 43.6055H57.9994C57.6772 48.0548 56.0002 52.1621 52.962 55.3637C52.7566 55.5833 52.4907 55.7412 52.2494 55.9252C52.1172 56.0267 51.9048 56.0267 51.7753 55.9209Z" fill="white"/>
<path d="M36.7024 42.5115C36.67 39.4736 40.4911 37.8811 42.4298 40.2271C45.1078 43.5599 47.2758 47.2803 49.6077 50.8681C49.868 51.2746 49.9292 51.6955 49.6717 52.1223C49.3678 52.678 48.6637 52.7664 48.1699 52.4317C45.003 50.2284 41.8368 48.0229 38.6804 45.803C38.2872 45.5262 37.9299 45.1857 37.595 44.835C36.995 44.2061 36.7016 43.3911 36.7024 42.5115Z" fill="white"/>
<path d="M51.9219 28.6065C50.3413 30.2338 48.7881 31.8321 47.2187 33.4478C45.4538 31.9589 43.3998 31.0858 41.0791 30.8417V24C45.2146 24.2811 48.8226 25.8251 51.9219 28.6065Z" fill="white"/>
<path d="M48.79 35.0623C50.3657 33.4336 51.9154 31.831 53.482 30.2109C56.1973 33.4017 57.6935 37.1164 57.984 41.3838H51.3358C51.0973 39.016 50.2518 36.9004 48.79 35.0623Z" fill="white"/>
<path d="M38.9332 24V30.8402C36.621 31.0844 34.5578 31.9618 32.7732 33.4644C31.201 31.8451 29.6478 30.2461 28.0742 28.6254C31.1743 25.8309 34.7872 24.292 38.9332 24Z" fill="white"/>
</g>
<defs>
<clipPath id="clip0_6_49460">
<rect width="36" height="32" fill="white" transform="translate(22 24)"/>
</clipPath>
</defs>
</svg>
