<svg width="666" height="446" viewBox="0 0 666 446" fill="none" xmlns="http://www.w3.org/2000/svg">
<path d="M45 19.8027C45 8.86599 53.866 0 64.8027 0H601.197C612.134 0 621 8.86597 621 19.8027V446H45V19.8027Z" fill="#2A2A2A"/>
<path d="M66.4316 77.9844V61.5977H73.3378C74.3115 61.5977 75.2438 61.7875 76.135 62.167C77.0426 62.5301 77.8512 63.0664 78.5608 63.776C79.2704 64.4856 79.8315 65.3437 80.244 66.3503C80.6566 67.357 80.8629 68.5039 80.8629 69.791C80.8629 71.0782 80.6566 72.2251 80.244 73.2318C79.8315 74.2384 79.2704 75.0965 78.5608 75.8061C77.8512 76.5157 77.0426 77.0603 76.135 77.4398C75.2438 77.8029 74.3115 77.9844 73.3378 77.9844H66.4316ZM68.2881 76.2269H73.2636C74.4352 76.2269 75.4501 75.9299 76.3082 75.3358C77.1663 74.7417 77.8264 73.9579 78.2885 72.9842C78.7671 72.0106 79.0064 70.9462 79.0064 69.791C79.0064 68.6194 78.7671 67.5467 78.2885 66.5731C77.8264 65.5995 77.1663 64.8239 76.3082 64.2463C75.4501 63.6522 74.4352 63.3552 73.2636 63.3552H68.2881V76.2269Z" fill="#FFF1F1"/>
<path d="M88.6642 78.1829C87.4595 78.1829 86.4033 77.9024 85.4957 77.3413C84.6046 76.7637 83.9115 75.9881 83.4164 75.0145C82.9214 74.0409 82.6738 72.9682 82.6738 71.7966C82.6738 70.6084 82.9214 69.5358 83.4164 68.5786C83.9115 67.605 84.6046 66.8376 85.4957 66.2766C86.4033 65.699 87.4595 65.4102 88.6642 65.4102C89.6873 65.4102 90.5619 65.6082 91.288 66.0043C92.0306 66.4003 92.6329 66.9367 93.095 67.6132V65.6082H94.9515V77.9849H93.095V76.0046C92.6329 76.6647 92.0306 77.1928 91.288 77.5889C90.5619 77.9849 89.6873 78.1829 88.6642 78.1829ZM88.9117 76.4997C89.8358 76.4997 90.6114 76.2852 91.2385 75.8561C91.8821 75.4271 92.3689 74.8577 92.699 74.1481C93.029 73.422 93.194 72.6382 93.194 71.7966C93.194 70.9384 93.029 70.1546 92.699 69.445C92.3689 68.7354 91.8821 68.1661 91.2385 67.737C90.6114 67.308 89.8358 67.0934 88.9117 67.0934C88.0041 67.0934 87.2202 67.308 86.5601 67.737C85.9 68.1661 85.3967 68.7354 85.0502 69.445C84.7036 70.1546 84.5303 70.9384 84.5303 71.7966C84.5303 72.6382 84.7036 73.422 85.0502 74.1481C85.3967 74.8577 85.9 75.4271 86.5601 75.8561C87.2202 76.2852 88.0041 76.4997 88.9117 76.4997Z" fill="#FFF1F1"/>
<path d="M102.667 78.1829C101.528 78.1829 100.563 77.9932 99.7702 77.6136C98.9946 77.2341 98.4006 76.739 97.988 76.1284C97.5754 75.5013 97.3444 74.8247 97.2949 74.0986H99.2257C99.2752 74.5112 99.4154 74.9155 99.6465 75.3115C99.894 75.6911 100.266 76.0046 100.761 76.2522C101.256 76.4832 101.9 76.5987 102.692 76.5987C102.939 76.5987 103.244 76.574 103.608 76.5245C103.971 76.4749 104.317 76.3842 104.647 76.2522C104.994 76.1202 105.282 75.9221 105.514 75.6581C105.745 75.3941 105.86 75.0558 105.86 74.6432C105.86 74.1316 105.662 73.7356 105.266 73.455C104.87 73.1745 104.358 72.96 103.731 72.8115C103.104 72.6464 102.436 72.4897 101.726 72.3411C101.033 72.1926 100.373 72.0028 99.7455 71.7718C99.1184 71.5243 98.6068 71.186 98.2108 70.7569C97.8147 70.3114 97.6167 69.709 97.6167 68.9499C97.6167 67.8278 98.021 66.9614 98.8296 66.3508C99.6547 65.7237 100.868 65.4102 102.469 65.4102C103.558 65.4102 104.441 65.5835 105.117 65.93C105.811 66.2601 106.33 66.6891 106.677 67.2172C107.04 67.7453 107.255 68.3146 107.321 68.9252H105.439C105.373 68.3971 105.109 67.9433 104.647 67.5637C104.202 67.1842 103.459 66.9944 102.419 66.9944C100.456 66.9944 99.4732 67.5885 99.4732 68.7767C99.4732 69.2717 99.6712 69.6513 100.068 69.9153C100.464 70.1793 100.975 70.3939 101.602 70.5589C102.23 70.7074 102.89 70.8559 103.583 71.0045C104.292 71.1365 104.961 71.3263 105.588 71.5738C106.215 71.8213 106.726 72.1761 107.122 72.6382C107.519 73.0837 107.717 73.6943 107.717 74.4699C107.717 75.6746 107.255 76.5987 106.33 77.2423C105.423 77.8694 104.202 78.1829 102.667 78.1829Z" fill="#FFF1F1"/>
<path d="M110.104 77.9836V60.6562H111.961V67.5377C112.406 66.9436 112.951 66.4404 113.595 66.0278C114.238 65.6153 115.063 65.4089 116.07 65.4089C116.928 65.4089 117.728 65.6153 118.471 66.0278C119.23 66.4239 119.841 67.0262 120.303 67.8348C120.781 68.6269 121.021 69.6088 121.021 70.7805V77.9836H119.164V70.83C119.164 69.7078 118.842 68.8084 118.199 68.1318C117.555 67.4387 116.722 67.0922 115.699 67.0922C115.006 67.0922 114.378 67.249 113.817 67.5625C113.256 67.8761 112.802 68.3216 112.456 68.8992C112.126 69.4603 111.961 70.112 111.961 70.8546V77.9836H110.104Z" fill="#FFF1F1"/>
<path d="M130.41 78.1817C129.387 78.1817 128.504 77.9837 127.762 77.5877C127.035 77.1916 126.441 76.6635 125.979 76.0034V77.9836H124.123V60.6562H125.979V67.6119C126.441 66.9354 127.035 66.399 127.762 66.003C128.504 65.6069 129.387 65.4089 130.41 65.4089C131.615 65.4089 132.663 65.6977 133.554 66.2753C134.461 66.8363 135.163 67.6038 135.658 68.5774C136.153 69.5346 136.4 70.6072 136.4 71.7954C136.4 72.967 136.153 74.0396 135.658 75.0132C135.163 75.9868 134.461 76.7624 133.554 77.34C132.663 77.9011 131.615 78.1817 130.41 78.1817ZM130.163 76.4984C131.087 76.4984 131.871 76.2839 132.514 75.8548C133.174 75.4258 133.678 74.8564 134.024 74.1468C134.371 73.4207 134.544 72.637 134.544 71.7954C134.544 70.9372 134.371 70.1534 134.024 69.4438C133.678 68.7342 133.174 68.1649 132.514 67.7358C131.871 67.3068 131.087 67.0922 130.163 67.0922C129.255 67.0922 128.479 67.3068 127.836 67.7358C127.192 68.1649 126.705 68.7342 126.375 69.4438C126.045 70.1534 125.88 70.9372 125.88 71.7954C125.88 72.637 126.045 73.4207 126.375 74.1468C126.705 74.8564 127.192 75.4258 127.836 75.8548C128.479 76.2839 129.255 76.4984 130.163 76.4984Z" fill="#FFF1F1"/>
<path d="M144.217 78.1829C142.963 78.1829 141.873 77.9024 140.949 77.3413C140.025 76.7637 139.316 75.9881 138.821 75.0145C138.325 74.0409 138.078 72.9682 138.078 71.7966C138.078 70.6084 138.325 69.5358 138.821 68.5786C139.316 67.605 140.025 66.8376 140.949 66.2766C141.873 65.699 142.963 65.4102 144.217 65.4102C145.487 65.4102 146.577 65.699 147.484 66.2766C148.408 66.8376 149.118 67.605 149.613 68.5786C150.108 69.5358 150.356 70.6084 150.356 71.7966C150.356 72.9682 150.108 74.0409 149.613 75.0145C149.118 75.9881 148.408 76.7637 147.484 77.3413C146.577 77.9024 145.487 78.1829 144.217 78.1829ZM144.217 76.4997C145.141 76.4997 145.916 76.2852 146.544 75.8561C147.187 75.4271 147.674 74.8577 148.004 74.1481C148.334 73.422 148.499 72.6382 148.499 71.7966C148.499 70.9384 148.334 70.1546 148.004 69.445C147.674 68.7354 147.187 68.1661 146.544 67.737C145.916 67.308 145.141 67.0934 144.217 67.0934C143.309 67.0934 142.534 67.308 141.89 67.737C141.246 68.1661 140.76 68.7354 140.429 69.445C140.099 70.1546 139.934 70.9384 139.934 71.7966C139.934 72.6382 140.099 73.422 140.429 74.1481C140.76 74.8577 141.246 75.4271 141.89 75.8561C142.534 76.2852 143.309 76.4997 144.217 76.4997Z" fill="#FFF1F1"/>
<path d="M158.041 78.1829C156.837 78.1829 155.781 77.9024 154.873 77.3413C153.982 76.7637 153.289 75.9881 152.794 75.0145C152.299 74.0409 152.051 72.9682 152.051 71.7966C152.051 70.6084 152.299 69.5358 152.794 68.5786C153.289 67.605 153.982 66.8376 154.873 66.2766C155.781 65.699 156.837 65.4102 158.041 65.4102C159.064 65.4102 159.939 65.6082 160.665 66.0043C161.408 66.4003 162.01 66.9367 162.472 67.6132V65.6082H164.329V77.9849H162.472V76.0046C162.01 76.6647 161.408 77.1928 160.665 77.5889C159.939 77.9849 159.064 78.1829 158.041 78.1829ZM158.289 76.4997C159.213 76.4997 159.989 76.2852 160.616 75.8561C161.259 75.4271 161.746 74.8577 162.076 74.1481C162.406 73.422 162.571 72.6382 162.571 71.7966C162.571 70.9384 162.406 70.1546 162.076 69.445C161.746 68.7354 161.259 68.1661 160.616 67.737C159.989 67.308 159.213 67.0934 158.289 67.0934C157.381 67.0934 156.597 67.308 155.937 67.737C155.277 68.1661 154.774 68.7354 154.427 69.445C154.081 70.1546 153.908 70.9384 153.908 71.7966C153.908 72.6382 154.081 73.422 154.427 74.1481C154.774 74.8577 155.277 75.4271 155.937 75.8561C156.597 76.2852 157.381 76.4997 158.289 76.4997Z" fill="#FFF1F1"/>
<path d="M167.539 77.9849V65.6082H169.395V68.6529C169.461 68.4384 169.585 68.1578 169.767 67.8113C169.965 67.4482 170.245 67.0852 170.608 66.7221C170.971 66.3591 171.425 66.0538 171.97 65.8063C172.531 65.5422 173.191 65.4102 173.95 65.4102H174.074V67.2667H173.851C172.927 67.2667 172.126 67.5225 171.45 68.0341C170.79 68.5291 170.278 69.181 169.915 69.9896C169.569 70.7817 169.395 71.6315 169.395 72.5392V77.9849H167.539Z" fill="#FFF1F1"/>
<path d="M180.981 78.1817C179.776 78.1817 178.72 77.9011 177.812 77.34C176.921 76.7624 176.228 75.9868 175.733 75.0132C175.238 74.0396 174.99 72.967 174.99 71.7954C174.99 70.6072 175.238 69.5346 175.733 68.5774C176.228 67.6038 176.921 66.8363 177.812 66.2753C178.72 65.6977 179.776 65.4089 180.981 65.4089C182.004 65.4089 182.878 65.6069 183.605 66.003C184.347 66.399 184.95 66.9354 185.412 67.6119V60.6562H187.268V77.9836H185.412V76.0034C184.95 76.6635 184.347 77.1916 183.605 77.5877C182.878 77.9837 182.004 78.1817 180.981 78.1817ZM181.228 76.4984C182.152 76.4984 182.928 76.2839 183.555 75.8548C184.199 75.4258 184.685 74.8564 185.016 74.1468C185.346 73.4207 185.511 72.637 185.511 71.7954C185.511 70.9372 185.346 70.1534 185.016 69.4438C184.685 68.7342 184.199 68.1649 183.555 67.7358C182.928 67.3068 182.152 67.0922 181.228 67.0922C180.321 67.0922 179.537 67.3068 178.877 67.7358C178.217 68.1649 177.713 68.7342 177.367 69.4438C177.02 70.1534 176.847 70.9372 176.847 71.7954C176.847 72.637 177.02 73.4207 177.367 74.1468C177.713 74.8564 178.217 75.4258 178.877 75.8548C179.537 76.2839 180.321 76.4984 181.228 76.4984Z" fill="#FFF1F1"/>
<path d="M76.8025 25.9891C76.8025 29.4068 74.0318 32.1775 70.6141 32.1775C67.1964 32.1775 64.4258 29.4068 64.4258 25.9891C64.4258 22.5714 67.1964 19.8008 70.6141 19.8008C74.0318 19.8008 76.8025 22.5714 76.8025 25.9891Z" fill="#ED6A5F"/>
<path d="M97.8435 25.9891C97.8435 29.4068 95.0729 32.1775 91.6551 32.1775C88.2374 32.1775 85.4668 29.4068 85.4668 25.9891C85.4668 22.5714 88.2374 19.8008 91.6551 19.8008C95.0729 19.8008 97.8435 22.5714 97.8435 25.9891Z" fill="#F5BD4F"/>
<path d="M118.883 25.9891C118.883 29.4068 116.112 32.1775 112.694 32.1775C109.276 32.1775 106.506 29.4068 106.506 25.9891C106.506 22.5714 109.276 19.8008 112.694 19.8008C116.112 19.8008 118.883 22.5714 118.883 25.9891Z" fill="#61C454"/>
<path d="M64.4258 121.957C64.4258 117.489 68.0476 113.867 72.5154 113.867H593.484C597.952 113.867 601.574 117.489 601.574 121.957V164.832C601.574 169.299 597.952 172.921 593.484 172.921H72.5154C68.0476 172.921 64.4258 169.299 64.4258 164.832V121.957Z" fill="#333333"/>
<path d="M484 60.0896C484 55.6218 487.622 52 492.09 52H593.91C598.378 52 602 55.6218 602 60.0896V69.9104C602 74.3782 598.378 78 593.91 78H492.09C487.622 78 484 74.3782 484 69.9104V60.0896Z" fill="#333333"/>
<g opacity="0.5">
<path opacity="0.5" d="M503.43 64.5114C503.43 63.8314 503.583 63.2214 503.89 62.6814C504.196 62.1347 504.613 61.7081 505.14 61.4014C505.673 61.0947 506.263 60.9414 506.91 60.9414C507.67 60.9414 508.333 61.1247 508.9 61.4914C509.466 61.8581 509.88 62.3781 510.14 63.0514H509.05C508.856 62.6314 508.576 62.3081 508.21 62.0814C507.85 61.8547 507.416 61.7414 506.91 61.7414C506.423 61.7414 505.986 61.8547 505.6 62.0814C505.213 62.3081 504.91 62.6314 504.69 63.0514C504.47 63.4647 504.36 63.9514 504.36 64.5114C504.36 65.0647 504.47 65.5514 504.69 65.9714C504.91 66.3847 505.213 66.7047 505.6 66.9314C505.986 67.1581 506.423 67.2714 506.91 67.2714C507.416 67.2714 507.85 67.1614 508.21 66.9414C508.576 66.7147 508.856 66.3914 509.05 65.9714H510.14C509.88 66.6381 509.466 67.1547 508.9 67.5214C508.333 67.8814 507.67 68.0614 506.91 68.0614C506.263 68.0614 505.673 67.9114 505.14 67.6114C504.613 67.3047 504.196 66.8814 503.89 66.3414C503.583 65.8014 503.43 65.1914 503.43 64.5114Z" fill="#FFF1F1"/>
<path opacity="0.5" d="M512.404 63.4119C512.564 63.0986 512.791 62.8552 513.084 62.6819C513.384 62.5086 513.748 62.4219 514.174 62.4219V63.3619H513.934C512.914 63.3619 512.404 63.9152 512.404 65.0219V68.0019H511.494V62.5219H512.404V63.4119Z" fill="#FFF1F1"/>
<path opacity="0.5" d="M520.225 65.0497C520.225 65.223 520.215 65.4064 520.195 65.5997H515.815C515.848 66.1397 516.031 66.563 516.365 66.8697C516.705 67.1697 517.115 67.3197 517.595 67.3197C517.988 67.3197 518.315 67.2297 518.575 67.0497C518.841 66.863 519.028 66.6164 519.135 66.3097H520.115C519.968 66.8364 519.675 67.2664 519.235 67.5997C518.795 67.9264 518.248 68.0897 517.595 68.0897C517.075 68.0897 516.608 67.973 516.195 67.7397C515.788 67.5064 515.468 67.1764 515.235 66.7497C515.001 66.3164 514.885 65.8164 514.885 65.2497C514.885 64.683 514.998 64.1864 515.225 63.7597C515.451 63.333 515.768 63.0064 516.175 62.7797C516.588 62.5464 517.061 62.4297 517.595 62.4297C518.115 62.4297 518.575 62.543 518.975 62.7697C519.375 62.9964 519.681 63.3097 519.895 63.7097C520.115 64.103 520.225 64.5497 520.225 65.0497ZM519.285 64.8597C519.285 64.513 519.208 64.2164 519.055 63.9697C518.901 63.7164 518.691 63.5264 518.425 63.3997C518.165 63.2664 517.875 63.1997 517.555 63.1997C517.095 63.1997 516.701 63.3464 516.375 63.6397C516.055 63.933 515.871 64.3397 515.825 64.8597H519.285Z" fill="#FFF1F1"/>
<path opacity="0.5" d="M521.086 65.2397C521.086 64.6797 521.199 64.1897 521.426 63.7697C521.653 63.343 521.963 63.013 522.356 62.7797C522.756 62.5464 523.199 62.4297 523.686 62.4297C524.166 62.4297 524.583 62.533 524.936 62.7397C525.289 62.9464 525.553 63.2064 525.726 63.5197V62.5197H526.646V67.9997H525.726V66.9797C525.546 67.2997 525.276 67.5664 524.916 67.7797C524.563 67.9864 524.149 68.0897 523.676 68.0897C523.189 68.0897 522.749 67.9697 522.356 67.7297C521.963 67.4897 521.653 67.153 521.426 66.7197C521.199 66.2864 521.086 65.793 521.086 65.2397ZM525.726 65.2497C525.726 64.8364 525.643 64.4764 525.476 64.1697C525.309 63.863 525.083 63.6297 524.796 63.4697C524.516 63.303 524.206 63.2197 523.866 63.2197C523.526 63.2197 523.216 63.2997 522.936 63.4597C522.656 63.6197 522.433 63.853 522.266 64.1597C522.099 64.4664 522.016 64.8264 522.016 65.2397C522.016 65.6597 522.099 66.0264 522.266 66.3397C522.433 66.6464 522.656 66.883 522.936 67.0497C523.216 67.2097 523.526 67.2897 523.866 67.2897C524.206 67.2897 524.516 67.2097 524.796 67.0497C525.083 66.883 525.309 66.6464 525.476 66.3397C525.643 66.0264 525.726 65.663 525.726 65.2497Z" fill="#FFF1F1"/>
<path opacity="0.5" d="M529.294 63.2706V66.5006C529.294 66.7673 529.35 66.9573 529.464 67.0706C529.577 67.1773 529.774 67.2306 530.054 67.2306H530.724V68.0006H529.904C529.397 68.0006 529.017 67.8839 528.764 67.6506C528.51 67.4173 528.384 67.0339 528.384 66.5006V63.2706H527.674V62.5206H528.384V61.1406H529.294V62.5206H530.724V63.2706H529.294Z" fill="#FFF1F1"/>
<path opacity="0.5" d="M536.826 65.0497C536.826 65.223 536.816 65.4064 536.796 65.5997H532.416C532.45 66.1397 532.633 66.563 532.966 66.8697C533.306 67.1697 533.716 67.3197 534.196 67.3197C534.59 67.3197 534.916 67.2297 535.176 67.0497C535.443 66.863 535.63 66.6164 535.736 66.3097H536.716C536.57 66.8364 536.276 67.2664 535.836 67.5997C535.396 67.9264 534.85 68.0897 534.196 68.0897C533.676 68.0897 533.21 67.973 532.796 67.7397C532.39 67.5064 532.07 67.1764 531.836 66.7497C531.603 66.3164 531.486 65.8164 531.486 65.2497C531.486 64.683 531.6 64.1864 531.826 63.7597C532.053 63.333 532.37 63.0064 532.776 62.7797C533.19 62.5464 533.663 62.4297 534.196 62.4297C534.716 62.4297 535.176 62.543 535.576 62.7697C535.976 62.9964 536.283 63.3097 536.496 63.7097C536.716 64.103 536.826 64.5497 536.826 65.0497ZM535.886 64.8597C535.886 64.513 535.81 64.2164 535.656 63.9697C535.503 63.7164 535.293 63.5264 535.026 63.3997C534.766 63.2664 534.476 63.1997 534.156 63.1997C533.696 63.1997 533.303 63.3464 532.976 63.6397C532.656 63.933 532.473 64.3397 532.426 64.8597H535.886Z" fill="#FFF1F1"/>
<path opacity="0.5" d="M542.904 68.0714C542.444 68.0714 542.03 67.9914 541.664 67.8314C541.304 67.6647 541.02 67.4381 540.814 67.1514C540.607 66.8581 540.5 66.5214 540.494 66.1414H541.464C541.497 66.4681 541.63 66.7447 541.864 66.9714C542.104 67.1914 542.45 67.3014 542.904 67.3014C543.337 67.3014 543.677 67.1947 543.924 66.9814C544.177 66.7614 544.304 66.4814 544.304 66.1414C544.304 65.8747 544.23 65.6581 544.084 65.4914C543.937 65.3247 543.754 65.1981 543.534 65.1114C543.314 65.0247 543.017 64.9314 542.644 64.8314C542.184 64.7114 541.814 64.5914 541.534 64.4714C541.26 64.3514 541.024 64.1647 540.824 63.9114C540.63 63.6514 540.534 63.3047 540.534 62.8714C540.534 62.4914 540.63 62.1547 540.824 61.8614C541.017 61.5681 541.287 61.3414 541.634 61.1814C541.987 61.0214 542.39 60.9414 542.844 60.9414C543.497 60.9414 544.03 61.1047 544.444 61.4314C544.864 61.7581 545.1 62.1914 545.154 62.7314H544.154C544.12 62.4647 543.98 62.2314 543.734 62.0314C543.487 61.8247 543.16 61.7214 542.754 61.7214C542.374 61.7214 542.064 61.8214 541.824 62.0214C541.584 62.2147 541.464 62.4881 541.464 62.8414C541.464 63.0947 541.534 63.3014 541.674 63.4614C541.82 63.6214 541.997 63.7447 542.204 63.8314C542.417 63.9114 542.714 64.0047 543.094 64.1114C543.554 64.2381 543.924 64.3647 544.204 64.4914C544.484 64.6114 544.724 64.8014 544.924 65.0614C545.124 65.3147 545.224 65.6614 545.224 66.1014C545.224 66.4414 545.134 66.7614 544.954 67.0614C544.774 67.3614 544.507 67.6047 544.154 67.7914C543.8 67.9781 543.384 68.0714 542.904 68.0714Z" fill="#FFF1F1"/>
<path opacity="0.5" d="M547.673 63.2706V66.5006C547.673 66.7673 547.729 66.9573 547.843 67.0706C547.956 67.1773 548.153 67.2306 548.433 67.2306H549.103V68.0006H548.283C547.776 68.0006 547.396 67.8839 547.143 67.6506C546.889 67.4173 546.763 67.0339 546.763 66.5006V63.2706H546.053V62.5206H546.763V61.1406H547.673V62.5206H549.103V63.2706H547.673Z" fill="#FFF1F1"/>
<path opacity="0.5" d="M551.115 63.4119C551.275 63.0986 551.502 62.8552 551.795 62.6819C552.095 62.5086 552.459 62.4219 552.885 62.4219V63.3619H552.645C551.625 63.3619 551.115 63.9152 551.115 65.0219V68.0019H550.205V62.5219H551.115V63.4119Z" fill="#FFF1F1"/>
<path opacity="0.5" d="M553.596 65.2397C553.596 64.6797 553.709 64.1897 553.936 63.7697C554.162 63.343 554.472 63.013 554.866 62.7797C555.266 62.5464 555.709 62.4297 556.196 62.4297C556.676 62.4297 557.092 62.533 557.446 62.7397C557.799 62.9464 558.062 63.2064 558.236 63.5197V62.5197H559.156V67.9997H558.236V66.9797C558.056 67.2997 557.786 67.5664 557.426 67.7797C557.072 67.9864 556.659 68.0897 556.186 68.0897C555.699 68.0897 555.259 67.9697 554.866 67.7297C554.472 67.4897 554.162 67.153 553.936 66.7197C553.709 66.2864 553.596 65.793 553.596 65.2397ZM558.236 65.2497C558.236 64.8364 558.152 64.4764 557.986 64.1697C557.819 63.863 557.592 63.6297 557.306 63.4697C557.026 63.303 556.716 63.2197 556.376 63.2197C556.036 63.2197 555.726 63.2997 555.446 63.4597C555.166 63.6197 554.942 63.853 554.776 64.1597C554.609 64.4664 554.526 64.8264 554.526 65.2397C554.526 65.6597 554.609 66.0264 554.776 66.3397C554.942 66.6464 555.166 66.883 555.446 67.0497C555.726 67.2097 556.036 67.2897 556.376 67.2897C556.716 67.2897 557.026 67.2097 557.306 67.0497C557.592 66.883 557.819 66.6464 557.986 66.3397C558.152 66.0264 558.236 65.663 558.236 65.2497Z" fill="#FFF1F1"/>
<path opacity="0.5" d="M561.804 63.2706V66.5006C561.804 66.7673 561.86 66.9573 561.974 67.0706C562.087 67.1773 562.284 67.2306 562.564 67.2306H563.234V68.0006H562.414C561.907 68.0006 561.527 67.8839 561.274 67.6506C561.02 67.4173 560.894 67.0339 560.894 66.5006V63.2706H560.184V62.5206H560.894V61.1406H561.804V62.5206H563.234V63.2706H561.804Z" fill="#FFF1F1"/>
<path opacity="0.5" d="M569.336 65.0497C569.336 65.223 569.326 65.4064 569.306 65.5997H564.926C564.959 66.1397 565.143 66.563 565.476 66.8697C565.816 67.1697 566.226 67.3197 566.706 67.3197C567.099 67.3197 567.426 67.2297 567.686 67.0497C567.953 66.863 568.139 66.6164 568.246 66.3097H569.226C569.079 66.8364 568.786 67.2664 568.346 67.5997C567.906 67.9264 567.359 68.0897 566.706 68.0897C566.186 68.0897 565.719 67.973 565.306 67.7397C564.899 67.5064 564.579 67.1764 564.346 66.7497C564.113 66.3164 563.996 65.8164 563.996 65.2497C563.996 64.683 564.109 64.1864 564.336 63.7597C564.563 63.333 564.879 63.0064 565.286 62.7797C565.699 62.5464 566.173 62.4297 566.706 62.4297C567.226 62.4297 567.686 62.543 568.086 62.7697C568.486 62.9964 568.793 63.3097 569.006 63.7097C569.226 64.103 569.336 64.5497 569.336 65.0497ZM568.396 64.8597C568.396 64.513 568.319 64.2164 568.166 63.9697C568.013 63.7164 567.803 63.5264 567.536 63.3997C567.276 63.2664 566.986 63.1997 566.666 63.1997C566.206 63.1997 565.813 63.3464 565.486 63.6397C565.166 63.933 564.983 64.3397 564.936 64.8597H568.396Z" fill="#FFF1F1"/>
<path opacity="0.5" d="M572.797 62.4297C573.271 62.4297 573.684 62.533 574.037 62.7397C574.397 62.9464 574.664 63.2064 574.837 63.5197V62.5197H575.757V68.1197C575.757 68.6197 575.651 69.063 575.437 69.4497C575.224 69.843 574.917 70.1497 574.517 70.3697C574.124 70.5897 573.664 70.6997 573.137 70.6997C572.417 70.6997 571.817 70.5297 571.337 70.1897C570.857 69.8497 570.574 69.3864 570.487 68.7997H571.387C571.487 69.133 571.694 69.3997 572.007 69.5997C572.321 69.8064 572.697 69.9097 573.137 69.9097C573.637 69.9097 574.044 69.753 574.357 69.4397C574.677 69.1264 574.837 68.6864 574.837 68.1197V66.9697C574.657 67.2897 574.391 67.5564 574.037 67.7697C573.684 67.983 573.271 68.0897 572.797 68.0897C572.311 68.0897 571.867 67.9697 571.467 67.7297C571.074 67.4897 570.764 67.153 570.537 66.7197C570.311 66.2864 570.197 65.793 570.197 65.2397C570.197 64.6797 570.311 64.1897 570.537 63.7697C570.764 63.343 571.074 63.013 571.467 62.7797C571.867 62.5464 572.311 62.4297 572.797 62.4297ZM574.837 65.2497C574.837 64.8364 574.754 64.4764 574.587 64.1697C574.421 63.863 574.194 63.6297 573.907 63.4697C573.627 63.303 573.317 63.2197 572.977 63.2197C572.637 63.2197 572.327 63.2997 572.047 63.4597C571.767 63.6197 571.544 63.853 571.377 64.1597C571.211 64.4664 571.127 64.8264 571.127 65.2397C571.127 65.6597 571.211 66.0264 571.377 66.3397C571.544 66.6464 571.767 66.883 572.047 67.0497C572.327 67.2097 572.637 67.2897 572.977 67.2897C573.317 67.2897 573.627 67.2097 573.907 67.0497C574.194 66.883 574.421 66.6464 574.587 66.3397C574.754 66.0264 574.837 65.663 574.837 65.2497Z" fill="#FFF1F1"/>
<path opacity="0.5" d="M582.015 62.5195L578.715 70.5795H577.775L578.854 67.9395L576.645 62.5195H577.655L579.375 66.9595L581.075 62.5195H582.015Z" fill="#FFF1F1"/>
</g>
<path opacity="0.43" d="M122.672 134.492C122.672 132.928 123.94 131.66 125.503 131.66H154.626C156.189 131.66 157.457 132.928 157.457 134.492C157.457 136.055 156.189 137.323 154.626 137.323H125.503C123.94 137.323 122.672 136.055 122.672 134.492Z" fill="#5D5D5D"/>
<path opacity="0.43" d="M211.656 134.492C211.656 132.928 212.924 131.66 214.488 131.66H232.285C233.848 131.66 235.116 132.928 235.116 134.492C235.116 136.055 233.848 137.323 232.285 137.323H214.488C212.924 137.323 211.656 136.055 211.656 134.492Z" fill="#5D5D5D"/>
<path opacity="0.43" d="M285.271 134.492C285.271 132.928 286.539 131.66 288.103 131.66H305.9C307.464 131.66 308.731 132.928 308.731 134.492C308.731 136.055 307.464 137.323 305.9 137.323H288.103C286.539 137.323 285.271 136.055 285.271 134.492Z" fill="#5D5D5D"/>
<path opacity="0.43" d="M366.975 134.492C366.975 132.928 368.242 131.66 369.806 131.66H387.603C389.167 131.66 390.434 132.928 390.434 134.492C390.434 136.055 389.167 137.323 387.603 137.323H369.806C368.242 137.323 366.975 136.055 366.975 134.492Z" fill="#5D5D5D"/>
<path opacity="0.43" d="M448.682 134.492C448.682 132.928 449.949 131.66 451.513 131.66H469.31C470.874 131.66 472.141 132.928 472.141 134.492C472.141 136.055 470.874 137.323 469.31 137.323H451.513C449.949 137.323 448.682 136.055 448.682 134.492Z" fill="#5D5D5D"/>
<path opacity="0.43" d="M530.385 134.492C530.385 132.928 531.652 131.66 533.216 131.66H551.013C552.577 131.66 553.845 132.928 553.845 134.492C553.845 136.055 552.577 137.323 551.013 137.323H533.216C531.652 137.323 530.385 136.055 530.385 134.492Z" fill="#5D5D5D"/>
<path opacity="0.43" d="M122.672 150.672C122.672 148.215 124.664 146.223 127.121 146.223H187.793C190.25 146.223 192.242 148.215 192.242 150.672C192.242 153.129 190.25 155.121 187.793 155.121H127.121C124.664 155.121 122.672 153.129 122.672 150.672Z" fill="#5D5D5D"/>
<path opacity="0.43" d="M211.656 150.672C211.656 148.215 213.648 146.223 216.106 146.223H248.464C250.921 146.223 252.913 148.215 252.913 150.672C252.913 153.129 250.921 155.121 248.464 155.121H216.106C213.648 155.121 211.656 153.129 211.656 150.672Z" fill="#5D5D5D"/>
<path opacity="0.43" d="M285.271 150.672C285.271 148.215 287.263 146.223 289.721 146.223H322.079C324.536 146.223 326.529 148.215 326.529 150.672C326.529 153.129 324.536 155.121 322.079 155.121H289.721C287.263 155.121 285.271 153.129 285.271 150.672Z" fill="#5D5D5D"/>
<path opacity="0.43" d="M366.975 150.672C366.975 148.215 368.967 146.223 371.424 146.223H403.782C406.239 146.223 408.231 148.215 408.231 150.672C408.231 153.129 406.239 155.121 403.782 155.121H371.424C368.967 155.121 366.975 153.129 366.975 150.672Z" fill="#5D5D5D"/>
<path opacity="0.43" d="M448.682 150.672C448.682 148.215 450.674 146.223 453.131 146.223H485.489C487.946 146.223 489.938 148.215 489.938 150.672C489.938 153.129 487.946 155.121 485.489 155.121H453.131C450.674 155.121 448.682 153.129 448.682 150.672Z" fill="#5D5D5D"/>
<path opacity="0.43" d="M530.385 150.672C530.385 148.215 532.377 146.223 534.834 146.223H567.192C569.65 146.223 571.642 148.215 571.642 150.672C571.642 153.129 569.65 155.121 567.192 155.121H534.834C532.377 155.121 530.385 153.129 530.385 150.672Z" fill="#5D5D5D"/>
<path opacity="0.43" d="M110.536 143.392C110.536 152.551 103.112 159.976 93.9528 159.976C84.7939 159.976 77.3691 152.551 77.3691 143.392C77.3691 134.233 84.7939 126.809 93.9528 126.809C103.112 126.809 110.536 134.233 110.536 143.392Z" fill="#5D5D5D"/>
<path d="M64.4258 304.875C64.4258 300.407 68.0476 296.785 72.5154 296.785H593.484C597.952 296.785 601.574 300.407 601.574 304.875V347.749C601.574 352.217 597.952 355.839 593.484 355.839H72.5154C68.0476 355.839 64.4258 352.217 64.4258 347.749V304.875Z" fill="#333333"/>
<path opacity="0.43" d="M122.672 317.413C122.672 315.85 123.94 314.582 125.503 314.582H154.626C156.189 314.582 157.457 315.85 157.457 317.413C157.457 318.977 156.189 320.245 154.626 320.245H125.503C123.94 320.245 122.672 318.977 122.672 317.413Z" fill="#5D5D5D"/>
<path opacity="0.43" d="M211.656 317.413C211.656 315.85 212.924 314.582 214.488 314.582H232.285C233.848 314.582 235.116 315.85 235.116 317.413C235.116 318.977 233.848 320.245 232.285 320.245H214.488C212.924 320.245 211.656 318.977 211.656 317.413Z" fill="#5D5D5D"/>
<path opacity="0.43" d="M285.271 317.413C285.271 315.85 286.539 314.582 288.103 314.582H305.9C307.464 314.582 308.731 315.85 308.731 317.413C308.731 318.977 307.464 320.245 305.9 320.245H288.103C286.539 320.245 285.271 318.977 285.271 317.413Z" fill="#5D5D5D"/>
<path opacity="0.43" d="M366.975 317.413C366.975 315.85 368.242 314.582 369.806 314.582H387.603C389.167 314.582 390.434 315.85 390.434 317.413C390.434 318.977 389.167 320.245 387.603 320.245H369.806C368.242 320.245 366.975 318.977 366.975 317.413Z" fill="#5D5D5D"/>
<path opacity="0.43" d="M448.682 317.413C448.682 315.85 449.949 314.582 451.513 314.582H469.31C470.874 314.582 472.141 315.85 472.141 317.413C472.141 318.977 470.874 320.245 469.31 320.245H451.513C449.949 320.245 448.682 318.977 448.682 317.413Z" fill="#5D5D5D"/>
<path opacity="0.43" d="M530.385 317.413C530.385 315.85 531.652 314.582 533.216 314.582H551.013C552.577 314.582 553.845 315.85 553.845 317.413C553.845 318.977 552.577 320.245 551.013 320.245H533.216C531.652 320.245 530.385 318.977 530.385 317.413Z" fill="#5D5D5D"/>
<path opacity="0.43" d="M122.672 333.59C122.672 331.133 124.664 329.141 127.121 329.141H187.793C190.25 329.141 192.242 331.133 192.242 333.59C192.242 336.047 190.25 338.039 187.793 338.039H127.121C124.664 338.039 122.672 336.047 122.672 333.59Z" fill="#5D5D5D"/>
<path opacity="0.43" d="M211.656 333.59C211.656 331.133 213.648 329.141 216.106 329.141H248.464C250.921 329.141 252.913 331.133 252.913 333.59C252.913 336.047 250.921 338.039 248.464 338.039H216.106C213.648 338.039 211.656 336.047 211.656 333.59Z" fill="#5D5D5D"/>
<path opacity="0.43" d="M285.271 333.59C285.271 331.133 287.263 329.141 289.721 329.141H322.079C324.536 329.141 326.529 331.133 326.529 333.59C326.529 336.047 324.536 338.039 322.079 338.039H289.721C287.263 338.039 285.271 336.047 285.271 333.59Z" fill="#5D5D5D"/>
<path opacity="0.43" d="M366.975 333.59C366.975 331.133 368.967 329.141 371.424 329.141H403.782C406.239 329.141 408.231 331.133 408.231 333.59C408.231 336.047 406.239 338.039 403.782 338.039H371.424C368.967 338.039 366.975 336.047 366.975 333.59Z" fill="#5D5D5D"/>
<path opacity="0.43" d="M448.682 333.59C448.682 331.133 450.674 329.141 453.131 329.141H485.489C487.946 329.141 489.938 331.133 489.938 333.59C489.938 336.047 487.946 338.039 485.489 338.039H453.131C450.674 338.039 448.682 336.047 448.682 333.59Z" fill="#5D5D5D"/>
<path opacity="0.43" d="M530.385 333.59C530.385 331.133 532.377 329.141 534.834 329.141H567.192C569.65 329.141 571.642 331.133 571.642 333.59C571.642 336.047 569.65 338.039 567.192 338.039H534.834C532.377 338.039 530.385 336.047 530.385 333.59Z" fill="#5D5D5D"/>
<path opacity="0.43" d="M110.536 326.31C110.536 335.469 103.112 342.894 93.9528 342.894C84.7939 342.894 77.3691 335.469 77.3691 326.31C77.3691 317.151 84.7939 309.727 93.9528 309.727C103.112 309.727 110.536 317.151 110.536 326.31Z" fill="#5D5D5D"/>
<path d="M64.4258 376.66C64.4258 372.192 68.0476 368.57 72.5154 368.57H593.484C597.952 368.57 601.574 372.192 601.574 376.66V419.535C601.574 424.002 597.952 427.624 593.484 427.624H72.5154C68.0476 427.624 64.4258 424.002 64.4258 419.535V376.66Z" fill="#333333"/>
<path opacity="0.43" d="M122.672 389.199C122.672 387.635 123.94 386.367 125.503 386.367H154.626C156.189 386.367 157.457 387.635 157.457 389.199C157.457 390.762 156.189 392.03 154.626 392.03H125.503C123.94 392.03 122.672 390.762 122.672 389.199Z" fill="#5D5D5D"/>
<path opacity="0.43" d="M211.656 389.199C211.656 387.635 212.924 386.367 214.488 386.367H232.285C233.848 386.367 235.116 387.635 235.116 389.199C235.116 390.762 233.848 392.03 232.285 392.03H214.488C212.924 392.03 211.656 390.762 211.656 389.199Z" fill="#5D5D5D"/>
<path opacity="0.43" d="M285.271 389.199C285.271 387.635 286.539 386.367 288.103 386.367H305.9C307.464 386.367 308.731 387.635 308.731 389.199C308.731 390.762 307.464 392.03 305.9 392.03H288.103C286.539 392.03 285.271 390.762 285.271 389.199Z" fill="#5D5D5D"/>
<path opacity="0.43" d="M366.975 389.199C366.975 387.635 368.242 386.367 369.806 386.367H387.603C389.167 386.367 390.434 387.635 390.434 389.199C390.434 390.762 389.167 392.03 387.603 392.03H369.806C368.242 392.03 366.975 390.762 366.975 389.199Z" fill="#5D5D5D"/>
<path opacity="0.43" d="M448.682 389.199C448.682 387.635 449.949 386.367 451.513 386.367H469.31C470.874 386.367 472.141 387.635 472.141 389.199C472.141 390.762 470.874 392.03 469.31 392.03H451.513C449.949 392.03 448.682 390.762 448.682 389.199Z" fill="#5D5D5D"/>
<path opacity="0.43" d="M530.385 389.199C530.385 387.635 531.652 386.367 533.216 386.367H551.013C552.577 386.367 553.845 387.635 553.845 389.199C553.845 390.762 552.577 392.03 551.013 392.03H533.216C531.652 392.03 530.385 390.762 530.385 389.199Z" fill="#5D5D5D"/>
<path opacity="0.43" d="M122.672 405.375C122.672 402.918 124.664 400.926 127.121 400.926H187.793C190.25 400.926 192.242 402.918 192.242 405.375C192.242 407.832 190.25 409.824 187.793 409.824H127.121C124.664 409.824 122.672 407.832 122.672 405.375Z" fill="#5D5D5D"/>
<path opacity="0.43" d="M211.656 405.375C211.656 402.918 213.648 400.926 216.106 400.926H248.464C250.921 400.926 252.913 402.918 252.913 405.375C252.913 407.832 250.921 409.824 248.464 409.824H216.106C213.648 409.824 211.656 407.832 211.656 405.375Z" fill="#5D5D5D"/>
<path opacity="0.43" d="M285.271 405.375C285.271 402.918 287.263 400.926 289.721 400.926H322.079C324.536 400.926 326.529 402.918 326.529 405.375C326.529 407.832 324.536 409.824 322.079 409.824H289.721C287.263 409.824 285.271 407.832 285.271 405.375Z" fill="#5D5D5D"/>
<path opacity="0.43" d="M366.975 405.375C366.975 402.918 368.967 400.926 371.424 400.926H403.782C406.239 400.926 408.231 402.918 408.231 405.375C408.231 407.832 406.239 409.824 403.782 409.824H371.424C368.967 409.824 366.975 407.832 366.975 405.375Z" fill="#5D5D5D"/>
<path opacity="0.43" d="M448.682 405.375C448.682 402.918 450.674 400.926 453.131 400.926H485.489C487.946 400.926 489.938 402.918 489.938 405.375C489.938 407.832 487.946 409.824 485.489 409.824H453.131C450.674 409.824 448.682 407.832 448.682 405.375Z" fill="#5D5D5D"/>
<path opacity="0.43" d="M530.385 405.375C530.385 402.918 532.377 400.926 534.834 400.926H567.192C569.65 400.926 571.642 402.918 571.642 405.375C571.642 407.832 569.65 409.824 567.192 409.824H534.834C532.377 409.824 530.385 407.832 530.385 405.375Z" fill="#5D5D5D"/>
<path opacity="0.43" d="M110.536 398.095C110.536 407.254 103.112 414.679 93.9528 414.679C84.7939 414.679 77.3691 407.254 77.3691 398.095C77.3691 388.936 84.7939 381.512 93.9528 381.512C103.112 381.512 110.536 388.936 110.536 398.095Z" fill="#5D5D5D"/>
<path d="M659 185H7C3.13401 185 0 188.134 0 192V253C0 256.866 3.13401 260 7 260H659C662.866 260 666 256.866 666 253V192C666 188.134 662.866 185 659 185Z" fill="white"/>
<g filter="url(#filter0_f_188_663)">
<path d="M36.299 247.311C40.9967 247.311 42.1561 239.825 42.1561 235.136C42.1561 230.447 53.3541 227.603 46.8616 224.59C43.8485 223.191 41.5153 223.565 38.3556 224.59C30.8497 227.025 27.793 234.133 27.793 238.821C27.793 243.51 31.6012 247.311 36.299 247.311Z" fill="#FF90EA"/>
</g>
<g filter="url(#filter1_f_188_663)">
<path d="M55.8781 254.088C64.8102 254.088 72.0511 246.847 72.0511 237.915C72.0511 228.983 64.8102 221.742 55.8781 221.742C46.946 221.742 39.7051 228.983 39.7051 237.915C39.7051 246.847 46.946 254.088 55.8781 254.088Z" fill="url(#paint0_linear_188_663)"/>
</g>
<g filter="url(#filter2_f_188_663)">
<path d="M47.0424 239.741C49.2232 239.741 50.991 237.973 50.991 235.792C50.991 233.612 49.2232 231.844 47.0424 231.844C44.8616 231.844 43.0938 233.612 43.0938 235.792C43.0938 237.973 44.8616 239.741 47.0424 239.741Z" fill="#0094FF"/>
</g>
<path d="M75.9601 227.625V236.001H74.2801V230.553L72.0361 236.001H70.7641L68.5081 230.553V236.001H66.8281V227.625H68.7361L71.4001 233.853L74.0641 227.625H75.9601ZM80.5731 236.109C79.9331 236.109 79.3571 235.969 78.8451 235.689C78.3331 235.401 77.9291 234.997 77.6331 234.477C77.3451 233.957 77.2011 233.357 77.2011 232.677C77.2011 231.997 77.3491 231.397 77.6451 230.877C77.9491 230.357 78.3611 229.957 78.8811 229.677C79.4011 229.389 79.9811 229.245 80.6211 229.245C81.2611 229.245 81.8411 229.389 82.3611 229.677C82.8811 229.957 83.2891 230.357 83.5851 230.877C83.8891 231.397 84.0411 231.997 84.0411 232.677C84.0411 233.357 83.8851 233.957 83.5731 234.477C83.2691 234.997 82.8531 235.401 82.3251 235.689C81.8051 235.969 81.2211 236.109 80.5731 236.109ZM80.5731 234.645C80.8771 234.645 81.1611 234.573 81.4251 234.429C81.6971 234.277 81.9131 234.053 82.0731 233.757C82.2331 233.461 82.3131 233.101 82.3131 232.677C82.3131 232.045 82.1451 231.561 81.8091 231.225C81.4811 230.881 81.0771 230.709 80.5971 230.709C80.1171 230.709 79.7131 230.881 79.3851 231.225C79.0651 231.561 78.9051 232.045 78.9051 232.677C78.9051 233.309 79.0611 233.797 79.3731 234.141C79.6931 234.477 80.0931 234.645 80.5731 234.645ZM88.2254 236.109C87.5854 236.109 87.0094 235.969 86.4974 235.689C85.9854 235.401 85.5814 234.997 85.2854 234.477C84.9974 233.957 84.8534 233.357 84.8534 232.677C84.8534 231.997 85.0014 231.397 85.2974 230.877C85.6014 230.357 86.0134 229.957 86.5334 229.677C87.0534 229.389 87.6334 229.245 88.2734 229.245C88.9134 229.245 89.4934 229.389 90.0134 229.677C90.5334 229.957 90.9414 230.357 91.2374 230.877C91.5414 231.397 91.6934 231.997 91.6934 232.677C91.6934 233.357 91.5374 233.957 91.2254 234.477C90.9214 234.997 90.5054 235.401 89.9774 235.689C89.4574 235.969 88.8734 236.109 88.2254 236.109ZM88.2254 234.645C88.5294 234.645 88.8134 234.573 89.0774 234.429C89.3494 234.277 89.5654 234.053 89.7254 233.757C89.8854 233.461 89.9654 233.101 89.9654 232.677C89.9654 232.045 89.7974 231.561 89.4614 231.225C89.1334 230.881 88.7294 230.709 88.2494 230.709C87.7694 230.709 87.3654 230.881 87.0374 231.225C86.7174 231.561 86.5574 232.045 86.5574 232.677C86.5574 233.309 86.7134 233.797 87.0254 234.141C87.3454 234.477 87.7454 234.645 88.2254 234.645ZM96.6098 229.257C97.4018 229.257 98.0418 229.509 98.5298 230.013C99.0178 230.509 99.2618 231.205 99.2618 232.101V236.001H97.5818V232.329C97.5818 231.801 97.4498 231.397 97.1858 231.117C96.9218 230.829 96.5618 230.685 96.1058 230.685C95.6418 230.685 95.2738 230.829 95.0018 231.117C94.7378 231.397 94.6058 231.801 94.6058 232.329V236.001H92.9258V229.353H94.6058V230.181C94.8298 229.893 95.1138 229.669 95.4578 229.509C95.8098 229.341 96.1938 229.257 96.6098 229.257ZM103.403 236.109C102.859 236.109 102.371 236.013 101.939 235.821C101.507 235.621 101.163 235.353 100.907 235.017C100.659 234.681 100.523 234.309 100.499 233.901H102.191C102.223 234.157 102.347 234.369 102.563 234.537C102.787 234.705 103.063 234.789 103.391 234.789C103.711 234.789 103.959 234.725 104.135 234.597C104.319 234.469 104.411 234.305 104.411 234.105C104.411 233.889 104.299 233.729 104.075 233.625C103.859 233.513 103.511 233.393 103.031 233.265C102.535 233.145 102.127 233.021 101.807 232.893C101.495 232.765 101.223 232.569 100.991 232.305C100.767 232.041 100.655 231.685 100.655 231.237C100.655 230.869 100.759 230.533 100.967 230.229C101.183 229.925 101.487 229.685 101.879 229.509C102.279 229.333 102.747 229.245 103.283 229.245C104.075 229.245 104.707 229.445 105.179 229.845C105.651 230.237 105.911 230.769 105.959 231.441H104.351C104.327 231.177 104.215 230.969 104.015 230.817C103.823 230.657 103.563 230.577 103.235 230.577C102.931 230.577 102.695 230.633 102.527 230.745C102.367 230.857 102.287 231.013 102.287 231.213C102.287 231.437 102.399 231.609 102.623 231.729C102.847 231.841 103.195 231.957 103.667 232.077C104.147 232.197 104.543 232.321 104.855 232.449C105.167 232.577 105.435 232.777 105.659 233.049C105.891 233.313 106.011 233.665 106.019 234.105C106.019 234.489 105.911 234.833 105.695 235.137C105.487 235.441 105.183 235.681 104.783 235.857C104.391 236.025 103.931 236.109 103.403 236.109ZM111.142 229.257C111.646 229.257 112.094 229.369 112.486 229.593C112.878 229.809 113.182 230.133 113.398 230.565C113.622 230.989 113.734 231.501 113.734 232.101V236.001H112.054V232.329C112.054 231.801 111.922 231.397 111.658 231.117C111.394 230.829 111.034 230.685 110.578 230.685C110.114 230.685 109.746 230.829 109.474 231.117C109.21 231.397 109.078 231.801 109.078 232.329V236.001H107.398V227.121H109.078V230.181C109.294 229.893 109.582 229.669 109.942 229.509C110.302 229.341 110.702 229.257 111.142 229.257ZM118.284 236.109C117.644 236.109 117.068 235.969 116.556 235.689C116.044 235.401 115.64 234.997 115.344 234.477C115.056 233.957 114.912 233.357 114.912 232.677C114.912 231.997 115.06 231.397 115.356 230.877C115.66 230.357 116.072 229.957 116.592 229.677C117.112 229.389 117.692 229.245 118.332 229.245C118.972 229.245 119.552 229.389 120.072 229.677C120.592 229.957 121 230.357 121.296 230.877C121.6 231.397 121.752 231.997 121.752 232.677C121.752 233.357 121.596 233.957 121.284 234.477C120.98 234.997 120.564 235.401 120.036 235.689C119.516 235.969 118.932 236.109 118.284 236.109ZM118.284 234.645C118.588 234.645 118.872 234.573 119.136 234.429C119.408 234.277 119.624 234.053 119.784 233.757C119.944 233.461 120.024 233.101 120.024 232.677C120.024 232.045 119.856 231.561 119.52 231.225C119.192 230.881 118.788 230.709 118.308 230.709C117.828 230.709 117.424 230.881 117.096 231.225C116.776 231.561 116.616 232.045 116.616 232.677C116.616 233.309 116.772 233.797 117.084 234.141C117.404 234.477 117.804 234.645 118.284 234.645ZM124.94 230.733V233.949C124.94 234.173 124.992 234.337 125.096 234.441C125.208 234.537 125.392 234.585 125.648 234.585H126.428V236.001H125.372C123.956 236.001 123.248 235.313 123.248 233.937V230.733H122.456V229.353H123.248V227.709H124.94V229.353H126.428V230.733H124.94ZM132.176 227.625V236.001H130.496V227.625H132.176ZM137.52 229.257C138.312 229.257 138.952 229.509 139.44 230.013C139.928 230.509 140.172 231.205 140.172 232.101V236.001H138.492V232.329C138.492 231.801 138.36 231.397 138.096 231.117C137.832 230.829 137.472 230.685 137.016 230.685C136.552 230.685 136.184 230.829 135.912 231.117C135.648 231.397 135.516 231.801 135.516 232.329V236.001H133.836V229.353H135.516V230.181C135.74 229.893 136.024 229.669 136.368 229.509C136.72 229.341 137.104 229.257 137.52 229.257ZM141.337 232.677C141.337 231.989 141.477 231.389 141.757 230.877C142.037 230.357 142.425 229.957 142.921 229.677C143.417 229.389 143.985 229.245 144.625 229.245C145.449 229.245 146.129 229.453 146.665 229.869C147.209 230.277 147.573 230.853 147.757 231.597H145.945C145.849 231.309 145.685 231.085 145.453 230.925C145.229 230.757 144.949 230.673 144.613 230.673C144.133 230.673 143.753 230.849 143.473 231.201C143.193 231.545 143.053 232.037 143.053 232.677C143.053 233.309 143.193 233.801 143.473 234.153C143.753 234.497 144.133 234.669 144.613 234.669C145.293 234.669 145.737 234.365 145.945 233.757H147.757C147.573 234.477 147.209 235.049 146.665 235.473C146.121 235.897 145.441 236.109 144.625 236.109C143.985 236.109 143.417 235.969 142.921 235.689C142.425 235.401 142.037 235.001 141.757 234.489C141.477 233.969 141.337 233.365 141.337 232.677ZM149.732 236.085C149.428 236.085 149.176 235.993 148.976 235.809C148.784 235.617 148.688 235.381 148.688 235.101C148.688 234.821 148.784 234.589 148.976 234.405C149.176 234.213 149.428 234.117 149.732 234.117C150.028 234.117 150.272 234.213 150.464 234.405C150.656 234.589 150.752 234.821 150.752 235.101C150.752 235.381 150.656 235.617 150.464 235.809C150.272 235.993 150.028 236.085 149.732 236.085Z" fill="black"/>
<path d="M68.9803 215.071C68.5203 215.071 68.107 214.991 67.7403 214.831C67.3803 214.664 67.097 214.438 66.8903 214.151C66.6836 213.858 66.577 213.521 66.5703 213.141H67.5403C67.5736 213.468 67.707 213.744 67.9403 213.971C68.1803 214.191 68.527 214.301 68.9803 214.301C69.4136 214.301 69.7536 214.194 70.0003 213.981C70.2536 213.761 70.3803 213.481 70.3803 213.141C70.3803 212.874 70.307 212.658 70.1603 212.491C70.0136 212.324 69.8303 212.198 69.6103 212.111C69.3903 212.024 69.0936 211.931 68.7203 211.831C68.2603 211.711 67.8903 211.591 67.6103 211.471C67.337 211.351 67.1003 211.164 66.9003 210.911C66.707 210.651 66.6103 210.304 66.6103 209.871C66.6103 209.491 66.707 209.154 66.9003 208.861C67.0936 208.568 67.3636 208.341 67.7103 208.181C68.0636 208.021 68.467 207.941 68.9203 207.941C69.5736 207.941 70.107 208.104 70.5203 208.431C70.9403 208.758 71.177 209.191 71.2303 209.731H70.2303C70.197 209.464 70.057 209.231 69.8103 209.031C69.5636 208.824 69.237 208.721 68.8303 208.721C68.4503 208.721 68.1403 208.821 67.9003 209.021C67.6603 209.214 67.5403 209.488 67.5403 209.841C67.5403 210.094 67.6103 210.301 67.7503 210.461C67.897 210.621 68.0736 210.744 68.2803 210.831C68.4936 210.911 68.7903 211.004 69.1703 211.111C69.6303 211.238 70.0003 211.364 70.2803 211.491C70.5603 211.611 70.8003 211.801 71.0003 212.061C71.2003 212.314 71.3003 212.661 71.3003 213.101C71.3003 213.441 71.2103 213.761 71.0303 214.061C70.8503 214.361 70.5836 214.604 70.2303 214.791C69.877 214.978 69.4603 215.071 68.9803 215.071ZM73.7494 210.271V213.501C73.7494 213.768 73.8061 213.958 73.9194 214.071C74.0328 214.178 74.2294 214.231 74.5094 214.231H75.1794V215.001H74.3594C73.8528 215.001 73.4728 214.884 73.2194 214.651C72.9661 214.418 72.8394 214.034 72.8394 213.501V210.271H72.1294V209.521H72.8394V208.141H73.7494V209.521H75.1794V210.271H73.7494ZM77.192 210.411C77.352 210.098 77.5787 209.854 77.872 209.681C78.172 209.508 78.5354 209.421 78.962 209.421V210.361H78.722C77.702 210.361 77.192 210.914 77.192 212.021V215.001H76.282V209.521H77.192V210.411ZM79.6725 212.241C79.6725 211.681 79.7858 211.191 80.0125 210.771C80.2392 210.344 80.5492 210.014 80.9425 209.781C81.3425 209.548 81.7858 209.431 82.2725 209.431C82.7525 209.431 83.1692 209.534 83.5225 209.741C83.8758 209.948 84.1392 210.208 84.3125 210.521V209.521H85.2325V215.001H84.3125V213.981C84.1325 214.301 83.8625 214.568 83.5025 214.781C83.1492 214.988 82.7358 215.091 82.2625 215.091C81.7758 215.091 81.3358 214.971 80.9425 214.731C80.5492 214.491 80.2392 214.154 80.0125 213.721C79.7858 213.288 79.6725 212.794 79.6725 212.241ZM84.3125 212.251C84.3125 211.838 84.2292 211.478 84.0625 211.171C83.8958 210.864 83.6692 210.631 83.3825 210.471C83.1025 210.304 82.7925 210.221 82.4525 210.221C82.1125 210.221 81.8025 210.301 81.5225 210.461C81.2425 210.621 81.0192 210.854 80.8525 211.161C80.6858 211.468 80.6025 211.828 80.6025 212.241C80.6025 212.661 80.6858 213.028 80.8525 213.341C81.0192 213.648 81.2425 213.884 81.5225 214.051C81.8025 214.211 82.1125 214.291 82.4525 214.291C82.7925 214.291 83.1025 214.211 83.3825 214.051C83.6692 213.884 83.8958 213.648 84.0625 213.341C84.2292 213.028 84.3125 212.664 84.3125 212.251ZM87.8803 210.271V213.501C87.8803 213.768 87.937 213.958 88.0503 214.071C88.1636 214.178 88.3603 214.231 88.6403 214.231H89.3103V215.001H88.4903C87.9836 215.001 87.6036 214.884 87.3503 214.651C87.097 214.418 86.9703 214.034 86.9703 213.501V210.271H86.2603V209.521H86.9703V208.141H87.8803V209.521H89.3103V210.271H87.8803ZM95.4129 212.051C95.4129 212.224 95.4029 212.408 95.3829 212.601H91.0029C91.0362 213.141 91.2195 213.564 91.5529 213.871C91.8929 214.171 92.3029 214.321 92.7829 214.321C93.1762 214.321 93.5029 214.231 93.7629 214.051C94.0295 213.864 94.2162 213.618 94.3229 213.311H95.3029C95.1562 213.838 94.8629 214.268 94.4229 214.601C93.9829 214.928 93.4362 215.091 92.7829 215.091C92.2629 215.091 91.7962 214.974 91.3829 214.741C90.9762 214.508 90.6562 214.178 90.4229 213.751C90.1895 213.318 90.0729 212.818 90.0729 212.251C90.0729 211.684 90.1862 211.188 90.4129 210.761C90.6395 210.334 90.9562 210.008 91.3629 209.781C91.7762 209.548 92.2495 209.431 92.7829 209.431C93.3029 209.431 93.7629 209.544 94.1629 209.771C94.5629 209.998 94.8695 210.311 95.0829 210.711C95.3029 211.104 95.4129 211.551 95.4129 212.051ZM94.4729 211.861C94.4729 211.514 94.3962 211.218 94.2429 210.971C94.0895 210.718 93.8795 210.528 93.6129 210.401C93.3529 210.268 93.0629 210.201 92.7429 210.201C92.2829 210.201 91.8895 210.348 91.5629 210.641C91.2429 210.934 91.0595 211.341 91.0129 211.861H94.4729ZM98.8741 209.431C99.3474 209.431 99.7607 209.534 100.114 209.741C100.474 209.948 100.74 210.208 100.914 210.521V209.521H101.834V215.121C101.834 215.621 101.727 216.064 101.514 216.451C101.3 216.844 100.994 217.151 100.594 217.371C100.2 217.591 99.7407 217.701 99.2141 217.701C98.4941 217.701 97.8941 217.531 97.4141 217.191C96.9341 216.851 96.6507 216.388 96.5641 215.801H97.4641C97.5641 216.134 97.7707 216.401 98.0841 216.601C98.3974 216.808 98.7741 216.911 99.2141 216.911C99.7141 216.911 100.12 216.754 100.434 216.441C100.754 216.128 100.914 215.688 100.914 215.121V213.971C100.734 214.291 100.467 214.558 100.114 214.771C99.7607 214.984 99.3474 215.091 98.8741 215.091C98.3874 215.091 97.9441 214.971 97.5441 214.731C97.1507 214.491 96.8407 214.154 96.6141 213.721C96.3874 213.288 96.2741 212.794 96.2741 212.241C96.2741 211.681 96.3874 211.191 96.6141 210.771C96.8407 210.344 97.1507 210.014 97.5441 209.781C97.9441 209.548 98.3874 209.431 98.8741 209.431ZM100.914 212.251C100.914 211.838 100.83 211.478 100.664 211.171C100.497 210.864 100.27 210.631 99.9841 210.471C99.7041 210.304 99.3941 210.221 99.0541 210.221C98.7141 210.221 98.4041 210.301 98.1241 210.461C97.8441 210.621 97.6207 210.854 97.4541 211.161C97.2874 211.468 97.2041 211.828 97.2041 212.241C97.2041 212.661 97.2874 213.028 97.4541 213.341C97.6207 213.648 97.8441 213.884 98.1241 214.051C98.4041 214.211 98.7141 214.291 99.0541 214.291C99.3941 214.291 99.7041 214.211 99.9841 214.051C100.27 213.884 100.497 213.648 100.664 213.341C100.83 213.028 100.914 212.664 100.914 212.251ZM108.092 209.521L104.792 217.581H103.852L104.932 214.941L102.722 209.521H103.732L105.452 213.961L107.152 209.521H108.092Z" fill="#8B8F93"/>
<path d="M187.89 213.451H184.85L184.29 215.001H183.33L185.85 208.071H186.9L189.41 215.001H188.45L187.89 213.451ZM187.63 212.711L186.37 209.191L185.11 212.711H187.63ZM191.398 208.031V212.441C191.398 213.061 191.548 213.521 191.848 213.821C192.155 214.121 192.578 214.271 193.118 214.271C193.652 214.271 194.068 214.121 194.368 213.821C194.675 213.521 194.828 213.061 194.828 212.441V208.031H195.738V212.431C195.738 213.011 195.622 213.501 195.388 213.901C195.155 214.294 194.838 214.588 194.438 214.781C194.045 214.974 193.602 215.071 193.108 215.071C192.615 215.071 192.168 214.974 191.768 214.781C191.375 214.588 191.062 214.294 190.828 213.901C190.602 213.501 190.488 213.011 190.488 212.431V208.031H191.398ZM204.326 208.081V215.001H203.416V209.841L201.116 215.001H200.476L198.166 209.831V215.001H197.256V208.081H198.236L200.796 213.801L203.356 208.081H204.326Z" fill="#8B8F93"/>
<path d="M278.89 213.45H275.85L275.29 215H274.33L276.85 208.07H277.9L280.41 215H279.45L278.89 213.45ZM278.63 212.71L277.37 209.19L276.11 212.71H278.63ZM283.448 215.09C283.028 215.09 282.652 215.02 282.318 214.88C281.985 214.733 281.722 214.533 281.528 214.28C281.335 214.02 281.228 213.723 281.208 213.39H282.148C282.175 213.663 282.302 213.887 282.528 214.06C282.762 214.233 283.065 214.32 283.438 214.32C283.785 214.32 284.058 214.243 284.258 214.09C284.458 213.937 284.558 213.743 284.558 213.51C284.558 213.27 284.452 213.093 284.238 212.98C284.025 212.86 283.695 212.743 283.248 212.63C282.842 212.523 282.508 212.417 282.248 212.31C281.995 212.197 281.775 212.033 281.588 211.82C281.408 211.6 281.318 211.313 281.318 210.96C281.318 210.68 281.402 210.423 281.568 210.19C281.735 209.957 281.972 209.773 282.278 209.64C282.585 209.5 282.935 209.43 283.328 209.43C283.935 209.43 284.425 209.583 284.798 209.89C285.172 210.197 285.372 210.617 285.398 211.15H284.488C284.468 210.863 284.352 210.633 284.138 210.46C283.932 210.287 283.652 210.2 283.298 210.2C282.972 210.2 282.712 210.27 282.518 210.41C282.325 210.55 282.228 210.733 282.228 210.96C282.228 211.14 282.285 211.29 282.398 211.41C282.518 211.523 282.665 211.617 282.838 211.69C283.018 211.757 283.265 211.833 283.578 211.92C283.972 212.027 284.292 212.133 284.538 212.24C284.785 212.34 284.995 212.493 285.168 212.7C285.348 212.907 285.442 213.177 285.448 213.51C285.448 213.81 285.365 214.08 285.198 214.32C285.032 214.56 284.795 214.75 284.488 214.89C284.188 215.023 283.842 215.09 283.448 215.09ZM288.673 215.09C288.253 215.09 287.876 215.02 287.543 214.88C287.21 214.733 286.946 214.533 286.753 214.28C286.56 214.02 286.453 213.723 286.433 213.39H287.373C287.4 213.663 287.526 213.887 287.753 214.06C287.986 214.233 288.29 214.32 288.663 214.32C289.01 214.32 289.283 214.243 289.483 214.09C289.683 213.937 289.783 213.743 289.783 213.51C289.783 213.27 289.676 213.093 289.463 212.98C289.25 212.86 288.92 212.743 288.473 212.63C288.066 212.523 287.733 212.417 287.473 212.31C287.22 212.197 287 212.033 286.813 211.82C286.633 211.6 286.543 211.313 286.543 210.96C286.543 210.68 286.626 210.423 286.793 210.19C286.96 209.957 287.196 209.773 287.503 209.64C287.81 209.5 288.16 209.43 288.553 209.43C289.16 209.43 289.65 209.583 290.023 209.89C290.396 210.197 290.596 210.617 290.623 211.15H289.713C289.693 210.863 289.576 210.633 289.363 210.46C289.156 210.287 288.876 210.2 288.523 210.2C288.196 210.2 287.936 210.27 287.743 210.41C287.55 210.55 287.453 210.733 287.453 210.96C287.453 211.14 287.51 211.29 287.623 211.41C287.743 211.523 287.89 211.617 288.063 211.69C288.243 211.757 288.49 211.833 288.803 211.92C289.196 212.027 289.516 212.133 289.763 212.24C290.01 212.34 290.22 212.493 290.393 212.7C290.573 212.907 290.666 213.177 290.673 213.51C290.673 213.81 290.59 214.08 290.423 214.32C290.256 214.56 290.02 214.75 289.713 214.89C289.413 215.023 289.066 215.09 288.673 215.09ZM296.958 212.05C296.958 212.223 296.948 212.407 296.928 212.6H292.548C292.581 213.14 292.764 213.563 293.098 213.87C293.438 214.17 293.848 214.32 294.328 214.32C294.721 214.32 295.048 214.23 295.308 214.05C295.574 213.863 295.761 213.617 295.868 213.31H296.848C296.701 213.837 296.408 214.267 295.968 214.6C295.528 214.927 294.981 215.09 294.328 215.09C293.808 215.09 293.341 214.973 292.928 214.74C292.521 214.507 292.201 214.177 291.968 213.75C291.734 213.317 291.618 212.817 291.618 212.25C291.618 211.683 291.731 211.187 291.958 210.76C292.184 210.333 292.501 210.007 292.908 209.78C293.321 209.547 293.794 209.43 294.328 209.43C294.848 209.43 295.308 209.543 295.708 209.77C296.108 209.997 296.414 210.31 296.628 210.71C296.848 211.103 296.958 211.55 296.958 212.05ZM296.018 211.86C296.018 211.513 295.941 211.217 295.788 210.97C295.634 210.717 295.424 210.527 295.158 210.4C294.898 210.267 294.608 210.2 294.288 210.2C293.828 210.2 293.434 210.347 293.108 210.64C292.788 210.933 292.604 211.34 292.558 211.86H296.018ZM299.269 210.27V213.5C299.269 213.767 299.325 213.957 299.439 214.07C299.552 214.177 299.749 214.23 300.029 214.23H300.699V215H299.879C299.372 215 298.992 214.883 298.739 214.65C298.485 214.417 298.359 214.033 298.359 213.5V210.27H297.649V209.52H298.359V208.14H299.269V209.52H300.699V210.27H299.269ZM303.741 215.09C303.321 215.09 302.945 215.02 302.611 214.88C302.278 214.733 302.015 214.533 301.821 214.28C301.628 214.02 301.521 213.723 301.501 213.39H302.441C302.468 213.663 302.595 213.887 302.821 214.06C303.055 214.233 303.358 214.32 303.731 214.32C304.078 214.32 304.351 214.243 304.551 214.09C304.751 213.937 304.851 213.743 304.851 213.51C304.851 213.27 304.745 213.093 304.531 212.98C304.318 212.86 303.988 212.743 303.541 212.63C303.135 212.523 302.801 212.417 302.541 212.31C302.288 212.197 302.068 212.033 301.881 211.82C301.701 211.6 301.611 211.313 301.611 210.96C301.611 210.68 301.695 210.423 301.861 210.19C302.028 209.957 302.265 209.773 302.571 209.64C302.878 209.5 303.228 209.43 303.621 209.43C304.228 209.43 304.718 209.583 305.091 209.89C305.465 210.197 305.665 210.617 305.691 211.15H304.781C304.761 210.863 304.645 210.633 304.431 210.46C304.225 210.287 303.945 210.2 303.591 210.2C303.265 210.2 303.005 210.27 302.811 210.41C302.618 210.55 302.521 210.733 302.521 210.96C302.521 211.14 302.578 211.29 302.691 211.41C302.811 211.523 302.958 211.617 303.131 211.69C303.311 211.757 303.558 211.833 303.871 211.92C304.265 212.027 304.585 212.133 304.831 212.24C305.078 212.34 305.288 212.493 305.461 212.7C305.641 212.907 305.735 213.177 305.741 213.51C305.741 213.81 305.658 214.08 305.491 214.32C305.325 214.56 305.088 214.75 304.781 214.89C304.481 215.023 304.135 215.09 303.741 215.09Z" fill="#8B8F93"/>
<path d="M379.89 213.45H376.85L376.29 215H375.33L377.85 208.07H378.9L381.41 215H380.45L379.89 213.45ZM379.63 212.71L378.37 209.19L377.11 212.71H379.63ZM382.168 212.25C382.168 211.683 382.282 211.19 382.508 210.77C382.735 210.343 383.048 210.013 383.448 209.78C383.855 209.547 384.318 209.43 384.838 209.43C385.512 209.43 386.065 209.593 386.498 209.92C386.938 210.247 387.228 210.7 387.368 211.28H386.388C386.295 210.947 386.112 210.683 385.838 210.49C385.572 210.297 385.238 210.2 384.838 210.2C384.318 210.2 383.898 210.38 383.578 210.74C383.258 211.093 383.098 211.597 383.098 212.25C383.098 212.91 383.258 213.42 383.578 213.78C383.898 214.14 384.318 214.32 384.838 214.32C385.238 214.32 385.572 214.227 385.838 214.04C386.105 213.853 386.288 213.587 386.388 213.24H387.368C387.222 213.8 386.928 214.25 386.488 214.59C386.048 214.923 385.498 215.09 384.838 215.09C384.318 215.09 383.855 214.973 383.448 214.74C383.048 214.507 382.735 214.177 382.508 213.75C382.282 213.323 382.168 212.823 382.168 212.25ZM388.243 212.25C388.243 211.683 388.356 211.19 388.583 210.77C388.809 210.343 389.123 210.013 389.523 209.78C389.929 209.547 390.393 209.43 390.913 209.43C391.586 209.43 392.139 209.593 392.573 209.92C393.013 210.247 393.303 210.7 393.443 211.28H392.463C392.369 210.947 392.186 210.683 391.913 210.49C391.646 210.297 391.313 210.2 390.913 210.2C390.393 210.2 389.973 210.38 389.653 210.74C389.333 211.093 389.173 211.597 389.173 212.25C389.173 212.91 389.333 213.42 389.653 213.78C389.973 214.14 390.393 214.32 390.913 214.32C391.313 214.32 391.646 214.227 391.913 214.04C392.179 213.853 392.363 213.587 392.463 213.24H393.443C393.296 213.8 393.003 214.25 392.563 214.59C392.123 214.923 391.573 215.09 390.913 215.09C390.393 215.09 389.929 214.973 389.523 214.74C389.123 214.507 388.809 214.177 388.583 213.75C388.356 213.323 388.243 212.823 388.243 212.25ZM399.657 212.05C399.657 212.223 399.647 212.407 399.627 212.6H395.247C395.28 213.14 395.463 213.563 395.797 213.87C396.137 214.17 396.547 214.32 397.027 214.32C397.42 214.32 397.747 214.23 398.007 214.05C398.273 213.863 398.46 213.617 398.567 213.31H399.547C399.4 213.837 399.107 214.267 398.667 214.6C398.227 214.927 397.68 215.09 397.027 215.09C396.507 215.09 396.04 214.973 395.627 214.74C395.22 214.507 394.9 214.177 394.667 213.75C394.433 213.317 394.317 212.817 394.317 212.25C394.317 211.683 394.43 211.187 394.657 210.76C394.883 210.333 395.2 210.007 395.607 209.78C396.02 209.547 396.493 209.43 397.027 209.43C397.547 209.43 398.007 209.543 398.407 209.77C398.807 209.997 399.113 210.31 399.327 210.71C399.547 211.103 399.657 211.55 399.657 212.05ZM398.717 211.86C398.717 211.513 398.64 211.217 398.487 210.97C398.333 210.717 398.123 210.527 397.857 210.4C397.597 210.267 397.307 210.2 396.987 210.2C396.527 210.2 396.133 210.347 395.807 210.64C395.487 210.933 395.303 211.34 395.257 211.86H398.717ZM401.768 210.53C401.948 210.217 402.215 209.957 402.568 209.75C402.928 209.537 403.345 209.43 403.818 209.43C404.305 209.43 404.745 209.547 405.138 209.78C405.538 210.013 405.851 210.343 406.078 210.77C406.305 211.19 406.418 211.68 406.418 212.24C406.418 212.793 406.305 213.287 406.078 213.72C405.851 214.153 405.538 214.49 405.138 214.73C404.745 214.97 404.305 215.09 403.818 215.09C403.351 215.09 402.938 214.987 402.578 214.78C402.225 214.567 401.955 214.303 401.768 213.99V217.6H400.858V209.52H401.768V210.53ZM405.488 212.24C405.488 211.827 405.405 211.467 405.238 211.16C405.071 210.853 404.845 210.62 404.558 210.46C404.278 210.3 403.968 210.22 403.628 210.22C403.295 210.22 402.985 210.303 402.698 210.47C402.418 210.63 402.191 210.867 402.018 211.18C401.851 211.487 401.768 211.843 401.768 212.25C401.768 212.663 401.851 213.027 402.018 213.34C402.191 213.647 402.418 213.883 402.698 214.05C402.985 214.21 403.295 214.29 403.628 214.29C403.968 214.29 404.278 214.21 404.558 214.05C404.845 213.883 405.071 213.647 405.238 213.34C405.405 213.027 405.488 212.66 405.488 212.24ZM408.726 210.27V213.5C408.726 213.767 408.782 213.957 408.896 214.07C409.009 214.177 409.206 214.23 409.486 214.23H410.156V215H409.336C408.829 215 408.449 214.883 408.196 214.65C407.942 214.417 407.816 214.033 407.816 213.5V210.27H407.106V209.52H407.816V208.14H408.726V209.52H410.156V210.27H408.726ZM413.198 215.09C412.778 215.09 412.402 215.02 412.068 214.88C411.735 214.733 411.472 214.533 411.278 214.28C411.085 214.02 410.978 213.723 410.958 213.39H411.898C411.925 213.663 412.052 213.887 412.278 214.06C412.512 214.233 412.815 214.32 413.188 214.32C413.535 214.32 413.808 214.243 414.008 214.09C414.208 213.937 414.308 213.743 414.308 213.51C414.308 213.27 414.202 213.093 413.988 212.98C413.775 212.86 413.445 212.743 412.998 212.63C412.592 212.523 412.258 212.417 411.998 212.31C411.745 212.197 411.525 212.033 411.338 211.82C411.158 211.6 411.068 211.313 411.068 210.96C411.068 210.68 411.152 210.423 411.318 210.19C411.485 209.957 411.722 209.773 412.028 209.64C412.335 209.5 412.685 209.43 413.078 209.43C413.685 209.43 414.175 209.583 414.548 209.89C414.922 210.197 415.122 210.617 415.148 211.15H414.238C414.218 210.863 414.102 210.633 413.888 210.46C413.682 210.287 413.402 210.2 413.048 210.2C412.722 210.2 412.462 210.27 412.268 210.41C412.075 210.55 411.978 210.733 411.978 210.96C411.978 211.14 412.035 211.29 412.148 211.41C412.268 211.523 412.415 211.617 412.588 211.69C412.768 211.757 413.015 211.833 413.328 211.92C413.722 212.027 414.042 212.133 414.288 212.24C414.535 212.34 414.745 212.493 414.918 212.7C415.098 212.907 415.192 213.177 415.198 213.51C415.198 213.81 415.115 214.08 414.948 214.32C414.782 214.56 414.545 214.75 414.238 214.89C413.938 215.023 413.592 215.09 413.198 215.09Z" fill="#8B8F93"/>
<path d="M488.89 213.451H485.85L485.29 215.001H484.33L486.85 208.071H487.9L490.41 215.001H489.45L488.89 213.451ZM488.63 212.711L487.37 209.191L486.11 212.711H488.63ZM496.168 210.071C496.168 210.651 495.968 211.134 495.568 211.521C495.175 211.901 494.572 212.091 493.758 212.091H492.418V215.001H491.508V208.031H493.758C494.545 208.031 495.142 208.221 495.548 208.601C495.962 208.981 496.168 209.471 496.168 210.071ZM493.758 211.341C494.265 211.341 494.638 211.231 494.878 211.011C495.118 210.791 495.238 210.478 495.238 210.071C495.238 209.211 494.745 208.781 493.758 208.781H492.418V211.341H493.758ZM502.179 208.031L499.909 212.371V215.001H498.999V212.371L496.719 208.031H497.729L499.449 211.561L501.169 208.031H502.179Z" fill="#8B8F93"/>
<path d="M573.98 215.071C573.52 215.071 573.107 214.991 572.74 214.831C572.38 214.664 572.097 214.438 571.89 214.151C571.683 213.858 571.577 213.521 571.57 213.141H572.54C572.573 213.468 572.707 213.744 572.94 213.971C573.18 214.191 573.527 214.301 573.98 214.301C574.413 214.301 574.753 214.194 575 213.981C575.253 213.761 575.38 213.481 575.38 213.141C575.38 212.874 575.307 212.658 575.16 212.491C575.013 212.324 574.83 212.198 574.61 212.111C574.39 212.024 574.093 211.931 573.72 211.831C573.26 211.711 572.89 211.591 572.61 211.471C572.337 211.351 572.1 211.164 571.9 210.911C571.707 210.651 571.61 210.304 571.61 209.871C571.61 209.491 571.707 209.154 571.9 208.861C572.093 208.568 572.363 208.341 572.71 208.181C573.063 208.021 573.467 207.941 573.92 207.941C574.573 207.941 575.107 208.104 575.52 208.431C575.94 208.758 576.177 209.191 576.23 209.731H575.23C575.197 209.464 575.057 209.231 574.81 209.031C574.563 208.824 574.237 208.721 573.83 208.721C573.45 208.721 573.14 208.821 572.9 209.021C572.66 209.214 572.54 209.488 572.54 209.841C572.54 210.094 572.61 210.301 572.75 210.461C572.897 210.621 573.073 210.744 573.28 210.831C573.493 210.911 573.79 211.004 574.17 211.111C574.63 211.238 575 211.364 575.28 211.491C575.56 211.611 575.8 211.801 576 212.061C576.2 212.314 576.3 212.661 576.3 213.101C576.3 213.441 576.21 213.761 576.03 214.061C575.85 214.361 575.583 214.604 575.23 214.791C574.877 214.978 574.46 215.071 573.98 215.071ZM578.109 208.631C577.936 208.631 577.789 208.571 577.669 208.451C577.549 208.331 577.489 208.184 577.489 208.011C577.489 207.838 577.549 207.691 577.669 207.571C577.789 207.451 577.936 207.391 578.109 207.391C578.276 207.391 578.416 207.451 578.529 207.571C578.649 207.691 578.709 207.838 578.709 208.011C578.709 208.184 578.649 208.331 578.529 208.451C578.416 208.571 578.276 208.631 578.109 208.631ZM578.549 209.521V215.001H577.639V209.521H578.549ZM582.77 209.421C583.437 209.421 583.977 209.624 584.39 210.031C584.803 210.431 585.01 211.011 585.01 211.771V215.001H584.11V211.901C584.11 211.354 583.973 210.938 583.7 210.651C583.427 210.358 583.053 210.211 582.58 210.211C582.1 210.211 581.717 210.361 581.43 210.661C581.15 210.961 581.01 211.398 581.01 211.971V215.001H580.1V209.521H581.01V210.301C581.19 210.021 581.433 209.804 581.74 209.651C582.053 209.498 582.397 209.421 582.77 209.421ZM586.157 212.251C586.157 211.684 586.27 211.191 586.497 210.771C586.723 210.344 587.037 210.014 587.437 209.781C587.843 209.548 588.307 209.431 588.827 209.431C589.5 209.431 590.053 209.594 590.487 209.921C590.927 210.248 591.217 210.701 591.357 211.281H590.377C590.283 210.948 590.1 210.684 589.827 210.491C589.56 210.298 589.227 210.201 588.827 210.201C588.307 210.201 587.887 210.381 587.567 210.741C587.247 211.094 587.087 211.598 587.087 212.251C587.087 212.911 587.247 213.421 587.567 213.781C587.887 214.141 588.307 214.321 588.827 214.321C589.227 214.321 589.56 214.228 589.827 214.041C590.093 213.854 590.277 213.588 590.377 213.241H591.357C591.21 213.801 590.917 214.251 590.477 214.591C590.037 214.924 589.487 215.091 588.827 215.091C588.307 215.091 587.843 214.974 587.437 214.741C587.037 214.508 586.723 214.178 586.497 213.751C586.27 213.324 586.157 212.824 586.157 212.251ZM597.571 212.051C597.571 212.224 597.561 212.408 597.541 212.601H593.161C593.194 213.141 593.377 213.564 593.711 213.871C594.051 214.171 594.461 214.321 594.941 214.321C595.334 214.321 595.661 214.231 595.921 214.051C596.187 213.864 596.374 213.618 596.481 213.311H597.461C597.314 213.838 597.021 214.268 596.581 214.601C596.141 214.928 595.594 215.091 594.941 215.091C594.421 215.091 593.954 214.974 593.541 214.741C593.134 214.508 592.814 214.178 592.581 213.751C592.347 213.318 592.231 212.818 592.231 212.251C592.231 211.684 592.344 211.188 592.571 210.761C592.797 210.334 593.114 210.008 593.521 209.781C593.934 209.548 594.407 209.431 594.941 209.431C595.461 209.431 595.921 209.544 596.321 209.771C596.721 209.998 597.027 210.311 597.241 210.711C597.461 211.104 597.571 211.551 597.571 212.051ZM596.631 211.861C596.631 211.514 596.554 211.218 596.401 210.971C596.247 210.718 596.037 210.528 595.771 210.401C595.511 210.268 595.221 210.201 594.901 210.201C594.441 210.201 594.047 210.348 593.721 210.641C593.401 210.934 593.217 211.341 593.171 211.861H596.631ZM602.348 208.031V215.001H601.438V208.031H602.348ZM606.569 209.421C607.236 209.421 607.776 209.624 608.189 210.031C608.602 210.431 608.809 211.011 608.809 211.771V215.001H607.909V211.901C607.909 211.354 607.772 210.938 607.499 210.651C607.226 210.358 606.852 210.211 606.379 210.211C605.899 210.211 605.516 210.361 605.229 210.661C604.949 210.961 604.809 211.398 604.809 211.971V215.001H603.899V209.521H604.809V210.301C604.989 210.021 605.232 209.804 605.539 209.651C605.852 209.498 606.196 209.421 606.569 209.421ZM609.955 212.251C609.955 211.684 610.069 211.191 610.295 210.771C610.522 210.344 610.835 210.014 611.235 209.781C611.642 209.548 612.105 209.431 612.625 209.431C613.299 209.431 613.852 209.594 614.285 209.921C614.725 210.248 615.015 210.701 615.155 211.281H614.175C614.082 210.948 613.899 210.684 613.625 210.491C613.359 210.298 613.025 210.201 612.625 210.201C612.105 210.201 611.685 210.381 611.365 210.741C611.045 211.094 610.885 211.598 610.885 212.251C610.885 212.911 611.045 213.421 611.365 213.781C611.685 214.141 612.105 214.321 612.625 214.321C613.025 214.321 613.359 214.228 613.625 214.041C613.892 213.854 614.075 213.588 614.175 213.241H615.155C615.009 213.801 614.715 214.251 614.275 214.591C613.835 214.924 613.285 215.091 612.625 215.091C612.105 215.091 611.642 214.974 611.235 214.741C610.835 214.508 610.522 214.178 610.295 213.751C610.069 213.324 609.955 212.824 609.955 212.251ZM621.37 212.051C621.37 212.224 621.36 212.408 621.34 212.601H616.96C616.993 213.141 617.176 213.564 617.51 213.871C617.85 214.171 618.26 214.321 618.74 214.321C619.133 214.321 619.46 214.231 619.72 214.051C619.986 213.864 620.173 213.618 620.28 213.311H621.26C621.113 213.838 620.82 214.268 620.38 214.601C619.94 214.928 619.393 215.091 618.74 215.091C618.22 215.091 617.753 214.974 617.34 214.741C616.933 214.508 616.613 214.178 616.38 213.751C616.146 213.318 616.03 212.818 616.03 212.251C616.03 211.684 616.143 211.188 616.37 210.761C616.596 210.334 616.913 210.008 617.32 209.781C617.733 209.548 618.206 209.431 618.74 209.431C619.26 209.431 619.72 209.544 620.12 209.771C620.52 209.998 620.826 210.311 621.04 210.711C621.26 211.104 621.37 211.551 621.37 212.051ZM620.43 211.861C620.43 211.514 620.353 211.218 620.2 210.971C620.046 210.718 619.836 210.528 619.57 210.401C619.31 210.268 619.02 210.201 618.7 210.201C618.24 210.201 617.846 210.348 617.52 210.641C617.2 210.934 617.016 211.341 616.97 211.861H620.43ZM623.481 210.531C623.661 210.218 623.927 209.958 624.281 209.751C624.641 209.538 625.057 209.431 625.531 209.431C626.017 209.431 626.457 209.548 626.851 209.781C627.251 210.014 627.564 210.344 627.791 210.771C628.017 211.191 628.131 211.681 628.131 212.241C628.131 212.794 628.017 213.288 627.791 213.721C627.564 214.154 627.251 214.491 626.851 214.731C626.457 214.971 626.017 215.091 625.531 215.091C625.064 215.091 624.651 214.988 624.291 214.781C623.937 214.568 623.667 214.304 623.481 213.991V217.601H622.571V209.521H623.481V210.531ZM627.201 212.241C627.201 211.828 627.117 211.468 626.951 211.161C626.784 210.854 626.557 210.621 626.271 210.461C625.991 210.301 625.681 210.221 625.341 210.221C625.007 210.221 624.697 210.304 624.411 210.471C624.131 210.631 623.904 210.868 623.731 211.181C623.564 211.488 623.481 211.844 623.481 212.251C623.481 212.664 623.564 213.028 623.731 213.341C623.904 213.648 624.131 213.884 624.411 214.051C624.697 214.211 625.007 214.291 625.341 214.291C625.681 214.291 625.991 214.211 626.271 214.051C626.557 213.884 626.784 213.648 626.951 213.341C627.117 213.028 627.201 212.661 627.201 212.241ZM630.439 210.271V213.501C630.439 213.768 630.495 213.958 630.609 214.071C630.722 214.178 630.919 214.231 631.199 214.231H631.869V215.001H631.049C630.542 215.001 630.162 214.884 629.909 214.651C629.655 214.418 629.529 214.034 629.529 213.501V210.271H628.819V209.521H629.529V208.141H630.439V209.521H631.869V210.271H630.439ZM633.441 208.631C633.268 208.631 633.121 208.571 633.001 208.451C632.881 208.331 632.821 208.184 632.821 208.011C632.821 207.838 632.881 207.691 633.001 207.571C633.121 207.451 633.268 207.391 633.441 207.391C633.608 207.391 633.748 207.451 633.861 207.571C633.981 207.691 634.041 207.838 634.041 208.011C634.041 208.184 633.981 208.331 633.861 208.451C633.748 208.571 633.608 208.631 633.441 208.631ZM633.881 209.521V215.001H632.971V209.521H633.881ZM637.822 215.091C637.309 215.091 636.842 214.974 636.422 214.741C636.009 214.508 635.682 214.178 635.442 213.751C635.209 213.318 635.092 212.818 635.092 212.251C635.092 211.691 635.212 211.198 635.452 210.771C635.699 210.338 636.032 210.008 636.452 209.781C636.872 209.548 637.342 209.431 637.862 209.431C638.382 209.431 638.852 209.548 639.272 209.781C639.692 210.008 640.022 210.334 640.262 210.761C640.509 211.188 640.632 211.684 640.632 212.251C640.632 212.818 640.505 213.318 640.252 213.751C640.005 214.178 639.669 214.508 639.242 214.741C638.815 214.974 638.342 215.091 637.822 215.091ZM637.822 214.291C638.149 214.291 638.455 214.214 638.742 214.061C639.029 213.908 639.259 213.678 639.432 213.371C639.612 213.064 639.702 212.691 639.702 212.251C639.702 211.811 639.615 211.438 639.442 211.131C639.269 210.824 639.042 210.598 638.762 210.451C638.482 210.298 638.179 210.221 637.852 210.221C637.519 210.221 637.212 210.298 636.932 210.451C636.659 210.598 636.439 210.824 636.272 211.131C636.105 211.438 636.022 211.811 636.022 212.251C636.022 212.698 636.102 213.074 636.262 213.381C636.429 213.688 636.649 213.918 636.922 214.071C637.195 214.218 637.495 214.291 637.822 214.291ZM644.499 209.421C645.165 209.421 645.705 209.624 646.119 210.031C646.532 210.431 646.739 211.011 646.739 211.771V215.001H645.839V211.901C645.839 211.354 645.702 210.938 645.429 210.651C645.155 210.358 644.782 210.211 644.309 210.211C643.829 210.211 643.445 210.361 643.159 210.661C642.879 210.961 642.739 211.398 642.739 211.971V215.001H641.829V209.521H642.739V210.301C642.919 210.021 643.162 209.804 643.469 209.651C643.782 209.498 644.125 209.421 644.499 209.421Z" fill="#8B8F93"/>
<path d="M189.325 233.707C189.325 234.091 189.229 234.459 189.037 234.811C188.845 235.155 188.561 235.443 188.185 235.675C187.817 235.907 187.373 236.039 186.853 236.071V237.043H186.205V236.071C185.477 236.007 184.885 235.775 184.429 235.375C183.973 234.967 183.741 234.451 183.733 233.827H184.897C184.929 234.163 185.053 234.455 185.269 234.703C185.493 234.951 185.805 235.107 186.205 235.171V232.171C185.669 232.035 185.237 231.895 184.909 231.751C184.581 231.607 184.301 231.383 184.069 231.079C183.837 230.775 183.721 230.367 183.721 229.855C183.721 229.207 183.945 228.671 184.393 228.247C184.849 227.823 185.453 227.587 186.205 227.539V226.543H186.853V227.539C187.533 227.595 188.081 227.815 188.497 228.199C188.913 228.575 189.153 229.067 189.217 229.675H188.053C188.013 229.395 187.889 229.143 187.681 228.919C187.473 228.687 187.197 228.535 186.853 228.463V231.391C187.381 231.527 187.809 231.667 188.137 231.811C188.473 231.947 188.753 232.167 188.977 232.471C189.209 232.775 189.325 233.187 189.325 233.707ZM184.837 229.795C184.837 230.187 184.953 230.487 185.185 230.695C185.417 230.903 185.757 231.075 186.205 231.211V228.439C185.789 228.479 185.457 228.615 185.209 228.847C184.961 229.071 184.837 229.387 184.837 229.795ZM186.853 235.183C187.285 235.135 187.621 234.979 187.861 234.715C188.109 234.451 188.233 234.135 188.233 233.767C188.233 233.375 188.113 233.075 187.873 232.867C187.633 232.651 187.293 232.479 186.853 232.351V235.183ZM190.922 228.319V227.323H193.178V235.999H192.074V228.319H190.922ZM195.054 231.571C195.054 230.195 195.278 229.123 195.726 228.355C196.174 227.579 196.958 227.191 198.078 227.191C199.19 227.191 199.97 227.579 200.418 228.355C200.866 229.123 201.09 230.195 201.09 231.571C201.09 232.971 200.866 234.059 200.418 234.835C199.97 235.611 199.19 235.999 198.078 235.999C196.958 235.999 196.174 235.611 195.726 234.835C195.278 234.059 195.054 232.971 195.054 231.571ZM200.01 231.571C200.01 230.875 199.962 230.287 199.866 229.807C199.778 229.319 199.59 228.927 199.302 228.631C199.022 228.335 198.614 228.187 198.078 228.187C197.534 228.187 197.118 228.335 196.83 228.631C196.55 228.927 196.362 229.319 196.266 229.807C196.178 230.287 196.134 230.875 196.134 231.571C196.134 232.291 196.178 232.895 196.266 233.383C196.362 233.871 196.55 234.263 196.83 234.559C197.118 234.855 197.534 235.003 198.078 235.003C198.614 235.003 199.022 234.855 199.302 234.559C199.59 234.263 199.778 233.871 199.866 233.383C199.962 232.895 200.01 232.291 200.01 231.571ZM202.589 231.571C202.589 230.195 202.813 229.123 203.261 228.355C203.709 227.579 204.493 227.191 205.613 227.191C206.725 227.191 207.505 227.579 207.953 228.355C208.401 229.123 208.625 230.195 208.625 231.571C208.625 232.971 208.401 234.059 207.953 234.835C207.505 235.611 206.725 235.999 205.613 235.999C204.493 235.999 203.709 235.611 203.261 234.835C202.813 234.059 202.589 232.971 202.589 231.571ZM207.545 231.571C207.545 230.875 207.497 230.287 207.401 229.807C207.313 229.319 207.125 228.927 206.837 228.631C206.557 228.335 206.149 228.187 205.613 228.187C205.069 228.187 204.653 228.335 204.365 228.631C204.085 228.927 203.897 229.319 203.801 229.807C203.713 230.287 203.669 230.875 203.669 231.571C203.669 232.291 203.713 232.895 203.801 233.383C203.897 233.871 204.085 234.263 204.365 234.559C204.653 234.855 205.069 235.003 205.613 235.003C206.149 235.003 206.557 234.855 206.837 234.559C207.125 234.263 207.313 233.871 207.401 233.383C207.497 232.895 207.545 232.291 207.545 231.571ZM211.432 234.487L210.088 237.715H209.356L210.232 234.487H211.432ZM212.503 231.571C212.503 230.195 212.727 229.123 213.175 228.355C213.623 227.579 214.407 227.191 215.527 227.191C216.639 227.191 217.419 227.579 217.867 228.355C218.315 229.123 218.539 230.195 218.539 231.571C218.539 232.971 218.315 234.059 217.867 234.835C217.419 235.611 216.639 235.999 215.527 235.999C214.407 235.999 213.623 235.611 213.175 234.835C212.727 234.059 212.503 232.971 212.503 231.571ZM217.459 231.571C217.459 230.875 217.411 230.287 217.315 229.807C217.227 229.319 217.039 228.927 216.751 228.631C216.471 228.335 216.063 228.187 215.527 228.187C214.983 228.187 214.567 228.335 214.279 228.631C213.999 228.927 213.811 229.319 213.715 229.807C213.627 230.287 213.583 230.875 213.583 231.571C213.583 232.291 213.627 232.895 213.715 233.383C213.811 233.871 213.999 234.263 214.279 234.559C214.567 234.855 214.983 235.003 215.527 235.003C216.063 235.003 216.471 234.855 216.751 234.559C217.039 234.263 217.227 233.871 217.315 233.383C217.411 232.895 217.459 232.291 217.459 231.571ZM220.038 231.571C220.038 230.195 220.262 229.123 220.71 228.355C221.158 227.579 221.942 227.191 223.062 227.191C224.174 227.191 224.954 227.579 225.402 228.355C225.85 229.123 226.074 230.195 226.074 231.571C226.074 232.971 225.85 234.059 225.402 234.835C224.954 235.611 224.174 235.999 223.062 235.999C221.942 235.999 221.158 235.611 220.71 234.835C220.262 234.059 220.038 232.971 220.038 231.571ZM224.994 231.571C224.994 230.875 224.946 230.287 224.85 229.807C224.762 229.319 224.574 228.927 224.286 228.631C224.006 228.335 223.598 228.187 223.062 228.187C222.518 228.187 222.102 228.335 221.814 228.631C221.534 228.927 221.346 229.319 221.25 229.807C221.162 230.287 221.118 230.875 221.118 231.571C221.118 232.291 221.162 232.895 221.25 233.383C221.346 233.871 221.534 234.263 221.814 234.559C222.102 234.855 222.518 235.003 223.062 235.003C223.598 235.003 224.006 234.855 224.286 234.559C224.574 234.263 224.762 233.871 224.85 233.383C224.946 232.895 224.994 232.291 224.994 231.571ZM227.573 231.571C227.573 230.195 227.797 229.123 228.245 228.355C228.693 227.579 229.477 227.191 230.597 227.191C231.709 227.191 232.489 227.579 232.937 228.355C233.385 229.123 233.609 230.195 233.609 231.571C233.609 232.971 233.385 234.059 232.937 234.835C232.489 235.611 231.709 235.999 230.597 235.999C229.477 235.999 228.693 235.611 228.245 234.835C227.797 234.059 227.573 232.971 227.573 231.571ZM232.529 231.571C232.529 230.875 232.481 230.287 232.385 229.807C232.297 229.319 232.109 228.927 231.821 228.631C231.541 228.335 231.133 228.187 230.597 228.187C230.053 228.187 229.637 228.335 229.349 228.631C229.069 228.927 228.881 229.319 228.785 229.807C228.697 230.287 228.653 230.875 228.653 231.571C228.653 232.291 228.697 232.895 228.785 233.383C228.881 233.871 229.069 234.263 229.349 234.559C229.637 234.855 230.053 235.003 230.597 235.003C231.133 235.003 231.541 234.855 231.821 234.559C232.109 234.263 232.297 233.871 232.385 233.383C232.481 232.895 232.529 232.291 232.529 231.571Z" fill="black"/>
<path d="M378.528 227.637C379.44 227.637 380.228 227.809 380.892 228.153C381.564 228.489 382.076 228.973 382.428 229.605C382.788 230.237 382.968 230.981 382.968 231.837C382.968 232.693 382.788 233.437 382.428 234.069C382.076 234.693 381.564 235.173 380.892 235.509C380.228 235.837 379.44 236.001 378.528 236.001H375.924V227.637H378.528ZM378.528 235.101C379.608 235.101 380.432 234.817 381 234.249C381.568 233.673 381.852 232.869 381.852 231.837C381.852 230.797 381.564 229.985 380.988 229.401C380.42 228.817 379.6 228.525 378.528 228.525H377.016V235.101H378.528ZM389.352 234.141H385.704L385.032 236.001H383.88L386.904 227.685H388.164L391.176 236.001H390.024L389.352 234.141ZM389.04 233.253L387.528 229.029L386.016 233.253H389.04ZM393.586 227.637V236.001H392.494V227.637H393.586Z" fill="black"/>
<path d="M491.165 232.076H488.609V234.668H487.589V232.076H485.045V231.152H487.589V228.548H488.609V231.152H491.165V232.076ZM492.912 229.508C492.968 228.772 493.252 228.196 493.764 227.78C494.276 227.364 494.94 227.156 495.756 227.156C496.3 227.156 496.768 227.256 497.16 227.456C497.56 227.648 497.86 227.912 498.06 228.248C498.268 228.584 498.372 228.964 498.372 229.388C498.372 229.884 498.228 230.312 497.94 230.672C497.66 231.032 497.292 231.264 496.836 231.368V231.428C497.356 231.556 497.768 231.808 498.072 232.184C498.376 232.56 498.528 233.052 498.528 233.66C498.528 234.116 498.424 234.528 498.216 234.896C498.008 235.256 497.696 235.54 497.28 235.748C496.864 235.956 496.364 236.06 495.78 236.06C494.932 236.06 494.236 235.84 493.692 235.4C493.148 234.952 492.844 234.32 492.78 233.504H493.836C493.892 233.984 494.088 234.376 494.424 234.68C494.76 234.984 495.208 235.136 495.768 235.136C496.328 235.136 496.752 234.992 497.04 234.704C497.336 234.408 497.484 234.028 497.484 233.564C497.484 232.964 497.284 232.532 496.884 232.268C496.484 232.004 495.88 231.872 495.072 231.872H494.796V230.96H495.084C495.82 230.952 496.376 230.832 496.752 230.6C497.128 230.36 497.316 229.992 497.316 229.496C497.316 229.072 497.176 228.732 496.896 228.476C496.624 228.22 496.232 228.092 495.72 228.092C495.224 228.092 494.824 228.22 494.52 228.476C494.216 228.732 494.036 229.076 493.98 229.508H492.912ZM499.739 234.068V233.24L503.951 227.408H505.259V233.12H506.459V234.068H505.259V236H504.179V234.068H499.739ZM504.227 228.548L500.999 233.12H504.227V228.548ZM508.078 236.072C507.87 236.072 507.694 236 507.55 235.856C507.406 235.712 507.334 235.536 507.334 235.328C507.334 235.12 507.406 234.944 507.55 234.8C507.694 234.656 507.87 234.584 508.078 234.584C508.278 234.584 508.446 234.656 508.582 234.8C508.726 234.944 508.798 235.12 508.798 235.328C508.798 235.536 508.726 235.712 508.582 235.856C508.446 236 508.278 236.072 508.078 236.072ZM509.805 234.068V233.24L514.017 227.408H515.325V233.12H516.525V234.068H515.325V236H514.245V234.068H509.805ZM514.293 228.548L511.065 233.12H514.293V228.548ZM517.592 229.508C517.648 228.772 517.932 228.196 518.444 227.78C518.956 227.364 519.62 227.156 520.436 227.156C520.98 227.156 521.448 227.256 521.84 227.456C522.24 227.648 522.54 227.912 522.74 228.248C522.948 228.584 523.052 228.964 523.052 229.388C523.052 229.884 522.908 230.312 522.62 230.672C522.34 231.032 521.972 231.264 521.516 231.368V231.428C522.036 231.556 522.448 231.808 522.752 232.184C523.056 232.56 523.208 233.052 523.208 233.66C523.208 234.116 523.104 234.528 522.896 234.896C522.688 235.256 522.376 235.54 521.96 235.748C521.544 235.956 521.044 236.06 520.46 236.06C519.612 236.06 518.916 235.84 518.372 235.4C517.828 234.952 517.524 234.32 517.46 233.504H518.516C518.572 233.984 518.768 234.376 519.104 234.68C519.44 234.984 519.888 235.136 520.448 235.136C521.008 235.136 521.432 234.992 521.72 234.704C522.016 234.408 522.164 234.028 522.164 233.564C522.164 232.964 521.964 232.532 521.564 232.268C521.164 232.004 520.56 231.872 519.752 231.872H519.476V230.96H519.764C520.5 230.952 521.056 230.832 521.432 230.6C521.808 230.36 521.996 229.992 521.996 229.496C521.996 229.072 521.856 228.732 521.576 228.476C521.304 228.22 520.912 228.092 520.4 228.092C519.904 228.092 519.504 228.22 519.2 228.476C518.896 228.732 518.716 229.076 518.66 229.508H517.592ZM524.443 229.28C524.443 228.736 524.607 228.304 524.935 227.984C525.263 227.656 525.683 227.492 526.195 227.492C526.707 227.492 527.127 227.656 527.455 227.984C527.783 228.304 527.947 228.736 527.947 229.28C527.947 229.832 527.783 230.272 527.455 230.6C527.127 230.92 526.707 231.08 526.195 231.08C525.683 231.08 525.263 230.92 524.935 230.6C524.607 230.272 524.443 229.832 524.443 229.28ZM531.451 227.624L526.591 236H525.511L530.371 227.624H531.451ZM526.195 228.164C525.923 228.164 525.707 228.26 525.547 228.452C525.395 228.636 525.319 228.912 525.319 229.28C525.319 229.648 525.395 229.928 525.547 230.12C525.707 230.312 525.923 230.408 526.195 230.408C526.467 230.408 526.683 230.312 526.843 230.12C527.003 229.92 527.083 229.64 527.083 229.28C527.083 228.912 527.003 228.636 526.843 228.452C526.683 228.26 526.467 228.164 526.195 228.164ZM529.039 234.344C529.039 233.792 529.203 233.356 529.531 233.036C529.859 232.708 530.279 232.544 530.791 232.544C531.303 232.544 531.719 232.708 532.039 233.036C532.367 233.356 532.531 233.792 532.531 234.344C532.531 234.888 532.367 235.324 532.039 235.652C531.719 235.98 531.303 236.144 530.791 236.144C530.279 236.144 529.859 235.984 529.531 235.664C529.203 235.336 529.039 234.896 529.039 234.344ZM530.779 233.228C530.507 233.228 530.291 233.324 530.131 233.516C529.971 233.7 529.891 233.976 529.891 234.344C529.891 234.704 529.971 234.98 530.131 235.172C530.291 235.356 530.507 235.448 530.779 235.448C531.051 235.448 531.267 235.356 531.427 235.172C531.587 234.98 531.667 234.704 531.667 234.344C531.667 233.976 531.587 233.7 531.427 233.516C531.267 233.324 531.051 233.228 530.779 233.228Z" fill="#91C896"/>
<path d="M578.165 232.076H575.609V234.668H574.589V232.076H572.045V231.152H574.589V228.548H575.609V231.152H578.165V232.076ZM579.936 231.572C579.936 230.196 580.16 229.124 580.608 228.356C581.056 227.58 581.84 227.192 582.96 227.192C584.072 227.192 584.852 227.58 585.3 228.356C585.748 229.124 585.972 230.196 585.972 231.572C585.972 232.972 585.748 234.06 585.3 234.836C584.852 235.612 584.072 236 582.96 236C581.84 236 581.056 235.612 580.608 234.836C580.16 234.06 579.936 232.972 579.936 231.572ZM584.892 231.572C584.892 230.876 584.844 230.288 584.748 229.808C584.66 229.32 584.472 228.928 584.184 228.632C583.904 228.336 583.496 228.188 582.96 228.188C582.416 228.188 582 228.336 581.712 228.632C581.432 228.928 581.244 229.32 581.148 229.808C581.06 230.288 581.016 230.876 581.016 231.572C581.016 232.292 581.06 232.896 581.148 233.384C581.244 233.872 581.432 234.264 581.712 234.56C582 234.856 582.416 235.004 582.96 235.004C583.496 235.004 583.904 234.856 584.184 234.56C584.472 234.264 584.66 233.872 584.748 233.384C584.844 232.896 584.892 232.292 584.892 231.572ZM588 236.072C587.792 236.072 587.616 236 587.472 235.856C587.328 235.712 587.256 235.536 587.256 235.328C587.256 235.12 587.328 234.944 587.472 234.8C587.616 234.656 587.792 234.584 588 234.584C588.2 234.584 588.368 234.656 588.504 234.8C588.648 234.944 588.72 235.12 588.72 235.328C588.72 235.536 588.648 235.712 588.504 235.856C588.368 236 588.2 236.072 588 236.072ZM589.967 229.508C590.023 228.772 590.307 228.196 590.819 227.78C591.331 227.364 591.995 227.156 592.811 227.156C593.355 227.156 593.823 227.256 594.215 227.456C594.615 227.648 594.915 227.912 595.115 228.248C595.323 228.584 595.427 228.964 595.427 229.388C595.427 229.884 595.283 230.312 594.995 230.672C594.715 231.032 594.347 231.264 593.891 231.368V231.428C594.411 231.556 594.823 231.808 595.127 232.184C595.431 232.56 595.583 233.052 595.583 233.66C595.583 234.116 595.479 234.528 595.271 234.896C595.063 235.256 594.751 235.54 594.335 235.748C593.919 235.956 593.419 236.06 592.835 236.06C591.987 236.06 591.291 235.84 590.747 235.4C590.203 234.952 589.899 234.32 589.835 233.504H590.891C590.947 233.984 591.143 234.376 591.479 234.68C591.815 234.984 592.263 235.136 592.823 235.136C593.383 235.136 593.807 234.992 594.095 234.704C594.391 234.408 594.539 234.028 594.539 233.564C594.539 232.964 594.339 232.532 593.939 232.268C593.539 232.004 592.935 231.872 592.127 231.872H591.851V230.96H592.139C592.875 230.952 593.431 230.832 593.807 230.6C594.183 230.36 594.371 229.992 594.371 229.496C594.371 229.072 594.231 228.732 593.951 228.476C593.679 228.22 593.287 228.092 592.775 228.092C592.279 228.092 591.879 228.22 591.575 228.476C591.271 228.732 591.091 229.076 591.035 229.508H589.967ZM596.794 234.068V233.24L601.006 227.408H602.313V233.12H603.514V234.068H602.313V236H601.234V234.068H596.794ZM601.282 228.548L598.054 233.12H601.282V228.548ZM604.364 229.28C604.364 228.736 604.528 228.304 604.856 227.984C605.184 227.656 605.604 227.492 606.116 227.492C606.628 227.492 607.048 227.656 607.376 227.984C607.704 228.304 607.868 228.736 607.868 229.28C607.868 229.832 607.704 230.272 607.376 230.6C607.048 230.92 606.628 231.08 606.116 231.08C605.604 231.08 605.184 230.92 604.856 230.6C604.528 230.272 604.364 229.832 604.364 229.28ZM611.372 227.624L606.512 236H605.432L610.292 227.624H611.372ZM606.116 228.164C605.844 228.164 605.628 228.26 605.468 228.452C605.316 228.636 605.24 228.912 605.24 229.28C605.24 229.648 605.316 229.928 605.468 230.12C605.628 230.312 605.844 230.408 606.116 230.408C606.388 230.408 606.604 230.312 606.764 230.12C606.924 229.92 607.004 229.64 607.004 229.28C607.004 228.912 606.924 228.636 606.764 228.452C606.604 228.26 606.388 228.164 606.116 228.164ZM608.96 234.344C608.96 233.792 609.124 233.356 609.452 233.036C609.78 232.708 610.2 232.544 610.712 232.544C611.224 232.544 611.64 232.708 611.96 233.036C612.288 233.356 612.452 233.792 612.452 234.344C612.452 234.888 612.288 235.324 611.96 235.652C611.64 235.98 611.224 236.144 610.712 236.144C610.2 236.144 609.78 235.984 609.452 235.664C609.124 235.336 608.96 234.896 608.96 234.344ZM610.7 233.228C610.428 233.228 610.212 233.324 610.052 233.516C609.892 233.7 609.812 233.976 609.812 234.344C609.812 234.704 609.892 234.98 610.052 235.172C610.212 235.356 610.428 235.448 610.7 235.448C610.972 235.448 611.188 235.356 611.348 235.172C611.508 234.98 611.588 234.704 611.588 234.344C611.588 233.976 611.508 233.7 611.348 233.516C611.188 233.324 610.972 233.228 610.7 233.228Z" fill="#91C896"/>
<g filter="url(#filter3_d_188_663)">
<path d="M283 241C287.971 241 292 236.971 292 232C292 227.029 287.971 223 283 223C278.029 223 274 227.029 274 232C274 236.971 278.029 241 283 241Z" fill="black"/>
</g>
<path d="M283 241C287.971 241 292 236.971 292 232C292 227.029 287.971 223 283 223C278.029 223 274 227.029 274 232C274 236.971 278.029 241 283 241Z" fill="#627EEA"/>
<path style="mix-blend-mode:soft-light" d="M283 241C287.971 241 292 236.971 292 232C292 227.029 287.971 223 283 223C278.029 223 274 227.029 274 232C274 236.971 278.029 241 283 241Z" fill="url(#paint1_linear_188_663)"/>
<path d="M283.001 240.701C287.806 240.701 291.701 236.806 291.701 232.001C291.701 227.196 287.806 223.301 283.001 223.301C278.196 223.301 274.301 227.196 274.301 232.001C274.301 236.806 278.196 240.701 283.001 240.701Z" stroke="black" stroke-opacity="0.097" stroke-width="0.6"/>
<path d="M283.299 224.801V230.123L287.797 232.133L283.299 224.801Z" fill="white" fill-opacity="0.602"/>
<path d="M283.3 224.801L278.801 232.133L283.3 230.123V224.801Z" fill="white"/>
<path d="M283.299 235.58V239.196L287.8 232.969L283.299 235.58Z" fill="white" fill-opacity="0.602"/>
<path d="M283.3 239.196V235.579L278.801 232.969L283.3 239.196Z" fill="white"/>
<path d="M283.299 234.746L287.797 232.134L283.299 230.125V234.746Z" fill="white" fill-opacity="0.2"/>
<path d="M278.801 232.134L283.3 234.746V230.125L278.801 232.134Z" fill="white" fill-opacity="0.602"/>
<g filter="url(#filter4_d_188_663)">
<path d="M294 241C298.971 241 303 236.971 303 232C303 227.029 298.971 223 294 223C289.029 223 285 227.029 285 232C285 236.971 289.029 241 294 241Z" fill="black"/>
</g>
<path d="M294 241C298.971 241 303 236.971 303 232C303 227.029 298.971 223 294 223C289.029 223 285 227.029 285 232C285 236.971 289.029 241 294 241Z" fill="#F4B731"/>
<path style="mix-blend-mode:soft-light" d="M294 241C298.971 241 303 236.971 303 232C303 227.029 298.971 223 294 223C289.029 223 285 227.029 285 232C285 236.971 289.029 241 294 241Z" fill="url(#paint2_linear_188_663)"/>
<path d="M294.001 240.701C298.806 240.701 302.701 236.806 302.701 232.001C302.701 227.196 298.806 223.301 294.001 223.301C289.196 223.301 285.301 227.196 285.301 232.001C285.301 236.806 289.196 240.701 294.001 240.701Z" stroke="black" stroke-opacity="0.097" stroke-width="0.6"/>
<g filter="url(#filter5_d_188_663)">
<path d="M293.897 227.199C296.288 227.199 298.101 228.469 298.775 230.316H300V231.432H299.033C299.052 231.609 299.061 231.789 299.061 231.971V231.999C299.061 232.204 299.049 232.407 299.025 232.605H300V233.721H298.752C298.06 235.542 296.262 236.799 293.898 236.799H289.966V233.721H288.6V232.605H289.966V231.432H288.6V230.316H289.966V227.199H293.897ZM297.547 233.721H291.064V235.798H293.896C295.645 235.798 296.943 234.966 297.547 233.721ZM297.886 231.432H291.064V232.604H297.884C297.91 232.416 297.924 232.223 297.924 232.026V231.999C297.924 231.81 297.911 231.621 297.886 231.433V231.432ZM293.898 228.199H291.066V230.316H297.556C296.956 229.053 295.653 228.199 293.898 228.199Z" fill="black"/>
</g>
<path d="M293.897 227.199C296.288 227.199 298.101 228.469 298.775 230.316H300V231.432H299.033C299.052 231.609 299.061 231.789 299.061 231.971V231.999C299.061 232.204 299.049 232.407 299.025 232.605H300V233.721H298.752C298.06 235.542 296.262 236.799 293.898 236.799H289.966V233.721H288.6V232.605H289.966V231.432H288.6V230.316H289.966V227.199H293.897ZM297.547 233.721H291.064V235.798H293.896C295.645 235.798 296.943 234.966 297.547 233.721ZM297.886 231.432H291.064V232.604H297.884C297.91 232.416 297.924 232.223 297.924 232.026V231.999C297.924 231.81 297.911 231.621 297.886 231.433V231.432ZM293.898 228.199H291.066V230.316H297.556C296.956 229.053 295.653 228.199 293.898 228.199Z" fill="white"/>
<defs>
<filter id="filter0_f_188_663" x="15.0211" y="210.904" width="46.6375" height="49.1804" filterUnits="userSpaceOnUse" color-interpolation-filters="sRGB">
<feFlood flood-opacity="0" result="BackgroundImageFix"/>
<feBlend mode="normal" in="SourceGraphic" in2="BackgroundImageFix" result="shape"/>
<feGaussianBlur stdDeviation="6.38593" result="effect1_foregroundBlur_188_663"/>
</filter>
<filter id="filter1_f_188_663" x="26.9332" y="208.97" width="57.8894" height="57.8914" filterUnits="userSpaceOnUse" color-interpolation-filters="sRGB">
<feFlood flood-opacity="0" result="BackgroundImageFix"/>
<feBlend mode="normal" in="SourceGraphic" in2="BackgroundImageFix" result="shape"/>
<feGaussianBlur stdDeviation="6.38593" result="effect1_foregroundBlur_188_663"/>
</filter>
<filter id="filter2_f_188_663" x="33.5148" y="222.265" width="27.0543" height="27.0562" filterUnits="userSpaceOnUse" color-interpolation-filters="sRGB">
<feFlood flood-opacity="0" result="BackgroundImageFix"/>
<feBlend mode="normal" in="SourceGraphic" in2="BackgroundImageFix" result="shape"/>
<feGaussianBlur stdDeviation="4.78945" result="effect1_foregroundBlur_188_663"/>
</filter>
<filter id="filter3_d_188_663" x="273.4" y="222.7" width="19.2" height="19.2" filterUnits="userSpaceOnUse" color-interpolation-filters="sRGB">
<feFlood flood-opacity="0" result="BackgroundImageFix"/>
<feColorMatrix in="SourceAlpha" type="matrix" values="0 0 0 0 0 0 0 0 0 0 0 0 0 0 0 0 0 0 127 0" result="hardAlpha"/>
<feOffset dy="0.3"/>
<feGaussianBlur stdDeviation="0.3"/>
<feColorMatrix type="matrix" values="0 0 0 0 0 0 0 0 0 0 0 0 0 0 0 0 0 0 0.199474 0"/>
<feBlend mode="normal" in2="BackgroundImageFix" result="effect1_dropShadow_188_663"/>
<feBlend mode="normal" in="SourceGraphic" in2="effect1_dropShadow_188_663" result="shape"/>
</filter>
<filter id="filter4_d_188_663" x="284.4" y="222.7" width="19.2" height="19.2" filterUnits="userSpaceOnUse" color-interpolation-filters="sRGB">
<feFlood flood-opacity="0" result="BackgroundImageFix"/>
<feColorMatrix in="SourceAlpha" type="matrix" values="0 0 0 0 0 0 0 0 0 0 0 0 0 0 0 0 0 0 127 0" result="hardAlpha"/>
<feOffset dy="0.3"/>
<feGaussianBlur stdDeviation="0.3"/>
<feColorMatrix type="matrix" values="0 0 0 0 0 0 0 0 0 0 0 0 0 0 0 0 0 0 0.199474 0"/>
<feBlend mode="normal" in2="BackgroundImageFix" result="effect1_dropShadow_188_663"/>
<feBlend mode="normal" in="SourceGraphic" in2="effect1_dropShadow_188_663" result="shape"/>
</filter>
<filter id="filter5_d_188_663" x="288" y="226.899" width="12.6004" height="10.8016" filterUnits="userSpaceOnUse" color-interpolation-filters="sRGB">
<feFlood flood-opacity="0" result="BackgroundImageFix"/>
<feColorMatrix in="SourceAlpha" type="matrix" values="0 0 0 0 0 0 0 0 0 0 0 0 0 0 0 0 0 0 127 0" result="hardAlpha"/>
<feOffset dy="0.3"/>
<feGaussianBlur stdDeviation="0.3"/>
<feColorMatrix type="matrix" values="0 0 0 0 0 0 0 0 0 0 0 0 0 0 0 0 0 0 0.204257 0"/>
<feBlend mode="normal" in2="BackgroundImageFix" result="effect1_dropShadow_188_663"/>
<feBlend mode="normal" in="SourceGraphic" in2="effect1_dropShadow_188_663" result="shape"/>
</filter>
<linearGradient id="paint0_linear_188_663" x1="55.8781" y1="221.742" x2="55.8781" y2="254.088" gradientUnits="userSpaceOnUse">
<stop stop-color="#8BB5FF"/>
<stop offset="1" stop-color="#E1FBFF"/>
</linearGradient>
<linearGradient id="paint1_linear_188_663" x1="283" y1="223" x2="283" y2="241" gradientUnits="userSpaceOnUse">
<stop stop-color="white" stop-opacity="0.5"/>
<stop offset="1" stop-opacity="0.5"/>
</linearGradient>
<linearGradient id="paint2_linear_188_663" x1="294" y1="223" x2="294" y2="241" gradientUnits="userSpaceOnUse">
<stop stop-color="white" stop-opacity="0.5"/>
<stop offset="1" stop-opacity="0.5"/>
</linearGradient>
</defs>
</svg>
