<svg width="40" height="40" viewBox="0 0 40 40" fill="none" xmlns="http://www.w3.org/2000/svg">
<circle cx="20" cy="20" r="19" stroke="#333333" stroke-width="2"/>
<path d="M18.5523 19.7109C18.0963 19.7109 17.7363 20.1109 17.7363 20.5989C17.7363 21.0869 18.1043 21.4869 18.5523 21.4869C19.0083 21.4869 19.3683 21.0869 19.3683 20.5989C19.3763 20.1109 19.0083 19.7109 18.5523 19.7109ZM21.4723 19.7109C21.0163 19.7109 20.6563 20.1109 20.6563 20.5989C20.6563 21.0869 21.0243 21.4869 21.4723 21.4869C21.9283 21.4869 22.2883 21.0869 22.2883 20.5989C22.2883 20.1109 21.9283 19.7109 21.4723 19.7109Z" fill="white"/>
<path d="M25.36 13H14.64C13.736 13 13 13.736 13 14.648V25.464C13 26.376 13.736 27.112 14.64 27.112H23.712L23.288 25.632L24.312 26.584L25.28 27.48L27 29V14.648C27 13.736 26.264 13 25.36 13ZM22.272 23.448C22.272 23.448 21.984 23.104 21.744 22.8C22.792 22.504 23.192 21.848 23.192 21.848C22.864 22.064 22.552 22.216 22.272 22.32C21.872 22.488 21.488 22.6 21.112 22.664C20.4268 22.7901 19.7242 22.7874 19.04 22.656C18.6383 22.5774 18.2447 22.4623 17.864 22.312C17.6633 22.2348 17.4682 22.144 17.28 22.04C17.256 22.024 17.232 22.016 17.208 22C17.192 21.992 17.184 21.984 17.176 21.976C17.032 21.896 16.952 21.84 16.952 21.84C16.952 21.84 17.336 22.48 18.352 22.784C18.112 23.088 17.816 23.448 17.816 23.448C16.048 23.392 15.376 22.232 15.376 22.232C15.376 19.656 16.528 17.568 16.528 17.568C17.68 16.704 18.776 16.728 18.776 16.728L18.856 16.824C17.416 17.24 16.752 17.872 16.752 17.872C16.752 17.872 16.928 17.776 17.224 17.64C18.08 17.264 18.76 17.16 19.04 17.136C19.088 17.128 19.128 17.12 19.176 17.12C20.5633 16.9322 21.9742 17.1959 23.2 17.872C23.2 17.872 22.568 17.272 21.208 16.856L21.32 16.728C21.32 16.728 22.416 16.704 23.568 17.568C23.568 17.568 24.72 19.656 24.72 22.232C24.72 22.232 24.04 23.392 22.272 23.448V23.448Z" fill="white"/>
</svg>
