<svg width="40" height="40" viewBox="0 0 40 40" fill="none" xmlns="http://www.w3.org/2000/svg">
<path d="M20 39C30.4934 39 39 30.4934 39 20C39 9.50659 30.4934 1 20 1C9.50659 1 1 9.50659 1 20C1 30.4934 9.50659 39 20 39Z" stroke="#333333" stroke-width="2"/>
<path d="M14.4 15.8H13V25.6C13 26.37 13.63 27 14.4 27H24.2V25.6H14.4V15.8ZM25.6 13H17.2C16.43 13 15.8 13.63 15.8 14.4V22.8C15.8 23.57 16.43 24.2 17.2 24.2H25.6C26.37 24.2 27 23.57 27 22.8V14.4C27 13.63 26.37 13 25.6 13ZM24.9 19.3H17.9V17.9H24.9V19.3ZM22.1 22.1H17.9V20.7H22.1V22.1ZM24.9 16.5H17.9V15.1H24.9V16.5Z" fill="white"/>
</svg>
