<svg width="40" height="40" viewBox="0 0 40 40" fill="none" xmlns="http://www.w3.org/2000/svg">
<circle cx="20" cy="20" r="19" stroke="#333333" stroke-width="2"/>
<path fill-rule="evenodd" clip-rule="evenodd" d="M20 13C15.58 13 12 16.58 12 21C12 24.54 14.29 27.53 17.47 28.59C17.87 28.66 18.02 28.42 18.02 28.21C18.02 28.02 18.01 27.39 18.01 26.72C16 27.09 15.48 26.23 15.32 25.78C15.23 25.55 14.84 24.84 14.5 24.65C14.22 24.5 13.82 24.13 14.49 24.12C15.12 24.11 15.57 24.7 15.72 24.94C16.44 26.15 17.59 25.81 18.05 25.6C18.12 25.08 18.33 24.73 18.56 24.53C16.78 24.33 14.92 23.64 14.92 20.58C14.92 19.71 15.23 18.99 15.74 18.43C15.66 18.23 15.38 17.41 15.82 16.31C15.82 16.31 16.49 16.1 18.02 17.13C18.66 16.95 19.34 16.86 20.02 16.86C20.7 16.86 21.38 16.95 22.02 17.13C23.55 16.09 24.22 16.31 24.22 16.31C24.66 17.41 24.38 18.23 24.3 18.43C24.81 18.99 25.12 19.7 25.12 20.58C25.12 23.65 23.25 24.33 21.47 24.53C21.76 24.78 22.01 25.26 22.01 26.01C22.01 27.08 22 27.94 22 28.21C22 28.42 22.15 28.67 22.55 28.59C24.1381 28.0538 25.5181 27.0331 26.4958 25.6716C27.4734 24.31 27.9995 22.6762 28 21C28 16.58 24.42 13 20 13Z" fill="white"/>
</svg>
