<svg width="567" height="429" viewBox="0 0 567 429" fill="none" xmlns="http://www.w3.org/2000/svg">
<path d="M11.5098 428.134H555.158V376.31H11.5098V428.134Z" fill="white"/>
<path d="M299.818 304.706C299.818 304.706 292.394 312.334 284.88 320.784C281.74 324.31 278.585 327.977 275.957 331.285C267.02 342.517 258.624 345.672 248.71 356.685C242.638 363.43 234.618 368.622 219.63 371.02C204.654 373.418 149.969 377.315 149.969 377.315C149.969 377.315 148.597 370.058 149.558 367.763C149.814 367.149 149.173 365.725 148.289 363.955C145.904 359.148 141.826 351.787 149.558 350.902C160.137 349.685 211.424 337.274 213.886 333.515C216.348 329.773 230.208 312.629 237.684 296.974C245.17 281.318 256.365 262.27 267.789 243.686C277.844 227.329 280.662 226.453 286.085 221.734L292.394 259.881L299.818 304.706" fill="#7A90D1"/>
<path d="M125.036 375.746H88.5996V374.185C88.5996 364.122 96.7556 355.966 106.817 355.966C116.88 355.966 125.036 364.122 125.036 374.185V375.746Z" fill="#A1A1A0"/>
<path d="M126.319 354.993C123.351 353.869 114.459 349.704 109.651 349.704C104.843 349.704 96.8287 357.879 92.3407 361.885C87.8541 365.892 94.0967 369.591 97.63 367.763C101.317 365.856 104.797 361.256 108.323 361.4C111.849 361.544 113.337 364.61 115.261 365.25C116.222 365.57 116.745 368.136 114.941 369.418C113.135 370.7 109.005 370.7 107.882 371.421C105.639 372.863 107.081 376.78 110.927 376.78C114.774 376.78 118.038 377.181 122.634 376.31C127.227 375.438 132.857 376.682 136.399 375.251C139.941 373.821 149.973 377.322 149.973 377.322L142.827 357.718C142.827 357.718 132.026 357.153 126.319 354.993Z" fill="#FBCBB3"/>
<path d="M128.885 354.993C129.63 357.921 131.51 359.915 133.051 364.394C136.417 374.179 132.142 376.039 132.142 376.039C132.142 376.039 150.823 377.318 154.091 376.039C154.091 376.039 158.623 371.006 154.091 360.951C149.559 350.898 149.559 350.898 149.559 350.898C149.559 350.898 146.721 350.913 138.501 352.109C131.723 353.093 128.885 354.993 128.885 354.993Z" fill="#495BB2"/>
<path d="M389.766 155.944C389.766 155.944 386.014 166.908 385.666 176.361C385.318 185.814 385.314 198.874 388.078 203.917C390.84 208.96 420.102 226.024 420.102 226.024C420.102 226.024 386.918 232.9 354.071 230.956C321.224 229.01 314.186 215.024 314.186 215.024C314.186 215.024 339.131 205.236 339.804 202.757C340.476 200.277 345.324 181.376 345.324 181.376L389.766 155.944" fill="#F6B7A1"/>
<path d="M387.367 202.29C385.317 196.447 385.35 184.925 385.665 176.361C386.013 166.907 389.765 155.943 389.765 155.943C389.765 155.943 386.013 166.907 385.665 176.361C385.35 184.934 385.323 196.45 387.381 202.286C387.377 202.287 387.371 202.289 387.367 202.29" fill="#F9DED5"/>
<path d="M341.167 211.615L339.426 203.283C339.634 203.083 339.763 202.906 339.804 202.757C340.476 200.277 345.324 181.375 345.324 181.375L389.766 155.943C389.766 155.943 386.014 166.907 385.666 176.361C385.351 184.925 385.318 196.447 387.368 202.29C371.994 205.53 356.602 208.682 341.167 211.615" fill="#F3A88F"/>
<path d="M331.834 153.708C332.85 145.78 333.129 117.225 333.129 117.225L371.36 103.756L404.764 122.386C404.764 122.386 396.75 147.728 396.62 155.72C396.488 163.71 395.945 174.406 390.95 182.048C385.956 189.688 372.928 201.544 369.861 202.954C360.666 207.181 354.641 204.317 347.717 200.252C344.805 198.544 340.782 189.91 336.934 181.633C333.085 173.354 330.818 161.634 331.834 153.708" fill="#FBCBB3"/>
<path d="M391.875 133.893C391.875 133.893 391.965 144.133 394.685 150.852C395.207 152.141 394.875 156.176 394.232 160.997C395.596 159.458 396.987 157.94 398.415 156.446C401.175 153.557 403.74 150.554 406.171 147.462C407.597 141.645 410.132 133.74 410.041 129.236C409.769 115.545 409.785 107.866 384.665 95.6131C379.899 93.2864 370.183 87.0077 365.215 88.8677C357.811 91.6384 355.596 94.3358 349.753 99.3104C349.753 99.3104 341.884 97.7317 332.079 108.33C326.287 114.59 328.06 123.629 328.399 130.442C329.087 144.296 332.757 143.548 332.757 143.548C333.329 136.501 332.128 133.562 334.227 122.928C334.936 119.332 340.279 118.14 343.919 117.369C347.42 116.629 348.628 115.277 360.227 126.784C367.097 133.6 370.856 133.017 391.875 133.893" fill="#542C14"/>
<path d="M392.767 155.442C394.615 148.534 397.584 143.387 400.711 143.636C403.837 143.886 407.005 149.643 403.125 156.187C399.245 162.731 396.744 166.69 394.657 169.311C392.571 171.931 391.568 159.926 392.767 155.442Z" fill="#FBCBB3"/>
<path d="M394.716 156.299C395.829 152.537 397.472 147.881 400.257 148.211C403.043 148.543 403.485 151.573 399.637 156.821C395.789 162.067 394.929 164.815 394.929 164.815C394.929 164.815 394.113 158.341 394.716 156.299" fill="#EC8162"/>
<path d="M361.158 296.384C356.977 320.643 355.106 380.264 344.9 375.778C339.309 373.302 321.91 373.391 307.345 373.955C295.368 374.431 285.304 375.238 285.304 375.238C285.304 375.238 284.61 348.299 284.88 320.783C284.996 307.642 285.342 294.371 286.085 283.843C286.329 280.382 286.496 277.06 286.586 273.882C287.522 243.147 282.406 225.274 286.085 221.734C290.15 217.824 336.617 206.092 338.861 200.578L342.297 217.028C350.81 230.595 361.862 226.53 361.862 226.53C361.862 226.53 365.325 272.138 361.158 296.384Z" fill="#7A90D1"/>
<path d="M350.224 230.955C347.978 244.403 347.363 254.923 343.503 280.757C339.643 306.59 341.455 317.262 339.776 333.519C338.096 349.778 334.854 373.863 334.854 373.863L362.723 377.936C362.723 377.936 363.66 331.265 365.115 298.413C366.57 265.559 372.004 236.414 372.004 236.414L375.736 216.471C375.736 216.471 365.431 227.427 354.782 226.299C344.131 225.17 350.224 230.955 350.224 230.955" fill="#495BB2"/>
<path d="M433.538 250.302C432.513 260.278 437.168 272.702 435.001 286.639C433.552 295.935 431.641 307.27 429.666 318.694C426.872 334.798 428.41 375.648 428.41 375.648C428.41 375.648 364.762 373.445 354.018 376.431C343.286 379.418 349.978 320.143 349.325 295.538C348.67 270.933 358.634 226.299 358.634 226.299C358.634 226.299 366.904 226.261 379.584 216.465C387.406 210.426 388.765 202.463 388.765 202.463C390.201 208.233 433.513 221.298 436.974 225.747C437.552 226.479 437.949 227.749 438.18 229.493L438.193 229.505C438.796 233.801 434.488 240.981 433.538 250.302Z" fill="#7A90D1"/>
<path d="M358.629 226.299C362.485 225.227 375.418 218.059 380.2 211.657C384.98 205.251 386.354 198.047 386.354 198.047C386.354 198.047 390.908 205.409 391.385 210.033C391.862 214.657 381.048 237.362 378.973 243.691C378.973 243.691 375.51 243.038 369.158 237.518C362.806 231.999 358.629 226.299 358.629 226.299" fill="#495BB2"/>
<path d="M340.581 199.799C340.581 199.799 338.442 202.979 343.271 210.885C348.101 218.791 358.629 226.299 358.629 226.299L341.507 242.883C341.507 242.883 337.449 233.044 335.093 224.504C332.739 215.967 333.029 206.908 334.298 204.3C335.566 201.692 340.581 199.799 340.581 199.799Z" fill="#495BB2"/>
<path d="M363.765 262.931C363.588 265.403 361.44 267.263 358.969 267.085C356.497 266.906 354.638 264.758 354.814 262.286C354.993 259.815 357.141 257.955 359.613 258.134C362.084 258.313 363.944 260.459 363.765 262.931Z" fill="#495BB2"/>
<path d="M360.312 310.882C360.135 313.353 357.985 315.213 355.515 315.035C353.043 314.857 351.184 312.709 351.361 310.237C351.539 307.766 353.688 305.906 356.159 306.085C358.632 306.262 360.489 308.41 360.312 310.882Z" fill="#495BB2"/>
<path d="M356.858 358.833C356.68 361.303 354.532 363.163 352.062 362.984C349.588 362.807 347.73 360.659 347.908 358.187C348.086 355.716 350.234 353.857 352.706 354.034C355.178 354.212 357.036 356.36 356.858 358.833" fill="#495BB2"/>
<path d="M382.648 280.697C393.754 281.633 405.91 282.918 410.501 282.474V289.502C410.501 289.502 399.378 288.298 389.766 288.298C375.852 288.298 375.852 288.298 375.852 288.298L377.062 280.697C377.062 280.697 376.913 280.213 382.648 280.697" fill="#495BB2"/>
<path d="M295.621 375.753H234.613V368.625H295.621V375.753Z" fill="#ECEEF0"/>
<path d="M295.621 375.753H374.261V368.625H295.621V375.753Z" fill="#ECEEF0"/>
<path d="M299.814 365.651V368.624H310.794V365.651H303.636H299.814Z" fill="#D7D6D7"/>
<path d="M286.084 365.651V368.624H297.064V365.651H289.905H286.084Z" fill="#D7D6D7"/>
<path d="M272.355 365.651V368.624H283.334V365.651H276.175H272.355Z" fill="#D7D6D7"/>
<path d="M258.623 365.651V368.624H269.602V365.651H262.443H258.623Z" fill="#D7D6D7"/>
<path d="M359.411 365.651H355.59V368.624H366.57V365.651H359.411Z" fill="#D7D6D7"/>
<path d="M341.859 365.651V368.624H352.838V365.651H345.679H341.859Z" fill="#D7D6D7"/>
<path d="M328.131 365.651V368.624H339.108V365.651H331.951H328.131Z" fill="#D7D6D7"/>
<path d="M314.4 365.651V368.624H325.379V365.651H318.22H314.4Z" fill="#D7D6D7"/>
<path d="M244.893 365.651V368.624H255.873V365.651H248.714H244.893Z" fill="#D7D6D7"/>
<path d="M254.397 175.864H38.8585C35.3331 175.864 32.7716 178.722 33.1361 182.246L48.2366 328.226C48.6013 331.751 51.7549 334.61 55.2804 334.61H270.819C274.344 334.61 276.906 331.751 276.542 328.226L261.441 182.246C261.077 178.722 257.922 175.864 254.397 175.864Z" fill="#FCFEFF"/>
<path d="M254.397 175.864H38.8585C35.3331 175.864 32.7716 178.722 33.1361 182.246L48.2366 328.226C48.6013 331.751 51.7549 334.61 55.2804 334.61H270.819C274.344 334.61 276.906 331.751 276.542 328.226L261.441 182.246C261.077 178.722 257.922 175.864 254.397 175.864Z" fill="#636567"/>
<path d="M250.402 175.864H34.8642C31.3387 175.864 28.7351 178.722 29.0491 182.246L42.034 328.226C42.348 331.751 45.46 334.61 48.9856 334.61H264.524C268.049 334.61 270.653 331.751 270.338 328.226L257.354 182.246C257.041 178.722 253.928 175.864 250.402 175.864Z" fill="#D7D6D7"/>
<path d="M214.157 322.833C212.763 322.833 211.533 321.702 211.409 320.309L210.342 308.325C210.219 306.932 211.249 305.802 212.641 305.802C214.034 305.802 215.265 306.932 215.389 308.325L216.454 320.309C216.579 321.702 215.55 322.833 214.157 322.833" fill="#C3C3C8"/>
<path d="M222.146 322.833C220.751 322.833 219.522 321.702 219.398 320.309L218.332 308.325C218.208 306.932 219.238 305.802 220.631 305.802C222.024 305.802 223.254 306.932 223.378 308.325L224.444 320.309C224.568 321.702 223.539 322.833 222.146 322.833" fill="#C3C3C8"/>
<path d="M230.134 322.833C228.741 322.833 227.51 321.702 227.387 320.309L226.321 308.325C226.197 306.932 227.226 305.802 228.619 305.802C230.013 305.802 231.243 306.932 231.366 308.325L232.433 320.309C232.557 321.702 231.527 322.833 230.134 322.833" fill="#C3C3C8"/>
<path d="M238.124 322.833C236.731 322.833 235.502 321.702 235.378 320.309L234.311 308.325C234.187 306.932 235.216 305.802 236.61 305.802C238.003 305.802 239.232 306.932 239.358 308.325L240.423 320.309C240.547 321.702 239.518 322.833 238.124 322.833" fill="#C3C3C8"/>
<path d="M246.113 322.833C244.719 322.833 243.49 321.702 243.365 320.309L242.299 308.325C242.175 306.932 243.205 305.802 244.598 305.802C245.991 305.802 247.221 306.932 247.346 308.325L248.411 320.309C248.535 321.702 247.506 322.833 246.113 322.833" fill="#C3C3C8"/>
<path d="M199.91 370.61H169.863V376.251L199.91 377.181V370.61Z" fill="#636567"/>
<path d="M158.724 345.274L166.391 255.235H133.303L118.971 344.369C117.022 354.672 120.21 365.59 126.619 370.558L133.968 376.251H174.698L173.97 370.61C162.118 366.107 157.324 355.194 158.724 345.274Z" fill="#636567"/>
<path d="M153.891 345.274L161.558 255.235H128.47L114.136 344.369C112.188 354.672 115.376 365.59 121.786 370.558L129.135 376.251H169.864L161.783 369.99C155.712 365.284 152.491 355.194 153.891 345.274" fill="#A1A1A0"/>
<path d="M154.585 358.017H114.451C115.707 363.271 118.253 367.819 121.786 370.558L129.135 376.251H169.865L161.783 369.99C158.39 367.359 155.889 363.045 154.585 358.017" fill="#636567"/>
<path d="M489.468 356.134C489.468 356.134 477.004 349.299 467.08 344.799C457.143 340.311 442.565 348.39 442.565 348.39C442.565 348.39 440.769 343.774 438.283 337.798C435.756 331.708 432.5 324.194 429.665 318.694C428.037 315.527 426.549 313.039 425.421 311.847C420.396 306.563 420.857 300.23 419.46 297.154C419.409 297.038 419.357 296.897 419.319 296.743C418.28 292.781 421.036 276.446 424.179 261.687C427.435 246.366 431.588 222.53 431.588 222.53C433.115 223.799 438.088 225.017 440.845 228.21C440.845 228.21 458.916 255.69 466.567 274.638C480.452 309.021 482.696 316.155 485.031 328.823C487.352 341.478 489.468 356.134 489.468 356.134" fill="#7A90D1"/>
<path d="M334.168 363.173C344.807 361.017 352.751 366.246 359.388 366.665C366.024 367.082 389.865 364.52 389.865 364.52L384.552 352.282C384.552 352.282 357.388 351.765 348.157 354.842C338.927 357.922 334.168 363.173 334.168 363.173" fill="#FBCBB3"/>
<path d="M389.964 350.553C389.964 350.553 375.795 348.072 368.991 347.875C357.5 347.544 344.569 347.601 341.943 349.778C339.317 351.955 325.567 367.5 323.721 370.057C321.876 372.617 322.756 375.524 328.484 373.501C334.212 371.479 343.701 360.555 349.46 357.991C355.217 355.426 365.9 357.644 365.9 357.644L387.08 355.613L389.964 350.553" fill="#FBCBB3"/>
<path d="M323.721 370.057C323.831 369.903 323.986 369.702 324.179 369.459C323.986 369.702 323.831 369.903 323.721 370.057Z" fill="#EBCEC9"/>
<path d="M325.226 374.179C323.578 374.179 322.856 373.391 322.854 372.336C322.852 371.643 323.162 370.833 323.722 370.056C323.832 369.903 323.987 369.702 324.18 369.459C324.547 368.996 325.054 368.383 325.66 367.663C329.363 365.154 333.212 362.912 337.178 360.895C334.986 364.569 332.355 368.967 331.531 371.892C330.438 372.612 329.412 373.174 328.484 373.5C327.14 373.975 326.064 374.179 325.226 374.179" fill="#F8B69B"/>
<path d="M375.851 351.005C375.851 351.005 356.16 349.649 350.992 349.089C345.824 348.529 341.81 352.861 338.927 357.922C336.044 362.984 330.184 371.763 331.447 374.373C332.711 376.984 335.934 376.757 338.699 373.863C341.466 370.969 345.11 363.542 349 362.13C352.891 360.718 365.9 357.644 365.9 357.644L375.851 351.005" fill="#FBCBB3"/>
<path d="M338.261 374.16C336.946 374.159 343.687 357.467 351.271 354.29C352.926 353.596 354.607 352.974 356.309 352.426C354.417 354.774 351.529 358.47 348.991 362.133C348.667 362.251 348.345 362.411 348.025 362.607C344.503 364.757 341.231 371.211 338.698 373.862C338.505 374.064 338.359 374.16 338.261 374.16Z" fill="#F8B69B"/>
<path d="M410.493 368.62C410.493 368.62 400.359 367.9 396.827 371.394C393.293 374.887 389.627 376.487 386.227 376.047C382.813 375.62 376.667 372.54 373.84 370.847C371.027 369.154 361.986 374.927 359.12 376.327C356.24 377.727 353.64 375.247 355.04 372.166C356.453 369.1 359.48 366.194 361.827 364.954C364.173 363.7 374.52 361.167 374.52 361.167L374.333 361.14L374.213 361.127C372.987 360.981 368.32 360.447 365.307 360.66C361.813 360.9 358.187 363.047 354.973 367.314C351.76 371.594 348.32 376.421 346.493 377.207C345.907 377.46 345.267 377.274 344.747 376.727C343.613 375.581 343 372.821 344.6 369.394C346.933 364.381 353.12 356.381 356.347 352.381C359.573 348.367 364.413 348.034 368.986 347.874C373.573 347.714 384.227 347.754 384.227 347.754C384.227 347.754 396.013 347.474 402.467 347.554C406.347 347.607 410.493 368.62 410.493 368.62Z" fill="#FBCBB3"/>
<path d="M396.973 371.257C399.547 368.907 405.199 368.56 408.318 368.56C409.629 368.56 410.493 368.62 410.493 368.62C410.493 368.62 406.726 349.536 403.014 347.695C406.726 349.521 410.499 368.625 410.499 368.625C410.499 368.625 409.634 368.563 408.321 368.563C405.198 368.563 399.546 368.912 396.973 371.257" fill="#9391D1"/>
<path d="M395.947 372.2C397.177 364.063 397.773 355.834 397.638 347.551C398.446 347.546 399.239 347.543 399.997 347.543C400.877 347.543 401.711 347.547 402.471 347.556C402.651 347.558 402.833 347.605 403.015 347.695C406.727 349.535 410.494 368.62 410.494 368.62C410.494 368.62 409.63 368.559 408.319 368.559C405.201 368.559 399.549 368.907 396.974 371.256C396.925 371.3 396.875 371.347 396.829 371.392C396.535 371.682 396.242 371.938 395.947 372.2" fill="#F8B69B"/>
<path d="M345.962 377.319C345.538 377.319 345.113 377.113 344.746 376.727C348.173 372.488 351.799 365.981 353.559 362.994C356.226 358.474 364.026 357.701 365.893 357.647C365.91 357.646 365.927 357.646 365.946 357.646C367.895 357.646 374.519 361.167 374.519 361.167L374.333 361.141L374.213 361.127C373.186 361.005 369.746 360.611 366.885 360.611C366.33 360.611 365.797 360.626 365.306 360.66C362.159 360.877 358.903 362.641 355.941 366.107C355.822 366.245 355.706 366.384 355.589 366.527C355.382 366.782 355.177 367.043 354.973 367.314C354.649 367.747 354.321 368.186 353.993 368.625C351.965 371.343 349.921 374.094 348.313 375.753C348.29 375.776 348.269 375.798 348.246 375.821C347.571 376.508 346.975 376.999 346.493 377.207C346.319 377.282 346.141 377.319 345.962 377.319V377.319Z" fill="#F8B69B"/>
<path d="M450.899 329.511C450.899 329.511 440.911 337.271 427.067 341.466C411.863 346.072 402.471 347.557 402.471 347.557C402.471 347.557 403.589 360.088 403.972 373.169C403.972 373.169 437.307 378.435 459.023 374.208C480.737 369.981 486.185 370.676 489.84 361.243C493.495 351.809 487.464 333.26 484.672 325.098C481.891 316.964 464.445 323.299 450.899 329.511" fill="#7A90D1"/>
<path d="M398.576 347.481C402.15 352.25 402.08 359.481 402.946 369.431C403.552 376.402 401.197 376.205 401.197 376.205L419.437 375.646C419.437 375.646 421.488 365.096 418.607 355.384C415.727 345.671 415.727 345.671 415.727 345.671L398.576 347.481" fill="#495BB2"/>
<path d="M508.758 335.924C509.178 333.194 511.295 330.798 513.954 330.049C515.917 329.496 518.279 329.678 519.667 328.185C521.211 326.522 520.574 323.905 520.541 321.638C520.477 317.146 523.527 312.78 527.767 311.294C529.623 310.644 531.735 310.458 533.215 309.165C534.739 307.834 535.185 305.694 535.783 303.762C537.297 298.886 540.341 294.498 544.378 291.374C546.061 290.072 548.197 288.942 550.238 289.542C551.834 290.012 552.995 291.502 553.389 293.118C553.781 294.736 553.495 296.453 552.929 298.017C550.745 304.06 544.607 308.256 543.269 314.541C542.607 317.649 543.222 320.926 542.537 324.03C541.751 327.585 539.183 330.697 535.842 332.141C534.203 332.848 532.285 333.261 531.227 334.697C530.01 336.349 530.443 338.636 530.182 340.672C529.622 345.029 525.401 348.409 521.013 348.625C516.625 348.842 512.375 346.276 509.922 342.63C509.922 342.63 508.339 338.655 508.758 335.924" fill="#51C061"/>
<path d="M529.177 331.567C530.757 329.61 531.071 326.714 529.944 324.463C529.112 322.802 527.537 321.324 527.693 319.471C527.863 317.412 530.017 316.235 531.564 314.866C534.628 312.152 535.695 307.418 534.093 303.652C530.72 295.718 537.992 288.668 537.311 280.24C537.155 278.31 536.604 276.176 534.948 275.171C533.651 274.386 531.935 274.516 530.605 275.246C529.276 275.974 528.296 277.22 527.588 278.562C525.376 282.764 525.277 287.383 523.795 291.776C522.391 295.938 518.916 298.035 516.453 301.524C514.541 304.234 514.023 307.875 515.101 311.01C515.631 312.547 516.531 314.092 516.213 315.686C515.847 317.519 514.041 318.631 512.832 320.057C510.243 323.11 510.556 328.024 513.104 331.112C515.651 334.2 519.987 335.486 523.948 334.899C523.948 334.899 527.596 333.524 529.177 331.567" fill="#46B15A"/>
<path d="M527.011 336.543C526.718 334.246 524.994 332.195 522.782 331.51C521.149 331.005 519.165 331.11 518.031 329.829C516.774 328.402 517.363 326.224 517.438 324.324C517.586 320.56 515.122 316.836 511.601 315.502C510.059 314.918 508.294 314.718 507.081 313.603C505.831 312.454 505.503 310.653 505.042 309.021C503.877 304.902 501.418 301.162 498.101 298.458C496.718 297.333 494.951 296.339 493.229 296.799C491.881 297.159 490.875 298.385 490.514 299.73C490.15 301.077 490.354 302.522 490.794 303.845C492.498 308.954 497.553 312.601 498.541 317.895C499.03 320.514 498.446 323.249 498.955 325.865C499.537 328.86 501.626 331.522 504.395 332.802C505.751 333.43 507.353 333.815 508.207 335.042C509.194 336.451 508.781 338.36 508.958 340.07C509.335 343.734 512.802 346.657 516.474 346.93C520.146 347.203 523.762 345.142 525.894 342.139C525.894 342.139 527.306 338.839 527.011 336.543Z" fill="#46B15A"/>
<path d="M504.161 324.766C503.623 322.927 502.209 321.478 501.437 319.725C500.074 316.631 500.876 313.002 502.254 309.914C503.278 307.621 504.64 305.309 504.472 302.803C504.366 301.229 503.661 299.769 503.191 298.262C502.074 294.674 502.303 290.826 502.542 287.075C502.689 284.798 502.846 282.473 503.725 280.366C504.603 278.261 506.354 276.378 508.598 275.969C511.676 275.406 514.674 277.826 515.824 280.733C516.973 283.641 516.71 286.893 516.357 289.999C516.001 293.106 515.581 296.309 516.447 299.314C517.433 302.726 519.967 305.477 521.317 308.763C522.985 312.821 522.682 317.637 520.519 321.453C519.426 323.379 517.883 325.082 517.217 327.193C515.818 331.627 518.64 336.201 519.21 340.815C519.573 343.743 518.933 346.894 516.986 349.113C512.53 354.183 505.217 350.672 503.603 344.988C502.754 341.994 501.837 338.35 502.286 335.266C502.791 331.79 505.213 328.362 504.161 324.766Z" fill="#51C061"/>
<path d="M534.662 376.224H505.285L495.586 329.097H544.361L534.662 376.224" fill="#D7D6D7"/>
<path d="M566 377.18V376.514H0V396.131H566.667V376.514H566V377.18H565.333V394.798H1.33333V377.847H566V377.18H565.333H566Z" fill="#D9DCF2"/>
</svg>
