<svg width="40" height="40" viewBox="0 0 40 40" fill="none" xmlns="http://www.w3.org/2000/svg">
<circle cx="20" cy="20" r="19" stroke="#333333" stroke-width="2"/>
<path d="M13.8976 16.2128C13.9074 16.1154 13.8943 16.017 13.8593 15.9256C13.8243 15.8342 13.7683 15.7523 13.696 15.6864L12.2016 13.8728V13.6016H16.84L20.4256 21.5256L23.5776 13.6016H28V13.8728L26.7224 15.1056C26.6683 15.1474 26.6265 15.2031 26.6016 15.2668C26.5766 15.3305 26.5694 15.3997 26.5808 15.4672V24.5344C26.5694 24.6018 26.5766 24.6711 26.6016 24.7348C26.6265 24.7984 26.6683 24.8542 26.7224 24.896L27.9704 26.1296V26.4016H21.6952V26.1304L22.988 24.8664C23.1152 24.7384 23.1152 24.7008 23.1152 24.5056V17.176L19.5216 26.3712H19.0368L14.8528 17.176V23.3392C14.8184 23.5976 14.904 23.8592 15.0848 24.0464L16.7656 26.1008V26.3712H12V26.1008L13.68 24.0464C13.7689 23.9536 13.8349 23.8414 13.8726 23.7186C13.9104 23.5958 13.919 23.4658 13.8976 23.3392V16.2128Z" fill="white"/>
</svg>
