<svg width="40" height="40" viewBox="0 0 40 40" fill="none" xmlns="http://www.w3.org/2000/svg">
<circle cx="20" cy="20" r="19" stroke="#333333" stroke-width="2"/>
<path d="M28.4143 15.6713C27.9657 16.3276 27.4233 16.8867 26.7871 17.3488C26.7938 17.4425 26.7972 17.5831 26.7972 17.7706C26.7972 18.6412 26.6699 19.5117 26.4155 20.3823C26.161 21.2461 25.7726 22.0765 25.2503 22.8733C24.7347 23.6702 24.1186 24.3767 23.4021 24.9927C22.6855 25.6021 21.8217 26.091 20.8105 26.4593C19.7994 26.8209 18.7179 27.0017 17.5661 27.0017C15.7514 27.0017 14.0907 26.5162 12.584 25.5452C12.8184 25.572 13.0795 25.5854 13.3675 25.5854C14.8742 25.5854 16.2168 25.1233 17.3954 24.1992C16.6922 24.1858 16.0628 23.9715 15.507 23.5564C14.9512 23.1345 14.5695 22.5988 14.3619 21.9492C14.5829 21.9827 14.7871 21.9994 14.9746 21.9994C15.2626 21.9994 15.5472 21.9626 15.8284 21.889C15.0784 21.7349 14.4556 21.3633 13.9601 20.774C13.4713 20.178 13.2268 19.4883 13.2268 18.7048V18.6646C13.6822 18.9191 14.171 19.0564 14.6934 19.0765C14.2514 18.7818 13.8998 18.3968 13.6387 17.9213C13.3775 17.4459 13.2469 16.9302 13.2469 16.3744C13.2469 15.7852 13.3943 15.2394 13.6889 14.7372C14.4992 15.7349 15.4835 16.5352 16.642 17.1378C17.8072 17.7338 19.0527 18.0653 20.3786 18.1323C20.3251 17.8778 20.2983 17.63 20.2983 17.389C20.2983 16.4916 20.613 15.7282 21.2425 15.0988C21.8786 14.4626 22.6454 14.1445 23.5427 14.1445C24.4802 14.1445 25.2704 14.486 25.9132 15.1691C26.6431 15.0285 27.3295 14.7673 27.9724 14.3856C27.7246 15.1557 27.2492 15.7517 26.546 16.1735C27.1688 16.1066 27.7916 15.9392 28.4143 15.6713Z" fill="white"/>
</svg>
