<svg width="941" height="535" viewBox="0 0 941 535" fill="none" xmlns="http://www.w3.org/2000/svg">
<path d="M750.554 209.491H940.545L909.597 231.824V275.763C909.597 280.829 905.488 284.938 900.422 284.938H750.554C745.486 284.938 741.378 280.829 741.378 275.763V218.665C741.378 213.597 745.486 209.491 750.554 209.491Z" fill="#F3F2F1"/>
<path d="M758.48 240.542C758.48 240.725 787.135 240.874 822.473 240.874C857.824 240.874 886.473 240.725 886.473 240.542C886.473 240.358 857.824 240.21 822.473 240.21C787.135 240.21 758.48 240.358 758.48 240.542Z" fill="#DADBD8"/>
<path d="M758.48 257.412C758.48 257.596 787.135 257.744 822.473 257.744C857.824 257.744 886.473 257.596 886.473 257.412C886.473 257.229 857.824 257.08 822.473 257.08C787.135 257.08 758.48 257.229 758.48 257.412Z" fill="#DADBD8"/>
<path d="M462.006 47.357H453.115V77.1396H462.006V47.357Z" fill="#DADBD8"/>
<path d="M387.742 43.0423H378.852V77.1396H387.742V43.0423Z" fill="#DADBD8"/>
<path d="M406.309 35.9356H397.417V77.1396H406.309V35.9356" fill="#DADBD8"/>
<path d="M424.875 38.1956H415.984V77.1396H424.875V38.1956Z" fill="#DADBD8"/>
<path d="M443.44 25.021H434.549V77.1396H443.44V25.021Z" fill="#DADBD8"/>
<path d="M480.572 25.2743H471.681V77.1396H480.572V25.2743" fill="#DADBD8"/>
<path d="M499.137 42.309H490.247V77.1396H499.137V42.309Z" fill="#DADBD8"/>
<path d="M517.704 27.5583H508.813V77.1396H517.704V27.5583Z" fill="#DADBD8"/>
<path d="M536.268 16.3903H527.377V77.1396H536.268V16.3903Z" fill="#DADBD8"/>
<path d="M554.834 27.305H545.944V77.1396H554.834V27.305Z" fill="#DADBD8"/>
<path d="M789.101 74.3786L862.629 63.1426C868.792 103.479 840.672 141.743 800.336 147.905C760 154.068 721.737 125.949 715.575 85.6133C709.412 45.2773 737.531 7.01461 777.867 0.850611C784.288 -0.130722 790.812 -0.266694 797.268 0.44664L789.101 74.3786Z" fill="#E7E8E5"/>
<path d="M812.959 0.682718L804.032 57.6787L859.98 47.172C859.98 47.172 851.753 15.2294 812.959 0.682718Z" fill="#DADBD8"/>
<path d="M92.212 211.773C92.0579 202.119 84.1131 194.389 74.5031 194.545C64.8917 194.7 57.1984 202.681 57.3531 212.336C57.5073 221.991 65.4516 229.72 75.0631 229.565C84.6729 229.409 92.3661 221.428 92.212 211.773V211.773ZM38.3297 212.643C38.0068 192.451 54.0973 175.757 74.1969 175.433C94.2973 175.109 110.913 191.273 111.235 211.467C111.558 231.66 95.4683 248.352 75.3683 248.676C55.2677 249 38.6521 232.836 38.3297 212.643" fill="#F3F2F1"/>
<path d="M38.3297 212.643C38.0068 192.451 54.0973 175.759 74.1969 175.433L74.5031 194.545C64.8917 194.7 57.1984 202.681 57.3531 212.336C57.5073 221.991 65.4516 229.72 75.0631 229.565L75.3683 248.676C55.2677 249 38.6527 232.836 38.3297 212.643" fill="#DADBD8"/>
<path d="M70.9238 172.494C94.4394 172.114 113.199 190.365 113.576 213.989L91.3206 214.348C91.14 203.052 82.5452 195.94 71.3014 196.122L70.9238 172.494Z" fill="#E7E8E5"/>
<path d="M275.181 396.322H228.843V341.23H275.181V396.322Z" fill="#F3F2F1"/>
<path d="M230.439 399.785H21.0171V337.64H230.439V399.785" fill="#DADBD8"/>
<path d="M276.587 342.866H224.824V337.64H276.587C278.029 337.64 279.199 338.809 279.199 340.253C279.199 341.696 278.029 342.866 276.587 342.866" fill="#DADBD8"/>
<path d="M276.587 399.785H224.824V394.56H276.587C278.029 394.56 279.199 395.729 279.199 397.173C279.199 398.616 278.029 399.785 276.587 399.785Z" fill="#DADBD8"/>
<path d="M189.23 337.64V399.785H213.973V337.64H189.23Z" fill="#E7E8E5"/>
<path d="M40.9338 338.327V400.475H65.676V338.327H40.9338" fill="#E7E8E5"/>
<path d="M275.181 350.342C275.181 350.494 265.153 350.618 252.784 350.618C240.409 350.618 230.383 350.494 230.383 350.342C230.383 350.191 240.409 350.067 252.784 350.067C265.153 350.067 275.181 350.191 275.181 350.342Z" fill="#DADBD8"/>
<path d="M275.181 358.604C275.181 358.757 265.153 358.88 252.784 358.88C240.409 358.88 230.383 358.757 230.383 358.604C230.383 358.452 240.409 358.328 252.784 358.328C265.153 358.328 275.181 358.452 275.181 358.604Z" fill="#DADBD8"/>
<path d="M275.181 368.776C275.181 368.929 265.153 369.051 252.784 369.051C240.409 369.051 230.383 368.929 230.383 368.776C230.383 368.624 240.409 368.5 252.784 368.5C265.153 368.5 275.181 368.624 275.181 368.776Z" fill="#DADBD8"/>
<path d="M275.181 378.948C275.181 379.101 265.153 379.223 252.784 379.223C240.409 379.223 230.383 379.101 230.383 378.948C230.383 378.796 240.409 378.673 252.784 378.673C265.153 378.673 275.181 378.796 275.181 378.948Z" fill="#DADBD8"/>
<path d="M275.181 389.12C275.181 389.272 265.153 389.395 252.784 389.395C240.409 389.395 230.383 389.272 230.383 389.12C230.383 388.968 240.409 388.845 252.784 388.845C265.153 388.845 275.181 388.968 275.181 389.12Z" fill="#DADBD8"/>
<path d="M175.929 374.372H81.7129V363.181H175.929V374.372" fill="#E7E8E5"/>
<path d="M274.711 434.571H227.66V401.003H274.711V434.571Z" fill="#FAFAF9"/>
<path d="M228.186 435.789H27.9514V399.785H228.186V435.789Z" fill="#F3F2F1"/>
<path d="M226.732 402.221H277.303C277.976 402.221 278.52 401.675 278.52 401.003C278.52 400.33 277.976 399.785 277.303 399.785H226.732V402.221Z" fill="#F3F2F1"/>
<path d="M226.732 435.789H277.961C278.271 435.789 278.52 435.54 278.52 435.231V433.914C278.52 433.603 278.271 433.353 277.961 433.353H226.732V435.789Z" fill="#F3F2F1"/>
<path d="M274.711 407.381C274.711 407.533 264.296 407.657 251.451 407.657C238.6 407.657 228.187 407.533 228.187 407.381C228.187 407.229 238.6 407.105 251.451 407.105C264.296 407.105 274.711 407.229 274.711 407.381Z" fill="#DADBD8"/>
<path d="M274.711 413.731C274.711 413.883 264.296 414.007 251.451 414.007C238.6 414.007 228.187 413.883 228.187 413.731C228.187 413.58 238.6 413.456 251.451 413.456C264.296 413.456 274.711 413.58 274.711 413.731Z" fill="#DADBD8"/>
<path d="M274.711 420.083C274.711 420.235 264.296 420.357 251.451 420.357C238.6 420.357 228.187 420.235 228.187 420.083C228.187 419.931 238.6 419.807 251.451 419.807C264.296 419.807 274.711 419.931 274.711 420.083Z" fill="#DADBD8"/>
<path d="M274.711 426.433C274.711 426.586 264.296 426.708 251.451 426.708C238.6 426.708 228.187 426.586 228.187 426.433C228.187 426.28 238.6 426.159 251.451 426.159C264.296 426.159 274.711 426.28 274.711 426.433Z" fill="#DADBD8"/>
<path d="M281.848 529.985H233.823V438.989H281.848V529.985Z" fill="#E7E8E5"/>
<path d="M233.823 534.453H8.39624V435.789H233.823V534.453Z" fill="#DADBD8"/>
<path d="M285.607 534.453H227.66V528.055H285.607C287.373 528.055 288.807 529.488 288.807 531.255C288.807 533.021 287.373 534.453 285.607 534.453" fill="#DADBD8"/>
<path d="M287.339 442.188H227.66V435.789H287.339C288.149 435.789 288.807 436.446 288.807 437.258V440.719C288.807 441.531 288.149 442.188 287.339 442.188" fill="#DADBD8"/>
<path d="M281.848 451.186C281.848 451.338 271.097 451.462 257.837 451.462C244.572 451.462 233.823 451.338 233.823 451.186C233.823 451.035 244.572 450.911 257.837 450.911C271.097 450.911 281.848 451.035 281.848 451.186Z" fill="#DADBD8"/>
<path d="M281.848 462.858C281.848 463.009 271.097 463.133 257.837 463.133C244.572 463.133 233.823 463.009 233.823 462.858C233.823 462.706 244.572 462.582 257.837 462.582C271.097 462.582 281.848 462.706 281.848 462.858Z" fill="#DADBD8"/>
<path d="M281.848 474.529C281.848 474.68 271.097 474.804 257.837 474.804C244.572 474.804 233.823 474.68 233.823 474.529C233.823 474.377 244.572 474.253 257.837 474.253C271.097 474.253 281.848 474.377 281.848 474.529Z" fill="#DADBD8"/>
<path d="M281.848 486.2C281.848 486.352 271.097 486.475 257.837 486.475C244.572 486.475 233.823 486.352 233.823 486.2C233.823 486.048 244.572 485.926 257.837 485.926C271.097 485.926 281.848 486.048 281.848 486.2Z" fill="#DADBD8"/>
<path d="M281.848 497.87C281.848 498.022 271.097 498.146 257.837 498.146C244.572 498.146 233.823 498.022 233.823 497.87C233.823 497.717 244.572 497.595 257.837 497.595C271.097 497.595 281.848 497.717 281.848 497.87Z" fill="#DADBD8"/>
<path d="M281.848 509.541C281.848 509.693 271.097 509.817 257.837 509.817C244.572 509.817 233.823 509.693 233.823 509.541C233.823 509.389 244.572 509.267 257.837 509.267C271.097 509.267 281.848 509.389 281.848 509.541Z" fill="#DADBD8"/>
<path d="M281.848 521.214C281.848 521.364 271.097 521.488 257.837 521.488C244.572 521.488 233.823 521.364 233.823 521.214C233.823 521.06 244.572 520.936 257.837 520.936C271.097 520.936 281.848 521.06 281.848 521.214Z" fill="#DADBD8"/>
<path d="M85.5349 490.521V496.01C85.5349 502.621 82.2296 506.399 75.8535 506.399C69.4786 506.399 66.1729 502.621 66.1729 496.01V474.523C66.1729 467.911 69.4786 464.134 75.8535 464.134C82.2296 464.134 85.5349 467.911 85.5349 474.523V478.538H79.3953V474.109C79.3953 471.158 78.0972 470.037 76.0306 470.037C73.965 470.037 72.6666 471.158 72.6666 474.109V496.423C72.6666 499.375 73.965 500.437 76.0306 500.437C78.0972 500.437 79.3953 499.375 79.3953 496.423V490.521H85.5349Z" fill="#E7E8E5"/>
<path d="M95.4469 496.423C95.4469 499.375 96.7459 500.495 98.8115 500.495C100.878 500.495 102.176 499.375 102.176 496.423V474.109C102.176 471.158 100.878 470.037 98.8115 470.037C96.7459 470.037 95.4469 471.158 95.4469 474.109V496.423ZM88.9536 474.523C88.9536 467.911 92.436 464.134 98.8115 464.134C105.186 464.134 108.67 467.911 108.67 474.523V496.01C108.67 502.621 105.186 506.399 98.8115 506.399C92.436 506.399 88.9536 502.621 88.9536 496.01V474.523" fill="#E7E8E5"/>
<path d="M112.856 464.606H119.349V500.025H130.034V505.928H112.856V464.606Z" fill="#E7E8E5"/>
<path d="M138.824 496.423C138.824 499.375 140.122 500.495 142.188 500.495C144.254 500.495 145.553 499.375 145.553 496.423V474.109C145.553 471.158 144.254 470.037 142.188 470.037C140.122 470.037 138.824 471.158 138.824 474.109V496.423ZM132.33 474.523C132.33 467.911 135.813 464.134 142.188 464.134C148.564 464.134 152.046 467.911 152.046 474.523V496.01C152.046 502.621 148.564 506.399 142.188 506.399C135.813 506.399 132.33 502.621 132.33 496.01V474.523Z" fill="#E7E8E5"/>
<path d="M162.432 464.607V496.483C162.432 499.435 163.73 500.496 165.796 500.496C167.862 500.496 169.161 499.435 169.161 496.483V464.607H175.3V496.07C175.3 502.681 171.994 506.459 165.62 506.459C159.244 506.459 155.938 502.681 155.938 496.07V464.607H162.432" fill="#E7E8E5"/>
<path d="M186.216 470.509V483.201H188.755C191.175 483.201 192.651 482.138 192.651 478.831V474.759C192.651 471.807 191.647 470.509 189.345 470.509H186.216ZM193.3 505.928C192.945 504.865 192.709 504.214 192.709 500.85V494.357C192.709 490.521 191.411 489.104 188.459 489.104H186.216V505.928H179.723V464.606H189.521C196.251 464.606 199.144 467.735 199.144 474.109V477.357C199.144 481.606 197.787 484.381 194.893 485.74C198.14 487.097 199.203 490.225 199.203 494.535V500.91C199.203 502.917 199.261 504.392 199.911 505.928H193.3" fill="#E7E8E5"/>
<path d="M84.1311 413.967H79.3953L79.6447 412.74H90.5139L90.2458 413.967H85.5297L83.0953 426.157H81.6963L84.1311 413.967Z" fill="#DADBD8"/>
<path d="M99.6323 416.073L92.2719 427.461C91.0255 429.378 90.087 429.972 88.6298 429.972C87.6912 429.972 86.7323 429.645 86.2339 429.071L86.962 428.074C87.4031 428.535 87.9781 428.804 88.7448 428.804C89.6079 428.804 90.2782 428.4 91.0646 427.173L91.7746 426.101L89.2625 416.073H90.6421L92.7312 424.66L98.2328 416.073H99.6323" fill="#DADBD8"/>
<path d="M109.461 420.331C109.461 418.355 108.253 417.186 106.144 417.186C103.634 417.186 101.794 419.16 101.794 421.92C101.794 423.896 103.001 425.047 105.11 425.047C107.621 425.047 109.461 423.072 109.461 420.331ZM110.84 420.255C110.84 423.721 108.425 426.252 105.129 426.252C103.212 426.252 101.869 425.467 101.295 424.048L100.145 429.876H98.7837L101.525 416.073H102.828L102.502 417.685C103.46 416.612 104.803 415.998 106.433 415.998C109.02 415.998 110.84 417.608 110.84 420.255Z" fill="#DADBD8"/>
<path d="M121.474 420.33C121.474 418.354 120.266 417.186 118.158 417.186C115.647 417.186 113.787 419.178 113.787 421.92C113.787 423.896 114.995 425.047 117.103 425.047C119.615 425.047 121.474 423.072 121.474 420.33ZM112.425 421.98C112.425 418.548 114.86 415.998 118.253 415.998C121.051 415.998 122.834 417.647 122.834 420.254C122.834 423.704 120.4 426.252 117.007 426.252C114.209 426.252 112.425 424.565 112.425 421.98Z" fill="#DADBD8"/>
<path d="M133.583 420.117C133.583 418.277 132.337 417.186 130.246 417.186C127.697 417.186 125.858 419.065 125.858 421.632C125.858 423.473 127.084 424.565 129.193 424.565C131.723 424.565 133.583 422.688 133.583 420.117ZM135.883 416.073L134.12 424.93C133.409 428.495 131.531 429.972 128.254 429.972C126.356 429.972 124.803 429.436 123.769 428.457L124.573 427.422C125.378 428.247 126.74 428.765 128.35 428.765C130.898 428.765 132.241 427.595 132.719 425.161L132.951 424.048C131.992 425.122 130.631 425.774 128.925 425.774C126.259 425.774 124.477 424.221 124.477 421.71C124.477 418.471 126.873 415.998 130.228 415.998C132.087 415.998 133.583 416.764 134.157 418.298L134.579 416.073H135.883" fill="#DADBD8"/>
<path d="M144.77 415.998L144.521 417.321C144.386 417.321 144.29 417.3 144.137 417.3C141.99 417.3 140.553 418.526 140.054 421.04L139.04 426.157H137.678L139.672 416.073H140.974L140.629 417.913C141.532 416.592 142.853 415.998 144.77 415.998" fill="#DADBD8"/>
<path d="M154.064 420.33C154.064 418.354 152.856 417.186 150.748 417.186C148.236 417.186 146.377 419.178 146.377 421.92C146.377 423.896 147.584 425.047 149.693 425.047C152.204 425.047 154.064 423.072 154.064 420.33ZM156.325 416.073L154.313 426.157H153.009L153.335 424.565C152.376 425.62 151.036 426.252 149.405 426.252C146.819 426.252 145.015 424.642 145.015 421.98C145.015 418.526 147.432 415.998 150.709 415.998C152.627 415.998 153.968 416.784 154.543 418.183L154.964 416.073H156.325" fill="#DADBD8"/>
<path d="M168.031 420.331C168.031 418.355 166.823 417.186 164.715 417.186C162.204 417.186 160.364 419.16 160.364 421.92C160.364 423.896 161.571 425.047 163.68 425.047C166.191 425.047 168.031 423.072 168.031 420.331ZM169.411 420.255C169.411 423.721 166.996 426.252 163.699 426.252C161.781 426.252 160.439 425.467 159.864 424.048L158.715 429.876H157.353L160.096 416.073H161.397L161.072 417.685C162.031 416.612 163.373 415.998 165.003 415.998C167.589 415.998 169.411 417.608 169.411 420.255Z" fill="#DADBD8"/>
<path d="M181.616 419.276C181.616 419.641 181.577 420.024 181.5 420.426L180.35 426.157H178.988L180.14 420.405C180.196 420.08 180.234 419.773 180.234 419.488C180.234 418.049 179.372 417.225 177.628 417.225C175.481 417.225 174.006 418.393 173.525 420.752L172.453 426.157H171.092L173.929 411.935H175.289L174.158 417.588C175.117 416.496 176.458 415.998 178.012 415.998C180.292 415.998 181.616 417.225 181.616 419.276" fill="#DADBD8"/>
<path d="M194.356 416.073L186.995 427.461C185.749 429.378 184.809 429.972 183.353 429.972C182.413 429.972 181.455 429.645 180.957 429.071L181.684 428.074C182.127 428.535 182.701 428.804 183.468 428.804C184.331 428.804 185.001 428.4 185.788 427.173L186.497 426.101L183.987 416.073H185.365L187.455 424.66L192.956 416.073H194.356" fill="#DADBD8"/>
<path d="M224.729 1.70101H20.2114L53.527 25.7424V73.0397C53.527 78.4943 57.9484 82.917 63.403 82.917H224.729C230.184 82.917 234.605 78.4943 234.605 73.0397V11.577C234.605 6.12236 230.184 1.70101 224.729 1.70101" fill="#F3F2F1"/>
<path d="M216.199 35.1274C216.199 35.3234 185.352 35.4834 147.312 35.4834C109.257 35.4834 78.4177 35.3234 78.4177 35.1274C78.4177 34.9301 109.257 34.7701 147.312 34.7701C185.352 34.7701 216.199 34.9301 216.199 35.1274" fill="#DADBD8"/>
<path d="M216.199 53.2862C216.199 53.4835 185.352 53.6436 147.312 53.6436C109.257 53.6436 78.4177 53.4835 78.4177 53.2862C78.4177 53.0889 109.257 52.9302 147.312 52.9302C185.352 52.9302 216.199 53.0889 216.199 53.2862" fill="#DADBD8"/>
<path d="M934.045 534.453C934.045 534.645 724.935 534.8 467.045 534.8C209.065 534.8 -0.000488281 534.645 -0.000488281 534.453C-0.000488281 534.262 209.065 534.105 467.045 534.105C724.935 534.105 934.045 534.262 934.045 534.453Z" fill="#17282F"/>
<path d="M846.288 466.399C846.288 466.399 810.944 425.721 797.606 385.043C784.269 344.365 790.605 349.033 790.605 349.033C790.605 349.033 808.61 388.549 822.28 407.635C835.952 426.721 860.292 454.73 860.292 454.73L846.288 466.399Z" fill="#33535F"/>
<path d="M853.332 355.371C852.192 353.384 849.156 354.418 849.498 356.682C851.653 370.97 856.312 404.5 856.128 426.248C855.89 454.499 856.137 465.42 856.137 465.42H870.848C870.848 465.42 868.236 407.017 864.912 389.212C862.582 376.727 857.634 362.867 853.332 355.371" fill="#33535F"/>
<path d="M861.351 460.671C861.351 460.671 870.609 441.205 873.459 416.752C874.671 406.352 872.509 392.298 869.295 373.544C867.737 364.458 867.384 357.545 867.435 352.752C867.473 349.13 872.253 347.946 874.025 351.106C875.8 354.273 880.939 365.097 882.244 371.881C885.805 390.398 889.84 399.657 886.755 417.225C883.668 434.794 872.272 461.858 872.272 461.858L861.351 460.671" fill="#33535F"/>
<path d="M874.601 461.858C874.601 461.858 913.406 378.465 916.097 366.093C918.785 353.721 927.93 325.211 929.006 326.826C930.082 328.439 931.696 343.499 924.704 360.714C917.709 377.927 887.852 464.399 887.852 464.399H874.601V461.858Z" fill="#33535F"/>
<path d="M857.101 458.128C857.085 458.15 856.711 457.892 856.015 457.381C855.325 456.858 854.28 456.125 853.008 455.085C850.427 453.055 846.801 449.969 842.58 445.88C834.108 437.743 823.565 425.202 814.427 409.745C805.267 394.291 799.108 379.179 795.209 368.117C793.259 362.578 791.833 358.045 790.911 354.894C790.435 353.323 790.109 352.091 789.88 351.258C789.656 350.423 789.552 349.982 789.58 349.973C789.607 349.965 789.764 350.391 790.041 351.21C790.332 352.102 790.725 353.297 791.217 354.798C792.235 357.915 793.743 362.415 795.761 367.918C799.793 378.909 806.017 393.934 815.14 409.322C824.241 424.714 834.655 437.249 842.991 445.461C847.144 449.59 850.699 452.734 853.212 454.835C854.451 455.911 855.463 456.683 856.116 457.249C856.779 457.802 857.12 458.105 857.101 458.128" fill="#17282F"/>
<path d="M861.348 418.121C861.291 418.125 861.169 417.253 861 415.673C860.816 413.947 860.575 411.698 860.284 408.989C859.669 403.347 858.711 395.566 857.34 387.02C855.963 378.47 854.433 370.78 853.251 365.23C852.676 362.568 852.2 360.356 851.833 358.66C851.5 357.105 851.341 356.24 851.397 356.226C851.453 356.213 851.716 357.05 852.148 358.581C852.583 360.11 853.156 362.337 853.821 365.102C855.153 370.628 856.777 378.32 858.159 386.888C859.533 395.454 860.401 403.268 860.868 408.933C861.103 411.765 861.256 414.06 861.321 415.649C861.392 417.237 861.405 418.117 861.348 418.121" fill="#17282F"/>
<path d="M870.437 350.452C870.464 350.441 870.621 350.808 870.896 351.512C871.191 352.297 871.577 353.326 872.059 354.609C872.572 355.953 873.161 357.61 873.724 359.574C874.301 361.534 875.048 363.741 875.611 366.252C875.917 367.504 876.237 368.813 876.572 370.173C876.897 371.54 877.128 372.984 877.427 374.466C878.059 377.428 878.451 380.638 878.923 384.008C879.68 390.769 880.095 398.254 879.848 406.107C879.533 413.961 878.584 421.4 877.341 428.09C876.632 431.419 876.011 434.593 875.167 437.501C874.764 438.959 874.431 440.383 874.007 441.721C873.577 443.055 873.163 444.337 872.767 445.564C872.028 448.029 871.124 450.177 870.408 452.089C869.707 454.008 869 455.619 868.392 456.922C867.82 458.166 867.36 459.166 867.009 459.929C866.687 460.61 866.503 460.964 866.477 460.952C866.451 460.94 866.584 460.564 866.859 459.86C867.171 459.084 867.583 458.065 868.095 456.796C868.656 455.477 869.319 453.853 869.975 451.925C870.648 450.002 871.509 447.849 872.209 445.383C872.588 444.157 872.983 442.876 873.393 441.542C873.799 440.205 874.115 438.783 874.501 437.328C875.313 434.426 875.905 431.262 876.592 427.948C877.785 421.285 878.707 413.888 879.02 406.078C879.264 398.269 878.876 390.825 878.163 384.096C877.715 380.741 877.352 377.544 876.751 374.592C876.469 373.112 876.255 371.672 875.947 370.309C875.632 368.949 875.329 367.642 875.041 366.392C874.519 363.882 873.813 361.672 873.28 359.709C872.763 357.737 872.219 356.07 871.753 354.714C871.332 353.412 870.996 352.366 870.739 351.569C870.516 350.846 870.411 350.462 870.437 350.452" fill="#17282F"/>
<path d="M928.561 328.501C928.576 328.504 928.565 328.63 928.532 328.876C928.485 329.168 928.427 329.524 928.359 329.958C928.188 330.908 927.973 332.317 927.595 334.109C926.844 337.697 925.597 342.86 923.656 349.122C921.721 355.388 919.071 362.733 915.928 370.802C912.797 378.877 909.157 387.672 905.712 397.036C902.215 406.385 899.52 415.507 896.988 423.788C894.479 432.074 892.097 439.51 889.797 445.652C887.519 451.8 885.325 456.642 883.669 459.912C882.875 461.564 882.16 462.797 881.7 463.643C881.483 464.026 881.304 464.34 881.156 464.598C881.031 464.81 880.96 464.916 880.947 464.909C880.935 464.901 880.98 464.782 881.083 464.557C881.208 464.289 881.364 463.964 881.552 463.565C881.964 462.694 882.632 461.441 883.379 459.771C884.941 456.466 887.045 451.606 889.247 445.449C891.471 439.3 893.788 431.864 896.257 423.566C898.748 415.28 901.427 406.125 904.935 396.75C908.388 387.364 912.049 378.576 915.216 370.524C918.396 362.478 921.096 355.172 923.096 348.945C925.103 342.722 926.435 337.598 927.279 334.04C927.707 332.262 927.972 330.865 928.195 329.928C928.296 329.498 928.379 329.149 928.447 328.86C928.509 328.62 928.547 328.498 928.561 328.501" fill="#17282F"/>
<path d="M808.901 310.081C806.456 307.651 802.389 310.191 803.401 313.487C804.427 316.829 805.983 321.15 808.277 326.026C813.612 337.363 829.283 378.042 836.619 400.381C843.955 422.719 854.291 464.399 854.291 464.399L869.955 461.858C869.955 461.858 855.624 393.378 841.62 368.706C830.368 348.881 819.116 320.229 808.901 310.081" fill="#33535F"/>
<path d="M840.905 414.353C840.96 414.335 841.244 415.003 841.712 416.231C842.176 417.46 842.808 419.253 843.518 421.491C844.961 425.959 846.726 432.2 848.505 439.134C850.278 446.071 851.757 452.381 852.788 456.955C853.258 459.12 853.653 460.938 853.966 462.384C854.228 463.668 854.345 464.386 854.289 464.4C854.234 464.414 854.01 463.722 853.653 462.459C853.27 461.031 852.79 459.234 852.217 457.093C851.02 452.381 849.444 446.19 847.702 439.339C845.926 432.414 844.255 426.16 842.957 421.66C842.339 419.536 841.82 417.752 841.406 416.334C841.033 415.077 840.852 414.374 840.905 414.353" fill="#17282F"/>
<path d="M862.159 463.129C862.145 463.13 862.115 462.989 862.071 462.712C862.024 462.385 861.965 461.98 861.893 461.477C861.728 460.394 861.583 458.786 861.252 456.733C860.677 452.618 859.649 446.689 857.968 439.455C856.296 432.219 853.856 423.708 850.636 414.43C847.423 405.15 843.392 395.122 838.825 384.745C829.609 364.013 820.404 345.625 814.355 332.029C811.297 325.246 808.929 319.709 807.371 315.852C806.575 313.929 806.007 312.417 805.608 311.396C805.432 310.92 805.289 310.537 805.175 310.228C805.081 309.962 805.039 309.825 805.052 309.82C805.065 309.814 805.133 309.941 805.253 310.196C805.388 310.496 805.556 310.87 805.763 311.332C806.224 312.396 806.861 313.864 807.668 315.725C809.317 319.542 811.764 325.04 814.887 331.785C821.068 345.309 830.355 363.648 839.584 384.41C844.157 394.804 848.176 404.862 851.357 414.181C854.547 423.497 856.935 432.05 858.539 439.325C860.153 446.596 861.093 452.555 861.572 456.692C861.853 458.754 861.948 460.37 862.059 461.46C862.097 461.966 862.129 462.376 862.155 462.702C862.172 462.984 862.173 463.128 862.159 463.129" fill="#17282F"/>
<path d="M869.955 461.858C869.897 461.866 869.712 460.929 869.427 459.226C869.115 457.386 868.705 454.959 868.208 452.025C867.128 445.955 865.48 437.597 863.109 428.498C860.764 419.39 858.121 411.29 856.088 405.471C855.089 402.667 854.262 400.349 853.638 398.592C853.05 396.969 852.752 396.061 852.805 396.041C852.858 396.018 853.258 396.885 853.937 398.474C854.613 400.064 855.556 402.378 856.638 405.271C858.816 411.05 861.557 419.153 863.912 428.29C866.289 437.419 867.852 445.825 868.785 451.93C869.231 454.988 869.573 457.462 869.747 459.182C869.933 460.898 870.012 461.852 869.955 461.858" fill="#17282F"/>
<path d="M840.963 534.104H902.105V459.607H840.963V534.104Z" fill="#F2575D"/>
<path d="M840.963 534.104H902.105V459.607H840.963V534.104Z" fill="#CC4341"/>
<path d="M882.601 534.105H828.356V459.608H882.601V534.105Z" fill="#F2575D"/>
<path d="M87.7244 433.709C77.3086 427.039 62.8733 426.912 52.7373 433.996C43.1134 440.724 38.2274 452.968 38.652 464.702C39.0764 476.436 44.7638 490.772 55.3946 496.938L86.5993 496.815C96.5629 489.488 103.3 477.684 103.77 465.325C104.24 452.967 98.1389 440.38 87.7244 433.709" fill="#33535F"/>
<path d="M72.3603 498.069C72.292 498.069 72.2249 497.114 72.1635 495.384C72.1097 493.465 72.04 491.008 71.9567 488.065C71.7983 481.886 71.5556 473.355 71.1425 463.936C70.7269 454.514 70.2196 445.992 69.8343 439.822C69.6592 436.883 69.5124 434.431 69.3977 432.514C69.3083 430.786 69.29 429.828 69.3583 429.822C69.4275 429.817 69.575 430.764 69.7848 432.481C69.9968 434.198 70.2545 436.688 70.5368 439.769C71.102 445.929 71.7217 454.457 72.1373 463.891C72.5509 473.324 72.6832 481.872 72.6603 488.057C72.6504 491.152 72.6114 493.655 72.5515 495.384C72.4936 497.114 72.4291 498.069 72.3603 498.069" fill="#17282F"/>
<path d="M41.7973 462.043C41.7745 462.318 40.0791 462.402 38.0109 462.233C35.9417 462.062 34.2827 461.704 34.3057 461.429C34.3286 461.155 36.0229 461.07 38.0921 461.24C40.1603 461.409 41.8197 461.77 41.7973 462.043" fill="#17282F"/>
<path d="M42.3787 451.516C42.2667 451.768 40.8042 451.362 39.1126 450.612C37.4198 449.861 36.1375 449.049 36.2495 448.797C36.361 448.547 37.8235 448.95 39.5162 449.703C41.2079 450.452 42.4902 451.265 42.3787 451.516Z" fill="#17282F"/>
<path d="M47.7956 443.702C47.6528 443.93 46.0086 443.155 44.3003 441.736C42.5867 440.323 41.5186 438.852 41.717 438.67C41.9211 438.477 43.2763 439.602 44.9352 440.97C46.5878 442.342 47.9462 443.464 47.7956 443.702Z" fill="#17282F"/>
<path d="M53.2435 436.328C52.9925 436.438 52.2045 435.208 51.4847 433.579C50.7638 431.947 50.3842 430.537 50.6358 430.425C50.8873 430.314 51.6753 431.545 52.3951 433.174C53.1154 434.805 53.4957 436.216 53.2435 436.328" fill="#17282F"/>
<path d="M61.7905 431.096C61.5457 431.21 60.6967 429.9 60.1342 428.083C59.5665 426.268 59.5222 424.708 59.7894 424.661C60.0643 424.613 60.5383 426.041 61.0862 427.786C61.6258 429.536 62.0451 430.98 61.7905 431.096" fill="#17282F"/>
<path d="M76.054 425.198C76.3139 425.289 76.1551 426.409 75.7009 427.698C75.2457 428.988 74.6671 429.957 74.4072 429.866C74.1477 429.774 74.3061 428.655 74.7613 427.366C75.2155 426.077 75.7952 425.106 76.054 425.198Z" fill="#17282F"/>
<path d="M86.6344 429.738C86.8208 429.94 86.1421 430.873 85.1188 431.819C84.0948 432.768 83.1136 433.371 82.926 433.169C82.739 432.968 83.4182 432.036 84.4421 431.088C85.4656 430.141 86.4473 429.537 86.6344 429.738Z" fill="#17282F"/>
<path d="M95.9488 435.752C96.1029 435.98 95.2749 436.81 94.1004 437.605C92.9249 438.402 91.8472 438.862 91.693 438.636C91.5389 438.407 92.366 437.577 93.542 436.781C94.7165 435.985 95.7946 435.525 95.9488 435.752" fill="#17282F"/>
<path d="M102.561 444.72C102.67 444.974 101.365 445.772 99.6478 446.505C97.9311 447.237 96.452 447.625 96.3442 447.373C96.2359 447.12 97.5406 446.321 99.2572 445.589C100.974 444.857 102.454 444.468 102.561 444.72" fill="#17282F"/>
<path d="M105.165 454.501C105.199 454.773 103.873 455.162 102.202 455.37C100.53 455.577 99.1492 455.524 99.1154 455.25C99.0815 454.978 100.408 454.589 102.08 454.382C103.75 454.174 105.132 454.228 105.165 454.501" fill="#17282F"/>
<path d="M106.521 466.541C106.411 466.793 104.997 466.422 103.363 465.712C101.728 465 100.493 464.22 100.602 463.968C100.712 463.716 102.126 464.088 103.761 464.797C105.395 465.508 106.63 466.289 106.521 466.541Z" fill="#17282F"/>
<path d="M105.327 476.872C105.241 477.122 103.453 476.697 101.585 475.47C99.7103 474.252 98.6035 472.785 98.7988 472.605C99.0015 472.405 100.359 473.488 102.13 474.637C103.892 475.797 105.429 476.605 105.327 476.872Z" fill="#17282F"/>
<path d="M99.9489 486.277C99.7849 486.492 98.3615 485.656 96.9964 484.18C95.6255 482.709 94.8973 481.229 95.1224 481.081C95.3547 480.924 96.4136 482.096 97.726 483.501C99.0323 484.915 100.123 486.057 99.9489 486.277" fill="#17282F"/>
<path d="M48.8711 487.383C48.9987 487.626 47.5039 488.656 45.5347 489.681C43.5638 490.708 41.8638 491.34 41.7373 491.098C41.6102 490.852 43.1034 489.824 45.0743 488.798C47.0446 487.772 48.7451 487.139 48.8711 487.383Z" fill="#17282F"/>
<path d="M44.2067 478.874C44.3196 479.125 43.1212 479.913 41.5301 480.634C39.9384 481.357 38.5561 481.738 38.4431 481.487C38.3291 481.237 39.5269 480.449 41.1187 479.726C42.7103 479.005 44.0925 478.623 44.2067 478.874Z" fill="#17282F"/>
<path d="M40.7765 471.34C40.8145 471.612 39.3401 472.048 37.4827 472.312C35.6245 472.575 34.0874 472.567 34.0489 472.295C34.0098 472.023 35.4849 471.588 37.3426 471.325C39.201 471.061 40.7379 471.068 40.7765 471.34" fill="#17282F"/>
<path d="M52.0254 467.188C52.1078 467.443 50.6687 468.115 48.7504 468.328C46.8311 468.549 45.2796 468.216 45.3015 467.947C45.3207 467.665 46.8212 467.549 48.6384 467.339C50.4551 467.139 51.9447 466.917 52.0254 467.188" fill="#17282F"/>
<path d="M61.3708 457.888C61.4521 458.147 60.3068 458.726 58.7625 458.875C57.2182 459.029 55.9828 458.684 56.0125 458.416C56.0385 458.138 57.2302 458.029 58.665 457.883C60.1005 457.747 61.2906 457.62 61.3708 457.888Z" fill="#17282F"/>
<path d="M63.1568 450.44C63.0667 450.702 61.8271 450.508 60.3885 450.01C58.9495 449.514 57.8557 448.898 57.9459 448.64C58.0355 448.38 59.2751 448.572 60.714 449.069C62.1527 449.567 63.2464 450.18 63.1568 450.44" fill="#17282F"/>
<path d="M66.5821 442.908C66.3916 443.098 65.5395 442.537 64.9327 441.481C64.3217 440.426 64.2624 439.408 64.5228 439.337C64.7925 439.261 65.2509 440.049 65.7957 440.982C66.3321 441.922 66.7848 442.714 66.5821 442.908" fill="#17282F"/>
<path d="M62.4526 473.748C62.5177 474.014 61.4442 474.507 60.0557 474.847C59.2535 475.043 58.5213 475.145 58.0411 475.143L57.8447 474.561C58.2041 474.496 58.4363 474.512 58.4827 474.617C58.5297 474.724 58.3833 474.905 58.0921 475.125L57.8953 474.545C58.3197 474.322 59.0166 474.074 59.8193 473.879C61.2078 473.54 62.3869 473.481 62.4526 473.748" fill="#17282F"/>
<path d="M64.378 486.953C64.478 487.209 63.1097 487.986 61.3217 488.69C59.5327 489.392 58.0015 489.755 57.9004 489.497C57.8004 489.243 59.1681 488.465 60.9572 487.762C62.7457 487.059 64.2769 486.697 64.378 486.953" fill="#17282F"/>
<path d="M53.8213 481.087C53.9098 481.348 52.9969 481.893 51.7828 482.307C50.5682 482.719 49.512 482.844 49.4234 482.584C49.3349 482.324 50.2469 481.776 51.462 481.364C52.676 480.951 53.7328 480.827 53.8213 481.087Z" fill="#17282F"/>
<path d="M54.6285 454.206C54.5654 454.469 52.9758 454.311 51.14 453.659C49.3029 453.01 47.9692 452.131 48.0862 451.887C48.205 451.635 49.6889 452.09 51.4728 452.719C53.2545 453.354 54.6946 453.935 54.6285 454.206" fill="#17282F"/>
<path d="M80.175 451.284C80.326 451.513 79.4312 452.371 78.1765 453.198C76.9208 454.026 75.7806 454.51 75.6292 454.281C75.4781 454.05 76.3729 453.195 77.6281 452.366C78.8833 451.54 80.0229 451.053 80.175 451.284" fill="#17282F"/>
<path d="M81.5635 464.546C81.6192 464.815 80.6785 465.238 79.4629 465.491C78.2477 465.743 77.2165 465.728 77.1603 465.459C77.1051 465.191 78.0452 464.769 79.2608 464.515C80.4769 464.263 81.5072 464.276 81.5635 464.546Z" fill="#17282F"/>
<path d="M83.1776 479.457C83.062 479.706 81.7078 479.325 80.1541 478.605C78.5994 477.885 77.4333 477.099 77.5484 476.85C77.6636 476.601 79.0177 476.982 80.5724 477.702C82.1265 478.421 83.2932 479.207 83.1776 479.457" fill="#17282F"/>
<path d="M79.7613 493.974C79.5483 494.15 78.6696 493.431 77.7977 492.369C76.9253 491.308 76.391 490.307 76.6034 490.131C76.816 489.956 77.6957 490.674 78.5671 491.737C79.4389 492.798 79.9733 493.8 79.7613 493.974Z" fill="#17282F"/>
<path d="M79.063 441.519C79.2306 441.731 78.6504 442.463 77.6545 442.96C76.6603 443.461 75.727 443.491 75.6567 443.228C75.5816 442.959 76.3108 442.524 77.2078 442.069C78.1078 441.621 78.8926 441.297 79.063 441.519" fill="#17282F"/>
<path d="M91.581 454.894C91.6728 455.149 90.5138 455.785 88.9301 456.002C87.3452 456.226 86.0577 455.929 86.0764 455.659C86.0916 455.381 87.3165 455.225 88.7925 455.016C90.2692 454.816 91.4905 454.629 91.581 454.894Z" fill="#17282F"/>
<path d="M89.0868 442.886C89.2087 443.129 88.0587 443.949 86.4234 444.469C84.7895 444.994 83.3764 444.993 83.3368 444.726C83.292 444.449 84.5671 444.021 86.1202 443.519C87.675 443.026 88.963 442.637 89.0868 442.886" fill="#17282F"/>
<path d="M94.314 473.492C94.3104 473.76 92.3443 473.935 89.9719 473.498C87.5973 473.074 85.8172 472.219 85.9084 471.968C86 471.702 87.8598 472.108 90.1494 472.519C92.4364 472.939 94.3224 473.209 94.314 473.492" fill="#17282F"/>
<path d="M89.6623 490.934C89.4967 491.147 88.0482 490.294 86.6045 488.84C85.155 487.387 84.3091 485.937 84.5238 485.771C84.7441 485.599 85.9091 486.734 87.3102 488.137C88.7061 489.545 89.8353 490.714 89.6623 490.934Z" fill="#17282F"/>
<path d="M69.2073 428.694C69.3551 428.908 65.2359 430.578 60.475 435.596C55.7166 440.501 50.8067 449.167 49.5978 459.638C49.0193 464.841 49.5161 469.877 50.2541 474.37C51.0317 478.869 52.063 482.864 53.0135 486.192C53.9693 489.519 54.8473 492.186 55.4363 494.036C56.0275 495.882 56.3431 496.912 56.2754 496.937C56.2139 496.958 55.7754 495.976 55.0713 494.164C54.3687 492.353 53.3863 489.716 52.3395 486.394C51.2973 483.076 50.1863 479.069 49.3499 474.528C48.5535 469.99 48.0145 464.874 48.6087 459.523C49.8431 448.812 54.9811 439.985 59.9682 435.105C62.4494 432.626 64.7817 430.973 66.4827 430.014C67.3083 429.493 68.0218 429.214 68.477 428.98C68.9417 428.762 69.1921 428.662 69.2073 428.694" fill="#17282F"/>
<path d="M82.7906 497.576C82.5744 497.469 85.0291 493.69 87.2676 486.879C89.5734 480.152 91.4802 470.19 89.9447 459.37C89.2259 453.975 87.6655 448.975 85.7026 444.702C83.665 440.487 81.039 437.035 78.4696 434.627C75.813 432.277 73.2026 430.93 71.3822 430.148C69.5406 429.381 68.4368 429.2 68.4526 429.115C68.4578 429.084 68.7374 429.099 69.2666 429.179C69.7911 429.275 70.5635 429.448 71.5223 429.786C73.4254 430.474 76.1291 431.741 78.9343 434.098C81.6666 436.536 84.378 439.981 86.5306 444.304C88.5843 448.652 90.1972 453.734 90.9311 459.231C92.4942 470.253 90.4354 480.369 87.9332 487.108C87.3707 488.828 86.6468 490.304 86.1072 491.631C85.4655 492.916 84.9363 494.034 84.4499 494.917C83.4363 496.664 82.8504 497.61 82.7906 497.576Z" fill="#17282F"/>
<path d="M44.2068 495.219H99.1156L99.4527 506.21H44.2068V495.219Z" fill="#F2575D"/>
<path d="M48.8713 500.716L52.0255 534.265H92.1683L95.3921 501.083L48.8713 500.716" fill="#F2575D"/>
<path d="M99.4526 506.342C99.4526 506.617 87.0874 506.84 71.8379 506.84C56.5827 506.84 44.2202 506.617 44.2202 506.342C44.2202 506.066 56.5827 505.843 71.8379 505.843C87.0874 505.843 99.4526 506.066 99.4526 506.342Z" fill="#17282F"/>
<path d="M93.8734 516.561C93.9264 516.594 93.5562 517.365 92.6972 518.658C91.8354 519.943 90.465 521.75 88.4384 523.686L88.1859 523.929L87.9363 523.666C85.2926 520.892 81.6598 517.493 77.1754 514.246L77.7827 514.219C76.2499 515.565 74.652 516.968 73.0119 518.407C71.0619 520.105 69.1728 521.75 67.3718 523.318L67.0603 523.59L66.7468 523.326C63.3275 520.452 60.2182 517.837 57.5791 515.618L58.113 515.561C56.2192 517.871 54.6286 519.813 53.3692 521.347C52.2275 522.704 51.566 523.433 51.5072 523.386C51.4483 523.34 51.9983 522.524 53.04 521.09C54.2296 519.5 55.7322 517.492 57.5223 515.098L57.751 514.792L58.0562 515.041C60.7348 517.212 63.8911 519.77 67.3608 522.583L66.7374 522.593C68.5316 521.017 70.4135 519.364 72.3556 517.658C74.0015 516.224 75.6035 514.826 77.142 513.488L77.4363 513.23L77.7499 513.461C82.2696 516.782 85.8848 520.297 88.4587 523.185L87.9567 523.164C92.0302 519.469 93.7155 516.441 93.8734 516.561" fill="#17282F"/>
<path d="M753.627 525.056H172.399C161.672 525.056 152.976 516.361 152.976 505.633V134.431C152.976 123.704 161.672 115.008 172.399 115.008H753.627C764.353 115.008 773.049 123.704 773.049 134.431V505.633C773.049 516.361 764.353 525.056 753.627 525.056Z" fill="#33535F"/>
<path d="M780.749 534.453H156.405C143.3 534.453 132.675 523.828 132.675 510.722V498.575H804.48V510.722C804.48 523.828 793.855 534.453 780.749 534.453Z" fill="#33535F"/>
<path d="M401.885 494.729L410.223 507.99H527.528L535.268 494.729H401.885Z" fill="#17282F"/>
<path d="M767.721 494.728C767.721 494.951 630.094 495.131 460.362 495.131C290.572 495.131 152.976 494.951 152.976 494.728C152.976 494.507 290.572 494.327 460.362 494.327C630.094 494.327 767.721 494.507 767.721 494.728Z" fill="#17282F"/>
<path d="M748.503 483.886H175.097C172.687 483.886 170.732 481.933 170.732 479.522V142.95C170.732 140.539 172.685 138.586 175.096 138.586H748.503C750.913 138.586 752.867 140.539 752.867 142.95V479.523C752.867 481.933 750.913 483.886 748.503 483.886Z" fill="#E7E8E5"/>
<path d="M752.244 484.392H170.109L170.732 164.391H752.244V484.392Z" fill="white"/>
<path d="M218.476 151.923C218.476 154.491 216.394 156.572 213.826 156.572C211.26 156.572 209.178 154.491 209.178 151.923C209.178 149.355 211.26 147.274 213.826 147.274C216.394 147.274 218.476 149.355 218.476 151.923Z" fill="#17282F"/>
<path d="M190.299 151.923C190.299 154.491 188.219 156.572 185.649 156.572C183.083 156.572 181 154.491 181 151.923C181 149.355 183.083 147.274 185.649 147.274C188.219 147.274 190.299 149.355 190.299 151.923Z" fill="#17282F"/>
<path d="M203.824 151.923C203.824 154.491 201.742 156.572 199.174 156.572C196.606 156.572 194.525 154.491 194.525 151.923C194.525 149.355 196.606 147.274 199.174 147.274C201.742 147.274 203.824 149.355 203.824 151.923Z" fill="#17282F"/>
<path d="M752.866 484.392H170.109V453.493H752.866V484.392Z" fill="#17282F"/>
<path d="M192.125 472.519V473.508H187.485V472.725L189.987 470.35C190.597 469.768 190.705 469.397 190.705 469.048C190.705 468.473 190.309 468.14 189.536 468.14C188.924 468.14 188.411 468.345 188.061 468.796L187.243 468.165C187.728 467.509 188.601 467.122 189.635 467.122C191.001 467.122 191.883 467.814 191.883 468.931C191.883 469.541 191.713 470.1 190.84 470.919L189.159 472.519H192.125" fill="white"/>
<path d="M192.759 472.825C192.759 472.374 193.091 472.078 193.495 472.078C193.9 472.078 194.233 472.374 194.233 472.825C194.233 473.255 193.9 473.57 193.495 473.57C193.091 473.57 192.759 473.255 192.759 472.825ZM192.759 469.397C192.759 468.947 193.091 468.652 193.495 468.652C193.9 468.652 194.233 468.947 194.233 469.397C194.233 469.828 193.9 470.143 193.495 470.143C193.091 470.143 192.759 469.828 192.759 469.397Z" fill="white"/>
<path d="M197.161 467.212V473.508H195.993V468.193H194.663V467.212H197.161Z" fill="white"/>
<path d="M204.021 472.079H202.905V473.508H201.772V472.079H198.319V471.269L201.421 467.212H202.672L199.748 471.089H201.808V469.821H202.905V471.089H204.021V472.079Z" fill="white"/>
<path d="M691.957 471.738H214.307V469.561H691.957V471.738Z" fill="white"/>
<path d="M363.215 473.023H213.949V467.216H363.215V473.023Z" fill="#F2575D"/>
<path d="M368.033 470.652C368.033 474.664 364.78 477.919 360.767 477.919C356.753 477.919 353.499 474.664 353.499 470.652C353.499 466.639 356.753 463.384 360.767 463.384C364.78 463.384 368.033 466.639 368.033 470.652Z" fill="#F2575D"/>
<path d="M702.855 470.635C702.855 469.979 702.36 469.565 701.596 469.565C700.84 469.565 700.319 470.024 700.319 470.645C700.319 471.237 700.785 471.705 701.623 471.705C702.351 471.705 702.855 471.291 702.855 470.635ZM703.987 470.58C703.987 471.832 702.971 472.624 701.685 472.624C699.968 472.624 698.96 471.517 698.96 469.493C698.96 467.333 700.219 466.148 702.044 466.148C702.675 466.148 703.277 466.281 703.7 466.551L703.268 467.433C702.927 467.208 702.513 467.127 702.072 467.127C700.884 467.127 700.139 467.865 700.139 469.295V469.305C700.516 468.864 701.119 468.648 701.82 468.648C703.061 468.648 703.987 469.403 703.987 470.58" fill="white"/>
<path d="M704.556 471.849C704.556 471.398 704.887 471.104 705.293 471.104C705.697 471.104 706.031 471.398 706.031 471.849C706.031 472.28 705.697 472.596 705.293 472.596C704.887 472.596 704.556 472.28 704.556 471.849ZM704.556 468.422C704.556 467.973 704.887 467.674 705.293 467.674C705.697 467.674 706.031 467.973 706.031 468.422C706.031 468.853 705.697 469.168 705.293 469.168C704.887 469.168 704.556 468.853 704.556 468.422Z" fill="white"/>
<path d="M710.867 469.385C710.867 467.865 710.273 467.163 709.409 467.163C708.555 467.163 707.961 467.865 707.961 469.385C707.961 470.905 708.555 471.605 709.409 471.605C710.273 471.605 710.867 470.905 710.867 469.385ZM706.783 469.385C706.783 467.317 707.916 466.148 709.409 466.148C710.912 466.148 712.044 467.317 712.044 469.385C712.044 471.452 710.912 472.624 709.409 472.624C707.916 472.624 706.783 471.452 706.783 469.385Z" fill="white"/>
<path d="M716.912 469.385C716.912 467.865 716.32 467.163 715.455 467.163C714.6 467.163 714.007 467.865 714.007 469.385C714.007 470.905 714.6 471.605 715.455 471.605C716.32 471.605 716.912 470.905 716.912 469.385ZM712.828 469.385C712.828 467.317 713.961 466.148 715.455 466.148C716.957 466.148 718.091 467.317 718.091 469.385C718.091 471.452 716.957 472.624 715.455 472.624C713.961 472.624 712.828 471.452 712.828 469.385Z" fill="white"/>
<path d="M728.261 468.993H726.084V462.716H732.349V464.893H728.261V468.993" fill="white"/>
<path d="M732.354 477.188H726.077V470.922H728.254V475.009H732.354V477.188" fill="white"/>
<path d="M742.353 477.188H736.086V475.009H740.174V470.907H742.353V477.188Z" fill="white"/>
<path d="M742.358 468.981H740.181V464.893H736.081V462.716H742.358V468.981Z" fill="white"/>
<path d="M249.938 183.42H215.626L198.47 213.135L215.626 242.85H249.938L267.094 213.135L249.938 183.42Z" fill="#E7E8E5"/>
<path d="M218.427 218.95C216.893 217.253 215.347 215.537 214.229 213.542C213.112 211.546 212.445 209.217 212.816 206.96C213.032 205.64 213.593 204.382 213.681 203.048C213.804 201.212 213.032 199.293 213.684 197.572C214.701 194.881 218.323 194.465 220.519 192.606C222.228 191.16 223.061 188.81 224.941 187.593C226.585 186.529 228.696 186.552 230.633 186.826C232.572 187.101 234.521 187.59 236.461 187.329C237.844 187.142 239.147 186.584 240.501 186.248C241.855 185.913 243.367 185.825 244.572 186.525C245.779 187.226 246.456 188.938 245.665 190.089C247.913 189.052 250.768 190.804 251.384 193.201C251.999 195.6 250.767 198.189 248.863 199.77C246.959 201.352 244.495 202.086 242.063 202.545C235.176 203.844 227.705 203.11 221.771 199.384" fill="#17282F"/>
<path d="M250.239 226.284C250.008 222.031 248.817 213.314 247.649 205.434C246.392 196.959 238.84 190.87 230.292 191.44L229.443 191.498C220.321 192.646 216.2 201.032 217.599 210.119L220.277 242.85H242.537L242.008 237.051C242.008 237.051 250.719 235.094 250.239 226.284Z" fill="#F8A58D"/>
<path d="M242.013 236.923C242.013 236.923 236.483 237.747 230.321 234.43C230.321 234.43 233.457 240.582 242.187 239.202L242.013 236.923Z" fill="#F68260"/>
<path d="M244.816 212.984C244.883 213.645 244.379 214.249 243.688 214.332C242.999 214.416 242.385 213.948 242.317 213.287C242.249 212.624 242.753 212.02 243.443 211.936C244.132 211.853 244.748 212.321 244.816 212.984Z" fill="#17282F"/>
<path d="M246.044 209.86C245.9 210.035 244.9 209.393 243.548 209.488C242.196 209.563 241.249 210.325 241.092 210.169C241.015 210.101 241.153 209.795 241.565 209.451C241.969 209.108 242.675 208.756 243.517 208.703C244.36 208.651 245.089 208.913 245.517 209.204C245.956 209.495 246.116 209.783 246.044 209.86" fill="#17282F"/>
<path d="M232.038 213.897C232.106 214.558 231.601 215.162 230.91 215.245C230.222 215.329 229.608 214.861 229.54 214.2C229.472 213.537 229.977 212.933 230.665 212.849C231.356 212.766 231.97 213.234 232.038 213.897Z" fill="#17282F"/>
<path d="M232.765 211.002C232.621 211.177 231.621 210.535 230.269 210.63C228.917 210.703 227.971 211.466 227.813 211.31C227.736 211.242 227.875 210.935 228.287 210.591C228.691 210.25 229.396 209.897 230.239 209.843C231.081 209.793 231.811 210.054 232.24 210.345C232.676 210.637 232.837 210.923 232.765 211.002Z" fill="#17282F"/>
<path d="M238.347 220.706C238.335 220.628 239.165 220.427 240.516 220.162C240.859 220.103 241.181 220.012 241.224 219.772C241.288 219.518 241.119 219.155 240.925 218.764C240.544 217.951 240.145 217.098 239.728 216.203C238.059 212.554 236.825 209.543 236.973 209.478C237.121 209.411 238.593 212.316 240.263 215.966C240.665 216.866 241.051 217.724 241.417 218.546C241.575 218.93 241.829 219.359 241.687 219.888C241.612 220.154 241.371 220.358 241.153 220.432C240.936 220.515 240.743 220.531 240.572 220.552C239.207 220.718 238.356 220.782 238.347 220.706Z" fill="#17282F"/>
<path d="M232.761 205.678C232.652 206.054 231.291 205.97 229.716 206.269C228.136 206.534 226.888 207.083 226.655 206.769C226.551 206.617 226.751 206.255 227.244 205.865C227.733 205.475 228.529 205.082 229.475 204.913C230.42 204.745 231.303 204.838 231.896 205.034C232.493 205.23 232.807 205.499 232.761 205.678" fill="#17282F"/>
<path d="M245.285 205.98C245.068 206.303 244.115 206.047 242.993 206.105C241.871 206.127 240.937 206.451 240.699 206.144C240.592 205.995 240.72 205.677 241.116 205.359C241.505 205.041 242.172 204.759 242.944 204.731C243.715 204.704 244.401 204.937 244.812 205.225C245.229 205.515 245.38 205.823 245.285 205.98Z" fill="#17282F"/>
<path d="M218.755 216.588C218.6 216.532 212.587 215.204 213.181 221.208C213.776 227.212 220.284 225.255 220.277 225.081C220.269 224.909 218.755 216.588 218.755 216.588" fill="#F8A58D"/>
<path d="M217.616 223.109C217.588 223.093 217.519 223.193 217.349 223.292C217.185 223.388 216.895 223.472 216.569 223.385C215.912 223.215 215.279 222.261 215.141 221.183C215.072 220.637 215.136 220.105 215.287 219.656C215.427 219.199 215.68 218.863 215.993 218.775C216.304 218.669 216.549 218.839 216.64 219C216.736 219.16 216.709 219.284 216.743 219.291C216.761 219.304 216.863 219.177 216.789 218.935C216.752 218.819 216.668 218.684 216.515 218.581C216.36 218.479 216.141 218.44 215.921 218.487C215.461 218.564 215.088 219.031 214.921 219.525C214.731 220.024 214.647 220.623 214.724 221.235C214.883 222.44 215.615 223.512 216.508 223.677C216.94 223.745 217.28 223.583 217.448 223.423C217.62 223.256 217.637 223.119 217.616 223.109" fill="#F68260"/>
<path d="M247.204 197.212C246.792 199.601 241.944 201.79 237.925 201.674C234.22 201.566 232.389 199.727 229.697 198.421C227.993 197.594 227.993 197.594 225.68 197.969C223.81 198.273 222.841 200.479 221.792 202.055C223.79 206.415 222.982 211.485 222.134 216.205C222.041 216.726 221.925 217.29 221.526 217.64C220.852 218.236 219.758 217.878 219.094 217.27C218.032 216.298 217.546 214.854 217.198 213.457C216.405 210.271 216.1 206.937 216.604 203.693C217.108 200.449 218.45 197.298 220.666 194.877C223.436 191.852 227.485 190.106 231.581 189.895C235.678 189.686 239.792 190.953 243.224 193.201C244.816 194.244 246.304 195.533 247.204 197.212" fill="#17282F"/>
<path d="M239.23 223.745C238.209 223.271 237.19 222.795 236.17 222.319C235.993 222.237 235.805 222.153 235.613 222.179C235.397 222.208 235.222 222.369 235.084 222.539C234.374 223.399 234.194 224.696 234.744 225.665C235.293 226.636 236.586 227.148 237.617 226.721C238.701 226.272 239.229 225.012 239.313 223.841L239.23 223.745Z" fill="#F68260"/>
<path d="M237.712 226.937C237.76 226.997 237.073 227.429 235.919 227.098C235.361 226.932 234.725 226.502 234.332 225.809C233.931 225.134 233.783 224.168 234.129 223.3C234.296 222.869 234.555 222.489 234.871 222.188C235.032 222.036 235.195 221.913 235.392 221.798C235.585 221.654 236 221.633 236.197 221.75C236.897 222.14 237.369 222.472 237.839 222.773C238.736 223.368 239.265 223.777 239.217 223.86C239.169 223.942 238.551 223.684 237.592 223.197C237.033 222.906 236.493 222.624 235.959 222.344C235.831 222.31 235.844 222.309 235.721 222.373C235.6 222.45 235.459 222.56 235.344 222.677C235.105 222.914 234.907 223.214 234.779 223.548C234.512 224.218 234.603 224.942 234.893 225.502C235.18 226.068 235.643 226.441 236.091 226.638C237.009 227.033 237.695 226.826 237.712 226.937" fill="#17282F"/>
<path d="M236.747 213.135C236.68 213.138 236.687 212.576 236.42 211.636C236.155 210.715 235.513 209.372 234.121 208.346C232.775 207.316 230.573 206.748 228.449 207.547C226.344 208.278 224.529 210.52 224.553 213.134C224.529 215.748 226.343 217.991 228.449 218.723C230.573 219.522 232.776 218.954 234.121 217.923C235.513 216.898 236.155 215.555 236.42 214.632C236.687 213.692 236.68 213.132 236.747 213.135C236.771 213.135 236.788 213.272 236.796 213.539C236.811 213.804 236.785 214.2 236.681 214.699C236.487 215.68 235.885 217.151 234.42 218.314C233.005 219.478 230.599 220.174 228.232 219.326C225.884 218.551 223.831 216.059 223.859 213.134C223.831 210.21 225.884 207.718 228.232 206.944C230.599 206.096 233.004 206.791 234.419 207.955C235.884 209.118 236.487 210.59 236.681 211.571C236.785 212.068 236.811 212.466 236.796 212.731C236.788 212.996 236.771 213.135 236.747 213.135" fill="#17282F"/>
<path d="M251.721 212.547C251.655 212.548 251.661 212.001 251.4 211.087C251.141 210.189 250.516 208.883 249.16 207.884C247.849 206.883 245.705 206.332 243.64 207.108C241.591 207.821 239.825 210.001 239.848 212.545C239.825 215.089 241.591 217.271 243.64 217.984C245.707 218.761 247.849 218.209 249.16 217.208C250.516 216.209 251.141 214.903 251.4 214.005C251.661 213.089 251.655 212.544 251.721 212.547C251.745 212.547 251.763 212.68 251.772 212.94C251.787 213.199 251.763 213.585 251.661 214.071C251.473 215.028 250.887 216.463 249.459 217.599C248.079 218.735 245.732 219.413 243.421 218.585C241.131 217.832 239.127 215.399 239.155 212.545C239.128 209.692 241.132 207.26 243.421 206.507C245.732 205.679 248.079 206.357 249.457 207.493C250.887 208.629 251.473 210.064 251.661 211.021C251.763 211.507 251.787 211.893 251.772 212.152C251.763 212.412 251.745 212.547 251.721 212.547Z" fill="#17282F"/>
<path d="M239.501 211.163C239.365 211.291 238.77 210.907 237.969 210.932C237.166 210.932 236.59 211.34 236.448 211.219C236.264 211.123 236.824 210.257 237.957 210.239C239.089 210.221 239.678 211.059 239.501 211.163" fill="#17282F"/>
<path d="M224.584 212.243C224.699 212.398 223.535 213.461 221.984 214.619C220.432 215.776 219.081 216.591 218.967 216.438C218.852 216.283 220.016 215.22 221.568 214.062C223.119 212.904 224.469 212.09 224.584 212.243" fill="#17282F"/>
<path d="M348.339 212.832C348.339 213.023 332.913 213.179 313.891 213.179C294.861 213.179 279.44 213.023 279.44 212.832C279.44 212.64 294.861 212.485 313.891 212.485C332.913 212.485 348.339 212.64 348.339 212.832Z" fill="#17282F"/>
<path d="M316.476 220.042C316.476 220.233 308.285 220.389 298.184 220.389C288.079 220.389 279.891 220.233 279.891 220.042C279.891 219.85 288.079 219.694 298.184 219.694C308.285 219.694 316.476 219.85 316.476 220.042Z" fill="#17282F"/>
<path d="M554.749 266.106C554.749 266.106 573.061 275.028 579.492 298.066C585.924 321.106 605.619 381.103 605.619 381.103C605.619 381.103 616.872 394.343 618.079 404.15C619.284 413.953 616.872 437.668 613.256 442.089C609.639 446.511 604.48 445.779 604.48 445.779L557.108 441.286L538.455 316.384L554.749 266.106" fill="#F2575D"/>
<path d="M398.099 263.922C398.099 263.922 364.228 274.546 355.788 283.79L383.521 412.814L383.079 453.523H543.661C543.661 451.513 545.103 318.358 545.103 318.358L554.749 266.105L497.673 256.055L486.419 247.213L422.912 250.429L413.265 260.075L398.099 263.922" fill="#F2575D"/>
<path d="M383.193 438.086L383.305 432.673L383.246 438.041C383.229 438.055 383.212 438.07 383.193 438.086" fill="#A7A9A8"/>
<path d="M383.247 438.041L383.305 432.673L383.604 418.276C392.583 405.44 399.483 391.856 404.7 377.088C405.307 375.369 406.453 373.292 408.145 373.292C408.288 373.292 408.435 373.306 408.585 373.337C409.763 373.58 410.469 374.762 410.964 375.857C416.003 387.006 413.72 400.408 407.753 411.089C401.797 421.749 392.589 430.176 383.247 438.041" fill="#CC4341"/>
<path d="M355.788 283.791C355.788 283.791 344.627 299.005 339.992 308.936C335.357 318.868 296.957 402.289 294.64 410.896C292.324 419.503 286.364 446.648 303.909 452.938H339.992L376.209 379.704L378.061 294.703L355.788 283.791Z" fill="#F2575D"/>
<path d="M342.303 400.036C342.255 400.09 341.499 399.325 339.837 398.38C338.179 397.442 335.603 396.366 332.263 395.637C330.597 395.272 328.744 394.988 326.743 394.862C324.743 394.736 322.595 394.773 320.415 395.273C316.037 396.249 311.688 399.014 308.267 402.898C304.792 406.78 302.649 411.362 301.388 415.686C300.109 420.021 299.563 424.084 299.219 427.492C298.88 430.904 298.755 433.683 298.636 435.601C298.58 436.497 298.533 437.229 298.497 437.81C298.459 438.316 298.427 438.581 298.403 438.58C298.379 438.58 298.364 438.313 298.357 437.807C298.36 437.224 298.363 436.492 298.367 435.592C298.401 433.668 298.453 430.884 298.729 427.447C299.013 424.017 299.512 419.913 300.775 415.507C302.016 411.116 304.192 406.407 307.747 402.44C311.247 398.462 315.737 395.624 320.275 394.65C322.537 394.148 324.759 394.134 326.781 394.286C328.815 394.44 330.691 394.757 332.373 395.158C335.744 395.958 338.332 397.122 339.975 398.148C340.795 398.665 341.389 399.132 341.764 399.476C342.135 399.826 342.32 400.018 342.303 400.036" fill="#17282F"/>
<path d="M325.192 385.454C325.188 385.406 325.619 385.338 326.405 385.26C327.191 385.162 328.339 385.14 329.752 385.213C331.168 385.274 332.845 385.517 334.675 385.94C336.493 386.397 338.457 387.056 340.42 387.978C342.373 388.924 344.123 390.037 345.623 391.161C347.101 392.317 348.345 393.468 349.285 394.53C350.232 395.582 350.936 396.49 351.355 397.16C351.788 397.822 352.007 398.198 351.967 398.224C351.86 398.3 350.883 396.854 348.929 394.868C347.96 393.868 346.708 392.776 345.239 391.674C343.748 390.601 342.031 389.529 340.121 388.605C338.203 387.704 336.291 387.042 334.517 386.56C332.736 386.113 331.101 385.826 329.713 385.702C326.94 385.436 325.201 385.585 325.192 385.454" fill="#17282F"/>
<path d="M357.816 381.44C357.807 381.488 357.212 381.439 356.147 381.313C355.083 381.176 353.537 381.021 351.627 380.88C347.809 380.591 342.501 380.521 336.7 381.208C330.897 381.909 325.756 383.228 322.113 384.411C320.291 384.997 318.825 385.513 317.824 385.897C316.819 386.272 316.252 386.459 316.232 386.415C316.212 386.372 316.743 386.101 317.721 385.648C318.695 385.185 320.141 384.597 321.956 383.944C325.581 382.636 330.759 381.225 336.617 380.519C342.475 379.825 347.839 379.973 351.671 380.389C353.588 380.596 355.132 380.827 356.187 381.047C357.244 381.256 357.824 381.393 357.816 381.44" fill="#17282F"/>
<path d="M460.591 310.166C460.576 310.177 460.452 310.029 460.224 309.733C459.965 309.388 459.641 308.953 459.239 308.414C458.355 307.189 457.135 305.498 455.612 303.389C452.497 298.993 448.153 292.865 443.044 285.657L443.604 285.577C441.66 291.286 439.515 297.586 437.256 304.216L437.113 304.636L436.749 304.401C436.513 304.249 436.257 304.085 436.001 303.92C433.015 302.026 430.38 299.75 428.144 297.285C425.917 294.809 424.069 292.165 422.535 289.529C419.467 284.24 417.617 279.024 416.361 274.604C415.113 270.172 414.46 266.502 414.024 263.974C413.815 262.764 413.647 261.796 413.519 261.066C413.459 260.734 413.391 260.49 413.349 260.322C413.288 260.169 413.256 260.084 413.265 260.076C413.412 260.013 413.804 261.41 414.289 263.925C414.808 266.436 415.532 270.078 416.833 274.468C418.141 278.842 420.025 283.998 423.087 289.206C424.619 291.801 426.451 294.397 428.648 296.828C430.855 299.246 433.443 301.476 436.372 303.333C436.624 303.494 436.875 303.657 437.107 303.806L436.599 303.99C438.877 297.369 441.041 291.076 443.004 285.372L443.208 284.777L443.564 285.292C448.589 292.558 452.863 298.738 455.925 303.169C457.387 305.322 458.559 307.049 459.405 308.297C459.775 308.86 460.072 309.314 460.309 309.673C460.509 309.989 460.605 310.158 460.591 310.166" fill="#17282F"/>
<path d="M543.737 445.817C543.777 441.944 543.832 436.792 543.895 430.783C543.916 435.953 543.896 441.039 543.737 445.817Z" fill="#A7A9A8"/>
<path d="M543.737 445.822C530.096 439.607 519.149 428.024 511.676 415.029C504.204 402.035 500.911 386.676 502.397 371.76L543.983 403.743C543.701 412.204 543.86 421.626 543.895 430.783C543.832 436.792 543.777 441.944 543.737 445.817C543.737 445.82 543.737 445.821 543.737 445.822" fill="#CC4341"/>
<path d="M500.887 354.327C500.887 354.327 495.053 355.947 499.429 367.896C503.804 379.847 505.263 379.124 508.179 390.304C511.096 401.484 514.497 411.685 519.6 418.004C524.705 424.324 543.661 437.204 543.661 437.204L560.675 421.163C560.675 421.163 557.872 409.209 558.543 401.091C559.216 392.971 560.919 373.043 560.675 369.64C560.431 366.236 556.787 357.973 556.787 357.973V352.321L548.037 325.405C548.037 325.405 543.176 323.219 541.475 330.995L538.557 322.741C538.557 322.741 533.94 322.003 532.725 331.483C531.511 340.96 533.697 354.085 533.697 354.085L531.267 370.611L527.621 381.791L524.463 382.276C524.463 382.276 519.707 380.979 517.101 372.028C514.497 363.077 507.449 352.383 500.887 354.327" fill="#F8A58D"/>
<path d="M554.979 396.602C554.96 396.602 554.933 396.392 554.9 395.989C554.868 395.525 554.827 394.937 554.776 394.208C554.689 392.577 554.568 390.324 554.417 387.514C554.155 381.712 553.791 373.636 553.367 364.208L553.441 364.404C552.661 363.469 551.265 363.19 549.999 363.506C548.711 363.818 547.559 364.62 546.845 365.818C545.36 368.21 545.277 371.326 544.813 374.333C543.891 381.145 543.012 387.632 542.211 393.544C541.807 396.496 541.379 399.306 540.804 401.906C540.244 404.51 539.457 406.88 538.695 408.994C537.941 411.117 537.276 413.038 536.865 414.768C536.448 416.493 536.283 418.021 536.316 419.268C536.367 421.778 537.096 423.052 536.987 423.08C536.965 423.089 536.825 422.77 536.58 422.148C536.379 421.514 536.097 420.553 536.044 419.277C535.971 418.006 536.1 416.441 536.487 414.68C536.869 412.917 537.508 410.968 538.231 408.834C538.965 406.704 539.709 404.369 540.241 401.784C540.787 399.205 541.191 396.409 541.577 393.457C542.361 387.544 543.221 381.054 544.125 374.241C544.339 372.721 544.503 371.221 544.768 369.725C545.037 368.238 545.451 366.744 546.268 365.453C547.045 364.142 548.405 363.18 549.847 362.856C551.267 362.498 552.968 362.809 553.939 363.985L554.012 364.073L554.016 364.181C554.34 373.613 554.617 381.693 554.817 387.498C554.889 390.31 554.948 392.566 554.989 394.2C554.997 394.93 555.004 395.52 555.008 395.985C555.007 396.389 554.997 396.601 554.979 396.602" fill="#F68260"/>
<path d="M545.677 365.974C545.636 365.992 545.365 365.457 544.96 364.453C544.561 363.448 544.031 361.97 543.536 360.097C543.04 358.224 542.579 355.953 542.315 353.4C542.184 352.125 542.092 350.762 542.241 349.341C542.387 347.934 542.805 346.438 543.708 345.174C544.476 344.078 545.573 343.205 546.82 342.84L547.081 342.764L547.213 342.998C549.677 347.345 551.819 351.182 553.323 353.941C554.013 355.234 554.595 356.322 555.065 357.205C555.463 357.976 555.661 358.408 555.624 358.429C555.588 358.449 555.317 358.058 554.855 357.325C554.335 356.47 553.695 355.417 552.933 354.164C551.323 351.464 549.108 347.67 546.62 343.337L547.013 343.494C545.941 343.816 544.973 344.581 544.275 345.576C543.457 346.718 543.065 348.08 542.917 349.417C542.765 350.757 542.839 352.081 542.951 353.338C543.177 355.861 543.581 358.11 544.012 359.978C544.44 361.848 544.897 363.334 545.215 364.362C545.54 365.388 545.725 365.956 545.677 365.974" fill="#F68260"/>
<path d="M541.61 368.161C541.562 368.162 541.509 367.61 541.453 366.612C541.406 365.466 541.349 364.052 541.281 362.382C541.166 358.809 541.056 353.874 540.977 348.421C540.936 342.974 540.724 338.021 541.193 334.433C541.421 332.645 541.777 331.221 542.104 330.27C542.429 329.316 542.694 328.824 542.728 328.837C542.849 328.877 541.986 330.941 541.681 334.485C541.342 338.016 541.63 342.956 541.67 348.412C541.75 353.864 541.782 358.801 541.772 362.376C541.753 364.048 541.736 365.461 541.722 366.608C541.696 367.608 541.657 368.161 541.61 368.161Z" fill="#F68260"/>
<path d="M527.225 412.977C527.126 412.896 528.192 411.643 529.508 409.371C530.174 408.24 530.852 406.829 531.486 405.22C532.093 403.602 532.637 401.774 533.004 399.811C533.346 397.843 533.476 395.94 533.476 394.211C533.442 392.48 533.301 390.922 533.072 389.63C532.633 387.042 532.073 385.495 532.196 385.452C532.24 385.438 532.409 385.811 532.678 386.506C532.962 387.196 533.269 388.235 533.553 389.539C533.849 390.842 534.045 392.43 534.114 394.198C534.152 395.967 534.04 397.919 533.688 399.935C533.313 401.944 532.734 403.812 532.082 405.456C531.398 407.089 530.66 408.507 529.928 409.624C529.205 410.747 528.553 411.612 528.046 412.16C527.55 412.717 527.262 413.008 527.225 412.977" fill="#F68260"/>
<path d="M557.09 404.616L571.854 409.74C571.854 409.74 585.95 402.449 595.672 409.74C605.393 417.031 613.838 436.247 611.164 444.025C611.164 444.025 604.456 452.309 599.352 453.523C594.248 454.738 574.406 449.933 566.152 448.194C557.874 446.452 543.661 437.204 543.661 437.204L557.09 404.616" fill="#F8A58D"/>
<path d="M558.904 426.368C558.857 426.369 558.802 425.903 558.746 425.06C558.688 424.06 558.617 422.874 558.537 421.493C558.38 418.481 558.177 414.317 558.114 409.708C558.045 405.097 558.177 400.916 558.456 397.901C558.586 396.393 558.752 395.179 558.902 394.345C559.054 393.512 559.16 393.056 559.208 393.063C559.317 393.081 559.086 394.931 558.945 397.936C558.793 400.94 558.741 405.1 558.81 409.698C558.893 414.205 558.969 418.279 559.028 421.479C559.044 422.988 559.041 424.21 559.017 425.055C558.989 425.9 558.952 426.368 558.904 426.368Z" fill="#F68260"/>
<path d="M607.588 409.161C607.477 409.265 605.965 407.164 602.677 404.735C599.442 402.312 594.188 399.727 587.965 399.377C581.74 399.04 576.232 401.032 572.75 403.085C569.216 405.138 567.484 407.06 567.384 406.945C567.356 406.919 567.764 406.426 568.601 405.628C569.433 404.828 570.737 403.76 572.498 402.662C575.976 400.465 581.602 398.336 588.004 398.684C594.401 399.044 599.76 401.774 602.974 404.343C604.604 405.625 605.782 406.829 606.522 407.717C607.266 408.604 607.618 409.137 607.588 409.161" fill="#17282F"/>
<path d="M605.69 396.852C605.596 396.994 603.624 395.004 599.548 393.464C595.537 391.892 589.314 391.166 582.926 392.965C579.738 393.856 576.824 395.129 574.33 396.542C571.84 397.969 569.758 399.528 568.104 400.941C566.446 402.354 565.18 403.589 564.312 404.448C563.442 405.309 562.96 405.784 562.922 405.75C562.888 405.72 563.305 405.184 564.116 404.262C564.928 403.342 566.149 402.048 567.781 400.572C569.412 399.096 571.492 397.472 574.01 395.989C576.533 394.518 579.488 393.204 582.74 392.296C589.284 390.452 595.672 391.28 599.726 393.006C601.774 393.848 603.3 394.814 604.27 395.572C604.77 395.932 605.106 396.278 605.352 396.49C605.59 396.71 605.706 396.833 605.69 396.852Z" fill="#17282F"/>
<path d="M605.813 386.182C605.775 386.32 603.195 385.53 598.907 384.949C596.765 384.645 594.193 384.476 591.339 384.47C588.485 384.512 585.349 384.746 582.1 385.301C578.857 385.889 575.828 386.74 573.132 387.674C570.449 388.654 568.089 389.692 566.181 390.709C562.349 392.717 560.193 394.34 560.112 394.224C560.084 394.185 560.609 393.768 561.591 393.044C562.076 392.673 562.683 392.238 563.424 391.789C564.159 391.333 564.977 390.774 565.948 390.276C567.845 389.194 570.211 388.097 572.913 387.073C575.631 386.093 578.695 385.213 581.981 384.617C585.271 384.056 588.449 383.837 591.339 383.829C594.228 383.87 596.825 384.094 598.979 384.464C600.061 384.601 601.02 384.846 601.868 385.024C602.717 385.193 603.436 385.394 604.019 385.576C605.188 385.924 605.825 386.136 605.813 386.182Z" fill="#17282F"/>
<path d="M492.7 255.617C492.7 255.617 493.384 256.895 493.721 259.543C494.085 262.173 494.035 266.113 493.161 270.995C492.723 273.435 492.132 276.115 491.253 278.977C490.336 281.843 488.947 284.773 487.376 287.845C484.197 293.979 480.194 300.663 475.56 307.795L475.018 308.628L475.017 307.631C475.01 302.92 475.002 297.973 474.994 292.836L475.513 293.085C471.544 296.289 467.365 299.661 463.061 303.136L463.171 302.979C460.284 312.123 458.385 322.307 457.632 332.909C456.413 349.136 457.396 364.656 458.161 378.736C458.817 392.835 459.246 405.532 459.686 416.193C460.109 426.855 460.493 435.48 460.815 441.438C460.989 444.388 461.125 446.693 461.221 448.295C461.27 449.052 461.311 449.645 461.34 450.077C461.363 450.48 461.356 450.687 461.356 450.687C461.356 450.687 461.315 450.484 461.268 450.084C461.224 449.653 461.161 449.063 461.081 448.305C460.935 446.741 460.743 444.432 460.545 441.453C460.141 435.499 459.681 426.875 459.196 416.215C458.719 405.545 458.152 392.856 457.521 378.769C456.722 364.7 455.716 349.147 456.939 332.857C457.696 322.212 459.612 311.972 462.532 302.772L462.563 302.677L462.641 302.613C466.952 299.149 471.137 295.784 475.113 292.589L475.633 292.171L475.632 292.836C475.624 297.973 475.617 302.92 475.609 307.631L475.067 307.468C484.225 293.263 491.676 280.92 492.822 270.933C493.741 266.087 493.844 262.18 493.543 259.564C493.415 258.251 493.156 257.271 492.995 256.609C492.785 255.961 492.7 255.617 492.7 255.617" fill="#17282F"/>
<path d="M468.785 427.61L468.308 427.594C466.379 427.649 464.66 429.413 464.655 431.342C464.649 433.272 466.357 435.047 468.285 435.113C470.215 435.18 472.041 433.529 472.169 431.604C472.297 429.677 470.705 427.8 468.785 427.61" fill="white"/>
<path d="M468.785 376.221L468.308 376.205C466.379 376.261 464.66 378.024 464.655 379.953C464.649 381.882 466.357 383.658 468.285 383.724C470.215 383.792 472.041 382.141 472.169 380.216C472.297 378.289 470.705 376.41 468.785 376.221Z" fill="white"/>
<path d="M468.285 330.246C470.215 330.314 472.041 328.662 472.169 326.737C472.297 324.811 470.705 322.933 468.785 322.743L468.308 322.727C466.379 322.782 464.66 324.546 464.655 326.477C464.649 328.406 466.357 330.179 468.285 330.246Z" fill="white"/>
<path d="M410.721 195.402C406.046 190.228 401.329 184.996 397.922 178.91C394.516 172.826 392.484 165.725 393.61 158.842C394.27 154.818 395.981 150.985 396.253 146.916C396.626 141.316 394.273 135.465 396.258 130.216C399.361 122.013 410.404 120.745 417.097 115.078C422.312 110.665 424.85 103.5 430.585 99.789C435.596 96.5477 442.033 96.6183 447.941 97.453C453.85 98.2903 459.796 99.781 465.71 98.985C469.926 98.4183 473.897 96.713 478.028 95.6903C482.156 94.6677 486.764 94.3983 490.442 96.5357C494.121 98.673 496.186 103.894 493.773 107.4C500.628 104.238 509.333 109.581 511.209 116.892C513.085 124.202 509.33 132.1 503.522 136.921C497.714 141.742 490.205 143.984 482.788 145.382C461.79 149.34 439.013 147.106 420.918 135.742" fill="#17282F"/>
<path d="M484.537 265.995C483.513 258.047 482.673 251.415 482.622 250.593C482.622 250.593 509.184 244.623 507.72 217.765C507.013 204.785 503.379 178.17 499.815 154.13C495.984 128.311 472.94 109.779 446.897 111.521L444.309 111.694C416.497 115.193 403.93 140.767 408.197 168.473L423.204 261.366C423.204 261.366 429.608 281.917 443.304 285.474L460.59 310.166L463.448 299.537L476.332 288.321C476.332 288.321 479.288 285.121 482.684 278.863C485.46 273.75 484.876 268.49 484.537 265.995" fill="#F8A58D"/>
<path d="M482.641 250.202C482.641 250.202 465.773 252.715 446.989 242.599C446.989 242.599 456.551 261.359 483.168 257.151L482.641 250.202" fill="#F68260"/>
<path d="M491.182 177.209C491.389 179.228 489.85 181.068 487.746 181.322C485.645 181.576 483.77 180.15 483.564 178.132C483.358 176.112 484.896 174.27 486.996 174.016C489.101 173.76 490.976 175.189 491.182 177.209Z" fill="#17282F"/>
<path d="M494.931 167.688C494.487 168.217 491.441 166.264 487.317 166.55C483.195 166.777 480.311 169.102 479.828 168.628C479.595 168.417 480.017 167.484 481.271 166.436C482.504 165.394 484.655 164.317 487.224 164.156C489.795 163.997 492.019 164.798 493.324 165.684C494.659 166.572 495.149 167.446 494.931 167.688" fill="#17282F"/>
<path d="M452.224 179.994C452.431 182.014 450.892 183.854 448.788 184.108C446.687 184.363 444.813 182.936 444.605 180.916C444.4 178.899 445.937 177.056 448.04 176.8C450.143 176.546 452.017 177.976 452.224 179.994" fill="#17282F"/>
<path d="M454.444 171.168C454.001 171.699 450.951 169.745 446.829 170.032C442.708 170.26 439.823 172.583 439.341 172.108C439.107 171.899 439.525 170.965 440.785 169.917C442.017 168.875 444.168 167.799 446.737 167.636C449.308 167.48 451.531 168.28 452.839 169.165C454.168 170.053 454.661 170.929 454.444 171.168Z" fill="#17282F"/>
<path d="M471.456 200.75C471.421 200.518 473.955 199.903 478.073 199.094C479.119 198.915 480.101 198.638 480.231 197.909C480.429 197.132 479.912 196.025 479.32 194.834C478.159 192.353 476.944 189.75 475.668 187.022C470.58 175.895 466.821 166.717 467.271 166.516C467.721 166.316 472.211 175.172 477.3 186.3C478.529 189.045 479.705 191.662 480.821 194.166C481.301 195.337 482.077 196.649 481.645 198.263C481.415 199.069 480.68 199.691 480.017 199.918C479.356 200.17 478.764 200.221 478.245 200.287C474.08 200.791 471.488 200.983 471.456 200.75" fill="#17282F"/>
<path d="M454.428 154.934C454.096 156.082 449.941 155.826 445.143 156.734C440.324 157.544 436.519 159.221 435.809 158.26C435.491 157.797 436.1 156.696 437.605 155.505C439.096 154.317 441.523 153.12 444.405 152.602C447.289 152.09 449.98 152.374 451.789 152.973C453.613 153.569 454.567 154.39 454.428 154.934" fill="#17282F"/>
<path d="M492.615 155.853C491.952 156.837 489.045 156.056 485.627 156.238C482.203 156.301 479.36 157.29 478.628 156.354C478.305 155.898 478.697 154.929 479.903 153.958C481.088 152.992 483.124 152.13 485.477 152.044C487.828 151.962 489.92 152.674 491.172 153.554C492.443 154.436 492.904 155.374 492.615 155.853" fill="#17282F"/>
<path d="M411.719 188.197C411.248 188.029 392.915 183.977 394.728 202.285C396.541 220.592 416.381 214.625 416.361 214.097C416.341 213.569 411.719 188.197 411.719 188.197Z" fill="#F8A58D"/>
<path d="M408.248 208.085C408.161 208.035 407.95 208.34 407.436 208.642C406.934 208.934 406.046 209.189 405.057 208.927C403.053 208.408 401.12 205.499 400.704 202.208C400.492 200.547 400.685 198.925 401.145 197.552C401.571 196.159 402.345 195.136 403.301 194.867C404.248 194.548 404.994 195.061 405.269 195.555C405.566 196.043 405.486 196.419 405.586 196.442C405.642 196.483 405.949 196.096 405.726 195.355C405.614 194.999 405.357 194.588 404.893 194.279C404.417 193.966 403.753 193.847 403.083 193.987C401.68 194.224 400.538 195.649 400.032 197.156C399.449 198.676 399.194 200.502 399.432 202.368C399.914 206.046 402.145 209.311 404.868 209.814C406.188 210.022 407.225 209.527 407.736 209.04C408.258 208.532 408.315 208.112 408.248 208.085" fill="#F68260"/>
<path d="M498.465 129.117C497.208 136.405 482.428 143.081 470.172 142.725C458.875 142.396 453.293 136.789 445.085 132.805C439.889 130.285 439.889 130.285 432.839 131.43C427.139 132.357 424.18 139.082 420.979 143.89C427.076 157.182 424.612 172.638 422.027 187.032C421.741 188.622 421.388 190.34 420.175 191.408C418.116 193.222 414.78 192.134 412.755 190.282C409.515 187.316 408.04 182.916 406.977 178.653C404.557 168.94 403.628 158.77 405.164 148.881C406.7 138.99 410.792 129.384 417.549 122.001C425.995 112.774 438.339 107.456 450.831 106.813C463.321 106.17 475.868 110.037 486.329 116.89C491.184 120.07 495.723 124.002 498.465 129.117" fill="#17282F"/>
<path d="M474.153 210.025C471.042 208.574 467.932 207.124 464.821 205.673C464.285 205.423 463.71 205.167 463.124 205.245C462.462 205.333 461.933 205.828 461.509 206.343C459.345 208.964 458.798 212.92 460.476 215.879C462.152 218.836 466.092 220.398 469.233 219.097C472.541 217.728 474.148 213.887 474.406 210.316L474.153 210.025Z" fill="#F68260"/>
<path d="M469.525 219.757C469.551 219.839 469.093 220.107 468.16 220.301C467.235 220.479 465.803 220.549 464.145 220.007C462.504 219.48 460.655 218.204 459.511 216.156C458.347 214.16 457.927 211.34 458.943 208.796C459.427 207.531 460.184 206.415 461.108 205.532C461.576 205.085 462.061 204.72 462.621 204.387C462.913 204.224 463.279 204.067 463.697 204.045C464.111 204.021 464.48 204.128 464.781 204.253C465.391 204.527 465.785 204.82 466.235 205.079C466.669 205.347 467.095 205.607 467.507 205.86C468.312 206.364 469.069 206.839 469.78 207.281C472.547 209.039 474.209 210.208 474.113 210.373C474.017 210.54 472.179 209.669 469.285 208.131C468.549 207.732 467.763 207.307 466.928 206.855C466.504 206.621 466.068 206.381 465.62 206.135C465.175 205.896 464.691 205.592 464.301 205.44C463.875 205.292 463.689 205.303 463.28 205.537C462.873 205.795 462.431 206.133 462.053 206.509C461.287 207.268 460.649 208.221 460.239 209.293C459.384 211.44 459.692 213.776 460.633 215.541C461.565 217.335 463.068 218.5 464.488 219.087C465.921 219.681 467.22 219.771 468.103 219.765C468.991 219.743 469.496 219.656 469.525 219.757" fill="#17282F"/>
<path d="M466.581 177.669C466.473 177.679 466.595 175.964 465.852 173.033C465.117 170.16 463.201 165.935 458.88 162.667C456.74 161.071 454.044 159.715 450.936 159.171C447.851 158.648 444.369 158.748 441.057 160.012C439.391 160.593 437.783 161.469 436.305 162.576C434.812 163.661 433.456 165.008 432.339 166.569C430.028 169.643 428.727 173.595 428.688 177.665C428.725 181.74 430.027 185.692 432.337 188.768C433.455 190.328 434.811 191.676 436.305 192.761C437.781 193.868 439.389 194.744 441.057 195.325C444.369 196.589 447.851 196.691 450.937 196.167C454.045 195.623 456.741 194.268 458.881 192.671C463.203 189.401 465.117 185.176 465.852 182.304C466.595 179.373 466.473 177.66 466.581 177.669C466.593 177.669 466.599 177.773 466.6 177.979C466.597 178.227 466.593 178.525 466.589 178.892C466.591 179.295 466.569 179.791 466.472 180.372C466.396 180.955 466.323 181.632 466.115 182.369C465.801 183.867 465.128 185.643 464.045 187.531C462.953 189.411 461.363 191.381 459.18 193.061C457.003 194.725 454.241 196.147 451.043 196.733C447.868 197.299 444.273 197.216 440.839 195.927C439.112 195.333 437.444 194.435 435.911 193.293C434.36 192.175 432.952 190.784 431.789 189.171C429.388 185.989 428.029 181.888 427.995 177.665C428.031 173.445 429.389 169.345 431.791 166.165C432.953 164.552 434.36 163.161 435.911 162.044C437.444 160.904 439.112 160.004 440.839 159.411C444.272 158.123 447.867 158.039 451.043 158.605C454.241 159.191 457.001 160.612 459.179 162.276C461.361 163.955 462.953 165.925 464.044 167.805C465.128 169.693 465.801 171.469 466.113 172.967C466.321 173.705 466.396 174.383 466.472 174.965C466.569 175.547 466.591 176.044 466.589 176.445C466.593 176.812 466.597 177.111 466.6 177.359C466.599 177.564 466.593 177.669 466.581 177.669" fill="#17282F"/>
<path d="M512.241 175.875C512.136 175.884 512.253 174.214 511.528 171.359C510.812 168.56 508.944 164.444 504.735 161.262C502.649 159.706 500.024 158.386 496.996 157.858C493.989 157.348 490.599 157.447 487.375 158.678C485.751 159.243 484.184 160.098 482.747 161.175C481.291 162.232 479.971 163.544 478.881 165.064C476.632 168.058 475.365 171.907 475.327 175.872C475.364 179.839 476.631 183.688 478.88 186.684C479.969 188.204 481.291 189.518 482.745 190.574C484.184 191.652 485.751 192.507 487.375 193.072C490.6 194.303 493.991 194.402 496.997 193.892C500.025 193.363 502.651 192.043 504.736 190.488C508.944 187.304 510.812 183.188 511.528 180.39C512.253 177.536 512.136 175.866 512.241 175.875C512.265 175.875 512.268 176.284 512.252 177.067C512.253 177.459 512.233 177.943 512.139 178.51C512.064 179.076 511.992 179.738 511.791 180.456C511.144 183.314 509.316 187.558 505.033 190.879C502.912 192.5 500.221 193.887 497.103 194.459C494.007 195.011 490.503 194.93 487.155 193.674C485.472 193.095 483.845 192.218 482.351 191.107C480.839 190.016 479.467 188.66 478.332 187.087C475.992 183.987 474.668 179.988 474.633 175.872C474.669 171.758 475.993 167.76 478.333 164.66C479.468 163.088 480.84 161.732 482.352 160.643C483.845 159.531 485.472 158.655 487.155 158.076C490.503 156.82 494.007 156.74 497.101 157.291C500.22 157.862 502.911 159.248 505.032 160.871C509.315 164.191 511.144 168.435 511.791 171.294C511.992 172.012 512.064 172.672 512.139 173.24C512.233 173.807 512.253 174.291 512.252 174.683C512.268 175.466 512.265 175.875 512.241 175.875" fill="#17282F"/>
<path d="M474.981 171.657C474.905 171.735 474.465 171.363 473.653 170.979C472.851 170.595 471.648 170.219 470.296 170.243C468.943 170.261 467.755 170.681 466.967 171.096C466.172 171.511 465.748 171.901 465.671 171.827C465.605 171.775 465.916 171.243 466.711 170.677C467.493 170.117 468.784 169.569 470.284 169.548C471.784 169.521 473.091 170.021 473.893 170.551C474.709 171.084 475.041 171.603 474.981 171.657" fill="#17282F"/>
<path d="M429.494 174.952C429.609 175.106 425.868 178.094 421.14 181.624C416.409 185.155 412.482 187.892 412.368 187.739C412.253 187.586 415.993 184.599 420.724 181.067C425.453 177.538 429.38 174.799 429.494 174.952" fill="#17282F"/>
<path d="M436.348 311.261C435.26 311.261 434.165 310.579 433.257 309.891C418.822 298.987 411.94 280.041 413.688 262.034C413.784 262.591 413.896 263.238 414.024 263.974C414.46 266.502 415.113 270.171 416.361 274.603C417.617 279.023 419.466 284.239 422.534 289.529C424.069 292.165 425.917 294.809 428.144 297.285C430.38 299.75 433.014 302.026 436.001 303.919C436.257 304.085 436.513 304.249 436.749 304.401L437.113 304.635L437.256 304.215C439.437 297.813 441.513 291.718 443.404 286.165C443.473 286.262 443.544 286.361 443.612 286.458C444.638 294.401 443.214 302.066 439.192 309.031C438.696 309.889 438.098 310.783 437.168 311.119C436.897 311.218 436.622 311.261 436.348 311.261" fill="#CC4341"/>
<path d="M437.113 304.636L436.749 304.401C436.513 304.249 436.257 304.085 436.001 303.92C433.015 302.026 430.38 299.75 428.144 297.285C425.917 294.809 424.069 292.165 422.535 289.529C419.467 284.24 417.617 279.024 416.361 274.604C415.113 270.172 414.46 266.502 414.024 263.974C413.896 263.238 413.784 262.592 413.688 262.034C413.697 261.934 413.708 261.832 413.717 261.732C416.4 280.1 424.281 296.425 436.928 304.104C439.248 297.773 441.22 291.833 443.519 285.781C443.552 286.008 443.584 286.233 443.612 286.458C443.544 286.361 443.473 286.262 443.404 286.165C441.513 291.718 439.437 297.813 437.256 304.216L437.113 304.636" fill="#0F191D"/>
<path d="M475.264 316.997L473.499 298.986L463.825 302.52C467.673 299.413 471.419 296.392 474.996 293.502C475.004 298.401 475.011 303.124 475.017 307.63L475.019 308.628L475.56 307.794C480.195 300.662 484.197 293.978 487.376 287.845C488.947 284.773 490.336 281.842 491.253 278.977C492.132 276.114 492.723 273.434 493.161 270.994C493.833 267.236 494.019 264.037 493.901 261.562C493.88 260.594 493.82 260.076 493.82 260.076C493.82 260.076 496.267 276.94 491.511 286.496C486.756 296.053 475.264 316.997 475.264 316.997" fill="#CC4341"/>
<path d="M475.019 308.628L475.017 307.631C475.011 303.124 475.004 298.401 474.996 293.503C471.419 296.392 467.673 299.413 463.825 302.52L462.851 302.876L475.315 292.836V307.632L484.005 293.504C493.356 278.288 493.993 265.743 493.901 261.563C494.019 264.037 493.833 267.236 493.161 270.995C492.723 273.435 492.132 276.115 491.253 278.977C490.336 281.843 488.947 284.773 487.376 287.845C484.197 293.979 480.195 300.663 475.56 307.795L475.019 308.628" fill="#0F191D"/>
<path d="M301.645 412.814L301.465 412.789C300.926 407.269 303.854 401.779 308.172 398.296C312.489 394.812 318.02 393.125 323.53 392.484C325.029 392.309 326.548 392.209 328.065 392.209C331.828 392.209 335.576 392.821 338.961 394.42C343.71 396.663 347.374 399.735 348.012 404.948C346.285 403.105 344.366 401.452 342.304 400.035C342.316 400.015 342.132 399.824 341.764 399.476C341.389 399.132 340.794 398.665 339.974 398.148C338.332 397.123 335.744 395.959 332.373 395.159C330.69 394.757 328.815 394.44 326.781 394.287C326.085 394.235 325.365 394.201 324.628 394.201C323.224 394.201 321.758 394.321 320.274 394.651C315.737 395.624 311.246 398.463 307.746 402.44C304.91 405.605 302.952 409.244 301.645 412.814V412.814ZM341.972 399.811C340.328 398.709 338.594 397.756 336.793 396.973C338.012 397.439 339.032 397.925 339.837 398.38C340.905 398.989 341.6 399.523 341.972 399.811Z" fill="#CC4341"/>
<path d="M302 412.865L301.645 412.815C302.952 409.244 304.911 405.605 307.747 402.44C311.247 398.463 315.737 395.624 320.275 394.651C321.759 394.322 323.224 394.202 324.628 394.202C325.365 394.202 326.085 394.235 326.781 394.287C328.815 394.44 330.691 394.757 332.373 395.159C335.744 395.959 338.332 397.123 339.975 398.148C340.795 398.666 341.389 399.132 341.764 399.476C342.132 399.824 342.316 400.015 342.304 400.035C342.193 399.96 342.083 399.884 341.972 399.811C341.6 399.523 340.905 398.99 339.837 398.38C339.032 397.926 338.012 397.439 336.793 396.974C333.124 395.378 329.177 394.488 325.148 394.488C324.315 394.488 323.476 394.527 322.637 394.604C313.107 395.491 305.715 402.81 302 412.865" fill="#0F191D"/>
<path d="M612.927 419.177C611.357 415.738 609.736 412.245 607.584 409.164C607.585 409.164 607.587 409.162 607.588 409.161C607.619 409.137 607.266 408.604 606.522 407.717C606.432 407.609 606.335 407.496 606.232 407.378C605.621 406.637 604.97 405.928 604.269 405.261C600.534 401.701 595.569 399.566 590.438 398.938C589.646 398.817 588.833 398.73 588.004 398.684C587.538 398.658 587.076 398.646 586.62 398.646C581.808 398.646 577.509 399.997 574.342 401.616C573.16 402.147 572.006 402.742 570.889 403.396L568.857 405.047C574.435 399.992 581.954 397.182 589.47 397.182C591.161 397.182 592.852 397.325 594.52 397.616C599.693 398.518 604.706 400.852 608.274 404.704C611.842 408.554 613.816 414.004 612.927 419.177" fill="#CC4341"/>
<path d="M607.584 409.164C607.155 408.552 606.707 407.955 606.232 407.379C606.335 407.496 606.432 407.609 606.523 407.717C607.267 408.604 607.619 409.138 607.588 409.162C607.587 409.163 607.585 409.164 607.584 409.164ZM574.343 401.616C577.509 399.997 581.808 398.647 586.62 398.647C587.076 398.647 587.539 398.659 588.004 398.684C588.833 398.731 589.647 398.817 590.439 398.939C589.621 398.839 588.801 398.776 587.98 398.753C587.719 398.745 587.46 398.743 587.199 398.743C582.777 398.743 578.388 399.799 574.343 401.616" fill="#0F191D"/>
<path d="M539.624 321.049C539.58 321.031 539.752 320.513 540.1 319.595C540.512 318.541 541.019 317.247 541.615 315.719C542.905 312.452 544.675 307.936 546.543 302.916C548.411 297.892 550.023 293.319 551.181 290.001C551.728 288.456 552.192 287.145 552.568 286.079C552.905 285.156 553.112 284.652 553.157 284.665C553.204 284.68 553.084 285.212 552.825 286.16C552.571 287.111 552.168 288.476 551.648 290.156C550.607 293.515 549.065 298.125 547.195 303.159C545.321 308.187 543.477 312.684 542.069 315.907C541.365 317.519 540.777 318.815 540.349 319.701C539.924 320.588 539.667 321.069 539.624 321.049Z" fill="#17282F"/>
<path d="M371.529 322.358C371.341 322.396 369.892 316.05 368.293 308.188C366.693 300.321 365.549 293.916 365.737 293.877C365.925 293.838 367.375 300.182 368.973 308.048C370.573 315.913 371.717 322.321 371.529 322.358Z" fill="#17282F"/>
<path d="M369.013 401.671C369.435 401.883 364.129 360.122 364.129 360.122C364.129 360.122 367.478 328.43 369.361 326.965L369.409 315.782C369.409 315.782 374.592 312.643 375.984 317.713C375.984 317.713 380.58 313.721 381.383 323.221C382.185 332.721 382.354 342.43 382.354 342.43L392.584 368.009L394.269 368.859C394.269 368.859 396.466 348.822 397.745 345.873C399.024 342.923 399.9 335.753 404.748 336.827C409.597 337.905 410.002 341.915 409.129 348.454C408.257 354.993 407.173 361.741 407.576 365.963C407.981 370.186 409.898 379.479 409.309 386.863C408.72 394.246 404.677 402.038 400.432 407.506C396.188 412.974 388.081 424.285 383.673 427.693C382.134 428.882 369.013 401.671 369.013 401.671" fill="#F8A58D"/>
<path d="M374.179 367.687C374.129 367.683 374.143 367.047 374.207 365.899C374.293 364.617 374.405 362.991 374.54 361.049C374.852 356.954 375.331 351.303 375.903 345.066C376.196 341.955 376.477 338.993 376.735 336.274C376.868 334.931 376.952 333.659 376.781 332.505C376.62 331.35 376.167 330.346 375.505 329.623C374.155 328.159 372.419 327.789 371.329 327.79C370.201 327.782 369.612 328.089 369.589 328.013C369.58 327.991 369.721 327.917 370.004 327.794C370.292 327.691 370.732 327.551 371.32 327.519C372.463 327.437 374.333 327.733 375.865 329.289C376.62 330.061 377.155 331.181 377.349 332.415C377.559 333.653 377.487 334.979 377.372 336.331C377.131 339.051 376.869 342.017 376.593 345.13C376.021 351.367 375.465 357.01 375.029 361.094C374.807 363.027 374.621 364.647 374.475 365.925C374.329 367.063 374.225 367.691 374.179 367.687" fill="#F68260"/>
<path d="M379.677 350.608C379.777 350.692 378.637 351.695 377.865 353.905C377.041 356.083 376.744 359.353 376.165 362.92C375.615 366.491 375.077 369.716 374.653 372.047C374.231 374.376 373.923 375.809 373.827 375.795C373.733 375.779 373.871 374.32 374.169 371.971C374.468 369.621 374.928 366.383 375.479 362.813C376.057 359.265 376.429 355.967 377.408 353.727C377.871 352.608 378.436 351.791 378.887 351.291C379.333 350.784 379.653 350.583 379.677 350.608" fill="#F68260"/>
<path d="M375.917 317.163C375.964 317.155 376.089 317.623 376.273 318.477C376.46 319.329 376.692 320.573 376.947 322.113C377.456 325.195 378.013 329.479 378.367 334.232C378.716 338.991 378.793 343.309 378.741 346.432C378.717 347.993 378.671 349.256 378.611 350.127C378.555 350.999 378.5 351.48 378.452 351.479C378.349 351.476 378.327 349.548 378.251 346.435C378.177 343.32 378.023 339.021 377.675 334.284C377.323 329.548 376.844 325.273 376.46 322.183C376.077 319.093 375.816 317.18 375.917 317.163" fill="#F68260"/>
<path d="M405.427 356.317C405.527 356.474 403.931 357.215 401.981 356.609C400.023 356.025 399.113 354.518 399.284 354.443C399.439 354.311 400.463 355.442 402.183 355.945C403.891 356.489 405.372 356.119 405.427 356.317" fill="#F68260"/>
<path d="M369.589 396.48L342.564 407.836H326.462C326.462 407.836 310.537 412.807 308.086 427.735C305.636 442.664 305.286 450.348 312.286 452.195C319.288 454.041 339.064 454.245 348.864 450.993C358.665 447.74 384.337 427.024 384.337 427.024L386.812 412.037L369.589 396.48" fill="#F8A58D"/>
<path d="M375.917 412.977C375.883 413.009 375.612 412.758 375.149 412.272C374.669 411.801 374.077 411.026 373.393 410.04C372.057 408.045 370.595 405.018 369.62 401.492C368.609 397.972 368.179 394.681 367.955 392.309C367.749 389.929 367.761 388.452 367.849 388.446C367.952 388.44 368.115 389.904 368.443 392.252C368.789 394.596 369.292 397.837 370.288 401.301C371.248 404.774 372.605 407.755 373.809 409.777C375.024 411.796 376.013 412.89 375.917 412.977" fill="#F68260"/>
<path d="M387.683 417.716C387.539 417.663 388.755 415.608 389.223 411.922C389.447 410.093 389.427 407.867 388.904 405.489C388.387 403.105 387.248 400.652 385.593 398.361C383.951 396.06 382.105 394.056 380.549 392.119C378.977 390.191 377.719 388.304 376.896 386.596C376.067 384.887 375.684 383.38 375.541 382.333C375.405 381.281 375.46 380.696 375.496 380.696C375.631 380.665 375.585 383.08 377.335 386.375C378.193 388.012 379.461 389.828 381.044 391.713C382.612 393.611 384.479 395.607 386.159 397.959C387.852 400.297 389.033 402.881 389.529 405.352C390.036 407.822 390.003 410.119 389.709 411.989C389.416 413.865 388.9 415.321 388.471 416.281C388.264 416.769 388.065 417.127 387.925 417.367C387.788 417.607 387.705 417.727 387.683 417.716" fill="#F68260"/>
<path d="M346.021 352.643C345.852 352.731 342.903 347.367 339.437 340.662C335.969 333.955 333.297 328.449 333.468 328.361C333.639 328.271 336.587 333.637 340.053 340.343C343.52 347.049 346.192 352.555 346.021 352.643Z" fill="white"/>
<path d="M389.728 303.992C389.552 303.913 391.374 299.439 393.797 294.001C396.221 288.56 398.326 284.215 398.502 284.293C398.677 284.372 396.856 288.843 394.432 294.284C392.009 299.723 389.902 304.069 389.728 303.992" fill="white"/>
<path d="M432.525 335.567C432.377 335.689 429.636 332.62 426.401 328.715C423.165 324.805 420.663 321.539 420.811 321.417C420.959 321.295 423.7 324.363 426.936 328.271C430.171 332.177 432.673 335.445 432.525 335.567" fill="white"/>
<path d="M422.68 378.996C422.524 378.883 424.591 375.771 427.295 372.041C429.999 368.312 432.317 365.381 432.472 365.493C432.627 365.605 430.561 368.719 427.856 372.448C425.153 376.177 422.835 379.108 422.68 378.996Z" fill="white"/>
<path d="M409.425 440.339C409.343 440.38 408.736 439.362 407.86 437.66C406.985 435.959 405.849 433.571 404.708 430.884C403.567 428.196 402.635 425.72 402.017 423.91C401.4 422.1 401.088 420.956 401.176 420.926C401.268 420.891 401.744 421.975 402.477 423.736C403.313 425.741 404.28 428.056 405.347 430.612C406.447 433.155 407.441 435.456 408.304 437.45C409.064 439.202 409.513 440.295 409.425 440.339" fill="white"/>
<path d="M447.081 414.262C447.044 414.45 443.42 413.907 438.986 413.05C434.55 412.19 430.986 411.341 431.022 411.153C431.06 410.965 434.682 411.508 439.118 412.367C443.552 413.224 447.117 414.074 447.081 414.262" fill="white"/>
<path d="M476.284 356.942C476.144 356.813 479.599 352.857 484.001 348.107C488.407 343.358 492.091 339.614 492.231 339.745C492.372 339.875 488.916 343.83 484.512 348.581C480.108 353.329 476.425 357.073 476.284 356.942Z" fill="white"/>
<path d="M505.664 433.387C505.516 433.508 501.205 428.519 496.036 422.243C490.864 415.965 486.793 410.779 486.94 410.657C487.089 410.536 491.4 415.524 496.571 421.802C501.741 428.077 505.813 433.265 505.664 433.387Z" fill="white"/>
<path d="M323.285 400.805C323.382 400.996 319.444 402.993 315.152 406.288C310.838 409.559 307.87 412.829 307.713 412.684C307.646 412.625 308.305 411.731 309.526 410.42C310.746 409.107 312.553 407.4 314.73 405.736C316.909 404.076 319.033 402.785 320.621 401.956C322.209 401.124 323.245 400.725 323.285 400.805Z" fill="white"/>
<path d="M334.271 371.342C334.431 371.447 333.028 373.837 331.139 376.678C329.249 379.519 327.588 381.737 327.429 381.63C327.269 381.525 328.671 379.135 330.561 376.294C332.449 373.453 334.111 371.235 334.271 371.342Z" fill="white"/>
<path d="M359.021 400.275C358.869 400.365 357.48 398.032 356.754 394.799C356.01 391.567 356.254 388.864 356.43 388.88C356.638 388.88 356.708 391.511 357.43 394.644C358.132 397.781 359.208 400.185 359.021 400.275Z" fill="white"/>
<path d="M362.691 308.379C362.717 308.569 360.417 309.051 357.555 309.459C354.689 309.867 352.346 310.043 352.32 309.853C352.292 309.662 354.592 309.179 357.457 308.771C360.32 308.365 362.664 308.189 362.691 308.379Z" fill="white"/>
<path d="M381.281 275.412C381.375 275.58 379.361 276.873 376.785 278.301C374.208 279.728 372.044 280.749 371.952 280.583C371.859 280.415 373.872 279.121 376.448 277.693C379.024 276.267 381.188 275.244 381.281 275.412Z" fill="white"/>
<path d="M433.559 289.338C433.407 289.454 431.104 286.686 428.416 283.158C425.728 279.628 423.672 276.672 423.825 276.556C423.977 276.44 426.28 279.208 428.968 282.737C431.656 286.266 433.712 289.221 433.559 289.338Z" fill="white"/>
<path d="M499.922 322.492C499.793 322.613 497.369 320.117 495.12 316.488C492.856 312.865 491.689 309.588 491.856 309.527C492.044 309.444 493.48 312.553 495.709 316.12C497.924 319.696 500.078 322.357 499.922 322.492Z" fill="white"/>
<path d="M525.252 330.84C525.427 330.92 524.196 334.008 522.503 337.737C520.811 341.468 519.296 344.428 519.121 344.348C518.947 344.269 520.177 341.181 521.871 337.451C523.563 333.721 525.077 330.763 525.252 330.84Z" fill="white"/>
<path d="M528.792 296.268C528.645 296.39 525.629 293.008 522.056 288.715C518.483 284.422 515.707 280.842 515.853 280.718C516 280.596 519.016 283.978 522.591 288.271C526.161 292.564 528.939 296.146 528.792 296.268" fill="white"/>
<path d="M490.105 268.184C489.913 268.19 489.644 265.298 489.502 261.721C489.362 258.145 489.402 255.241 489.596 255.233C489.786 255.225 490.056 258.117 490.197 261.694C490.337 265.27 490.297 268.176 490.105 268.184" fill="white"/>
<path d="M521.648 266.433C521.672 266.624 517.987 267.273 513.416 267.884C508.841 268.496 505.114 268.837 505.09 268.648C505.064 268.457 508.75 267.808 513.322 267.196C517.894 266.585 521.621 266.243 521.648 266.433Z" fill="white"/>
<path d="M571.327 302.927C571.155 303.009 568.936 298.781 566.375 293.485C563.811 288.185 561.873 283.824 562.045 283.74C562.217 283.657 564.435 287.883 566.999 293.183C569.561 298.48 571.5 302.843 571.327 302.927" fill="white"/>
<path d="M562.963 334.459C562.775 334.421 563.294 331.023 564.124 326.869C564.953 322.715 565.778 319.379 565.966 319.416C566.153 319.453 565.634 322.851 564.805 327.005C563.976 331.16 563.152 334.496 562.963 334.459Z" fill="white"/>
<path d="M586.007 359.319C585.825 359.381 584.055 354.793 582.052 349.073C580.049 343.351 578.573 338.66 578.755 338.599C578.935 338.535 580.705 343.12 582.708 348.843C584.709 354.564 586.188 359.255 586.007 359.319Z" fill="white"/>
<path d="M582.797 373.857C582.764 374.028 579.566 373.361 576.062 371.449C572.545 369.557 570.241 367.244 570.366 367.122C570.501 366.962 572.958 368.993 576.393 370.838C579.814 372.708 582.857 373.656 582.797 373.857" fill="white"/>
<path d="M612.317 407.011C612.141 407.09 611.071 405.066 609.925 402.493C608.78 399.918 607.993 397.767 608.168 397.69C608.344 397.611 609.415 399.635 610.56 402.21C611.705 404.783 612.491 406.934 612.317 407.011" fill="white"/>
<path d="M437.971 453.249C437.781 453.271 437.317 450.628 436.935 447.345C436.553 444.061 436.399 441.382 436.589 441.361C436.779 441.338 437.243 443.982 437.625 447.264C438.007 450.547 438.161 453.226 437.971 453.249" fill="white"/>
<path d="M528.541 450.959C528.355 450.919 528.745 448.334 529.415 445.186C530.085 442.038 530.779 439.518 530.967 439.557C531.153 439.598 530.764 442.182 530.095 445.33C529.425 448.48 528.729 451 528.541 450.959Z" fill="white"/>
<path d="M545.909 186.573L557.62 165.933C552.438 157.522 549.445 147.622 549.445 137.021C549.445 106.53 574.161 81.8129 604.653 81.8129C635.142 81.8129 659.86 106.53 659.86 137.021C659.86 167.51 635.142 192.228 604.653 192.228C591.921 192.228 580.205 187.906 570.867 180.666L570.884 180.69L545.909 186.573" fill="#FAFAF9"/>
<path d="M545.909 186.573C547.096 186.301 555.001 184.494 570.924 180.856L571.18 180.798L571.02 180.588L571 180.564L570.763 180.801C573.912 183.241 577.684 185.645 582.119 187.648C586.559 189.617 591.645 191.225 597.263 191.972C600.065 192.33 602.995 192.561 606.005 192.414C607.509 192.329 609.041 192.293 610.585 192.164C612.12 191.932 613.675 191.696 615.252 191.458C621.504 190.224 627.898 187.85 633.861 184.15C639.821 180.462 645.34 175.456 649.764 169.304C654.18 163.162 657.529 155.881 659.097 147.968C660.65 140.066 660.521 131.597 658.445 123.4C656.356 115.232 652.452 107.252 646.608 100.688L644.352 98.2049C643.611 97.3715 642.727 96.6822 641.924 95.9168C641.083 95.1928 640.322 94.3729 639.42 93.7329L636.768 91.7515C635.91 91.0582 634.965 90.4982 634.025 89.9355C633.089 89.3675 632.154 88.8009 631.222 88.2355C630.242 87.7595 629.264 87.2849 628.289 86.8102C627.306 86.3569 626.36 85.8208 625.328 85.4942C617.306 82.3102 608.75 81.0968 600.573 81.6902C592.392 82.2795 584.565 84.6262 577.85 88.4062C571.114 92.1569 565.434 97.1622 561.05 102.754C556.653 108.349 553.554 114.518 551.637 120.664C549.73 126.837 549.216 132.96 549.237 138.626C549.401 144.308 550.435 149.541 551.941 154.134C553.452 158.734 555.433 162.69 557.481 166.018L557.478 165.852C550.089 179.088 546.477 185.556 545.909 186.573C546.489 185.565 550.191 179.145 557.763 166.013L557.811 165.93L557.76 165.846C555.748 162.524 553.801 158.582 552.325 154.009C550.853 149.442 549.851 144.246 549.708 138.613C549.711 132.993 550.241 126.929 552.147 120.821C554.064 114.741 557.146 108.641 561.509 103.116C565.86 97.5915 571.486 92.6502 578.153 88.9542C584.797 85.2262 592.536 82.9182 600.62 82.3449C608.704 81.7675 617.153 82.9715 625.077 86.1208C626.096 86.4422 627.029 86.9742 628.001 87.4235C628.964 87.8915 629.93 88.3595 630.897 88.8302C631.818 89.3902 632.74 89.9502 633.664 90.5129C634.594 91.0675 635.528 91.6195 636.375 92.3062L638.992 94.2635C639.885 94.8955 640.635 95.7062 641.465 96.4222C642.259 97.1782 643.133 97.8569 643.865 98.6822L646.093 101.133C651.867 107.617 655.721 115.498 657.791 123.565C659.844 131.66 659.979 140.029 658.452 147.84C656.912 155.66 653.609 162.86 649.253 168.937C644.888 175.026 639.44 179.99 633.55 183.65C627.658 187.325 621.337 189.689 615.15 190.93C613.589 191.17 612.048 191.408 610.53 191.642C609 191.774 607.484 191.814 605.993 191.905C603.011 192.061 600.105 191.841 597.324 191.497C591.756 190.777 586.704 189.204 582.286 187.27C577.876 185.304 574.116 182.937 570.97 180.532L569.941 179.745L570.73 180.77L570.75 180.794L570.845 180.525C554.973 184.374 547.091 186.286 545.909 186.573" fill="#17282F"/>
<path d="M619.559 134.716C619.559 137.696 621.973 140.11 624.953 140.11C627.933 140.11 630.349 137.696 630.349 134.716C630.349 131.737 627.933 129.321 624.953 129.321C621.973 129.321 619.559 131.737 619.559 134.716Z" fill="#17282F"/>
<path d="M597.968 134.716C597.968 137.696 600.382 140.11 603.362 140.11C606.342 140.11 608.758 137.696 608.758 134.716C608.758 131.737 606.342 129.321 603.362 129.321C600.382 129.321 597.968 131.737 597.968 134.716Z" fill="#17282F"/>
<path d="M576.43 132.018C574.941 134.6 575.825 137.898 578.406 139.389C580.986 140.878 584.286 139.994 585.776 137.413C587.265 134.833 586.382 131.533 583.802 130.044C581.221 128.554 577.922 129.438 576.43 132.018Z" fill="#17282F"/>
</svg>
