<svg width="80" height="80" viewBox="0 0 80 80" fill="none" xmlns="http://www.w3.org/2000/svg">
<circle opacity="0.1" cx="40" cy="40" r="40" fill="white"/>
<path d="M26.5866 25H53.4273C54.3869 25.0266 55.3292 25.4409 55.9873 26.1422C56.6162 26.7936 56.9787 27.6855 57 28.5899V50.1095C56.9688 50.9575 56.6447 51.7943 56.0763 52.4264C55.3976 53.2041 54.377 53.6643 53.345 53.6629C50.1177 53.6676 46.8903 53.6636 43.663 53.6649C43.6623 54.7792 43.663 55.8935 43.663 57.0071C44.2121 57.0098 44.762 57.0045 45.3118 57.0091C45.6857 57.0018 46.0543 57.217 46.2203 57.5537C46.4102 57.9149 46.3431 58.3911 46.0582 58.6839C45.8816 58.8785 45.6239 58.9821 45.365 59H34.6151C34.127 58.9754 33.6954 58.5611 33.6741 58.0696C33.6237 57.5364 34.0766 57.0264 34.6118 57.0131C35.1869 56.9992 35.762 57.0125 36.337 57.0078C36.337 55.8935 36.3377 54.7792 36.337 53.6649C33.1509 53.6649 29.9647 53.6649 26.7792 53.6649C26.319 53.6682 25.8555 53.6052 25.4225 53.4458C24.0273 52.9604 23.0213 51.5652 23 50.0876V28.5713C23.0266 27.6735 23.3885 26.789 24.0134 26.1415C24.6741 25.4376 25.6224 25.0219 26.5866 25ZM24.9955 28.6464C24.9875 35.7339 24.9942 42.8208 24.9922 49.9077C24.9656 50.5232 25.2917 51.1415 25.8309 51.4456C26.1164 51.6163 26.4525 51.6754 26.7812 51.6727C27.9632 51.6714 29.1452 51.6734 30.3273 51.6714C30.3273 49.8944 30.3273 48.1167 30.3273 46.3396C31.4409 46.339 32.5545 46.339 33.6682 46.339C33.6688 48.1167 33.6688 49.8944 33.6688 51.6714C34.3329 51.6734 34.9963 51.6721 35.6604 51.6721C35.661 48.472 35.6604 45.2712 35.661 42.0704C36.7753 42.0697 37.8896 42.0704 39.0039 42.0704C39.0046 45.2712 39.0032 48.472 39.0046 51.6727C39.668 51.6721 40.3314 51.6721 40.9954 51.6727C40.9974 49.5391 40.9948 47.4055 40.9968 45.2725C42.1111 45.2732 43.2254 45.2712 44.3396 45.2732C44.339 47.4061 44.3396 49.5391 44.3396 51.6721C45.003 51.6721 45.6671 51.6734 46.3312 51.6714C46.3312 47.7601 46.3312 43.8487 46.3312 39.9381C47.4448 39.9368 48.5584 39.9368 49.6727 39.9374C49.6727 43.8488 49.6727 47.7601 49.6727 51.6714C50.8554 51.6734 52.0381 51.6714 53.2215 51.6727C53.5303 51.6734 53.847 51.6243 54.12 51.4722C54.6645 51.1893 55.0158 50.587 55.0065 49.9741C55.0105 42.9104 55.0065 35.8468 55.0078 28.7832C55.0184 28.3841 54.9135 27.9763 54.6652 27.6589C54.3484 27.2313 53.8191 26.9822 53.2886 26.9935C44.4306 26.9915 35.5734 26.9915 26.7161 26.9929C25.813 26.9504 24.9836 27.7413 24.9955 28.6464Z" fill="white"/>
<path d="M35.7751 30.602C36.0115 30.4234 36.309 30.2965 36.6092 30.3543C36.8861 30.3862 37.1112 30.5675 37.3257 30.7302C39.4055 32.2927 41.4854 33.8553 43.5652 35.4178C45.7201 33.7995 47.8743 32.1798 50.0299 30.5615C50.3254 30.3251 50.7537 30.2607 51.0957 30.4347C51.5101 30.6259 51.7485 31.1266 51.6296 31.5689C51.5725 31.8093 51.4151 32.0151 51.2179 32.1592C49.0311 33.8028 46.8437 35.4457 44.6569 37.0892C44.3415 37.3097 44.0487 37.6218 43.6416 37.6484C43.3102 37.6856 43.0101 37.5063 42.7624 37.3071C40.6633 35.7292 38.5648 34.1501 36.4637 32.5756C34.3361 34.178 32.2044 35.7751 30.0761 37.3768C29.7965 37.6059 29.4121 37.7287 29.0594 37.6079C28.5979 37.4671 28.2898 36.9578 28.3901 36.483C28.4332 36.2226 28.5946 35.9942 28.8058 35.8415C31.1287 34.0937 33.4535 32.3498 35.7751 30.602Z" fill="white"/>
</svg>
