<svg width="80" height="80" viewBox="0 0 80 80" fill="none" xmlns="http://www.w3.org/2000/svg">
<circle opacity="0.1" cx="40" cy="40" r="40" fill="white"/>
<path d="M32.8749 27.0794C33.8693 26.9796 34.874 26.9832 35.8716 27.0389C38.676 27.2248 41.3843 28.3484 43.4086 30.136C45.1902 31.6951 46.4471 33.7533 46.949 35.9671C47.5069 38.3943 47.1712 40.9901 45.9829 43.2206C45.4345 44.2573 44.7096 45.2151 43.8451 46.0515C43.3999 46.4863 42.9161 46.8892 42.5064 47.3544C41.6459 48.3058 41.0187 49.4286 40.6483 50.6165C40.3363 47.761 40.0266 44.9055 39.7153 42.0493C40.2819 42.0196 40.8343 41.7657 41.1692 41.341C41.5868 40.8353 41.6561 40.114 41.3449 39.5483C41.0935 39.0672 40.5861 38.7228 40.0227 38.6085C40.5222 37.6767 41.0455 36.755 41.5316 35.8181C41.5521 34.424 41.5348 33.0277 41.5403 31.6329C40.2795 31.6329 39.0188 31.6329 37.758 31.6329C37.758 32.0185 37.758 32.4048 37.758 32.7904C37.338 32.7904 36.9172 32.7904 36.4972 32.7904C36.4972 32.4048 36.4972 32.0185 36.4972 31.6329C35.2365 31.6329 33.9757 31.6329 32.7149 31.6329C32.7149 32.0185 32.7149 32.4048 32.7149 32.7904C32.2949 32.7904 31.8742 32.7904 31.4542 32.7904C31.4542 32.4048 31.4542 32.0185 31.4542 31.6329C30.1934 31.6329 28.9326 31.6329 27.6719 31.6329C27.6711 32.985 27.6734 34.3372 27.6711 35.69C27.6648 35.7682 27.6813 35.8427 27.7215 35.9122C28.2116 36.8107 28.7002 37.7092 29.1903 38.6078C28.6986 38.7091 28.2487 38.9803 27.976 39.3717C27.56 39.9433 27.5749 40.7449 28.0123 41.3027C28.3448 41.749 28.9129 42.0203 29.4968 42.0493C29.1848 44.9055 28.8759 47.761 28.5631 50.6165C28.0974 49.0958 27.1849 47.6988 25.9525 46.5977C24.9029 45.6745 23.9904 44.6125 23.3348 43.4181C22.208 41.4054 21.7841 39.0744 22.1032 36.8324C22.4365 34.416 23.665 32.1162 25.5301 30.3849C27.4733 28.5574 30.1107 27.3674 32.8749 27.0794ZM23.5105 36.1408C23.9219 36.2203 24.3324 36.3014 24.7429 36.386C24.8328 36.0178 24.9486 35.6568 25.0778 35.2987C24.683 35.1677 24.2875 35.0375 23.8903 34.9123C23.7406 35.316 23.6138 35.7255 23.5105 36.1408ZM23.3041 37.3692C23.0267 40.0713 23.9936 42.8574 25.9344 44.9069C26.2535 44.6559 26.5703 44.4027 26.8878 44.1495C25.17 42.3336 24.3135 39.8673 24.5593 37.4734C24.1409 37.4379 23.7225 37.4032 23.3041 37.3692Z" fill="white"/>
<path d="M47.6727 27.0039C48.627 27.0039 49.5812 27.0039 50.5355 27.0039C50.6939 27.4582 50.8515 27.9126 51.0106 28.3662C51.8475 28.5637 52.6528 28.8668 53.3966 29.2705C53.8568 29.0535 54.3178 28.8364 54.778 28.6179C55.4533 29.2365 56.1278 29.8565 56.8015 30.4758C56.5651 30.9005 56.3248 31.3237 56.0907 31.7491C56.5328 32.4299 56.8582 33.1692 57.0749 33.9354C57.5706 34.0786 58.0662 34.2219 58.5595 34.3724C58.5595 35.2477 58.5595 36.1239 58.5595 36.9992C58.0654 37.149 57.5706 37.2922 57.0749 37.4355C56.8559 38.1995 56.5375 38.9403 56.0907 39.616C56.3192 40.0465 56.5659 40.4682 56.8015 40.8951C56.127 41.5144 55.4533 42.1344 54.778 42.7529C54.3178 42.5337 53.856 42.3167 53.395 42.1004C52.6512 42.5048 51.8459 42.8057 51.0098 43.0047C50.8514 43.4583 50.6931 43.9126 50.5347 44.367C49.5804 44.367 48.6262 44.367 47.6719 44.367C47.5514 44.0212 47.4324 43.6753 47.3095 43.3302C47.6081 42.6979 47.854 42.0447 48.0455 41.3776C49.5198 41.6323 51.0878 41.353 52.3667 40.6368C53.4014 40.0631 54.2484 39.2101 54.7748 38.211C55.3421 37.1454 55.5336 35.9169 55.3232 34.7464C55.101 33.4753 54.3958 32.2823 53.3588 31.4163C52.3313 30.5467 50.9807 30.0084 49.5875 29.9151C48.2393 29.8174 46.8674 30.1394 45.728 30.805C45.0598 29.9961 44.2868 29.2618 43.4326 28.6172C43.8904 28.8364 44.3522 29.0491 44.8092 29.2705C45.5562 28.8719 46.3584 28.5637 47.196 28.3691C47.3552 27.914 47.5136 27.459 47.6727 27.0039Z" fill="white"/>
<path d="M47.0625 32.7583C47.7646 32.3597 48.5991 32.1514 49.4249 32.2259C50.6092 32.3084 51.7226 32.945 52.3333 33.8783C52.8762 34.6871 53.0267 35.7057 52.7438 36.6195C52.4373 37.6547 51.5705 38.5316 50.48 38.9157C49.837 39.153 49.1231 39.2058 48.443 39.1009C48.6093 36.9219 48.1018 34.7189 47.0625 32.7583Z" fill="white"/>
<path d="M28.9316 32.7891C29.3516 32.7891 29.7724 32.7891 30.1924 32.7891C30.1924 33.1747 30.1924 33.5611 30.1924 33.9468C31.4532 33.9468 32.7139 33.9468 33.9747 33.9468C33.9747 33.5611 33.9747 33.1747 33.9747 32.7891C34.3947 32.7891 34.8155 32.7891 35.2355 32.7891C35.2355 33.1747 35.2355 33.5611 35.2355 33.9468C36.4962 33.9468 37.757 33.9468 39.0178 33.9468C39.0178 33.5611 39.0178 33.1747 39.0178 32.7891C39.4378 32.7891 39.8586 32.7891 40.2786 32.7891C40.2786 33.5611 40.2786 34.3324 40.2786 35.1045C36.4962 35.1045 32.7139 35.1045 28.9316 35.1045C28.9316 34.3324 28.9316 33.5611 28.9316 32.7891Z" fill="white"/>
<path d="M29.3232 36.2626C32.8455 36.2612 36.3678 36.2619 39.8901 36.2619C39.4693 37.0339 39.0501 37.806 38.6285 38.5773C35.947 38.5773 33.2647 38.5773 30.5832 38.5773C30.1632 37.8053 29.7424 37.0339 29.3232 36.2626Z" fill="white"/>
<path d="M29.3524 39.7708C29.4446 39.7447 29.5399 39.7332 29.6368 39.7361C32.9471 39.7361 36.2575 39.7361 39.5685 39.7361C39.8175 39.7194 40.0792 39.8272 40.1981 40.0349C40.3549 40.2816 40.2683 40.6268 40.0106 40.7867C39.8853 40.8721 39.7261 40.8952 39.5741 40.8938C36.2606 40.8938 32.9464 40.8938 29.6321 40.8938C29.3437 40.9147 29.0498 40.7527 28.9647 40.4951C28.852 40.2078 29.0388 39.8648 29.3524 39.7708Z" fill="white"/>
<circle cx="24.4181" cy="35.8136" r="1.25895" fill="white"/>
<path d="M22.5098 36.8483L24.5478 36.1949C24.6329 39.7874 25.7132 41.2532 27.7336 44.2253L25.0491 45.2616C23.398 42.1141 22.9793 40.2618 22.5098 36.8483Z" fill="white"/>
<path d="M30.7638 42.0516C33.3255 42.0502 35.8872 42.0509 38.4497 42.0516C38.8264 45.5235 39.2062 48.9961 39.5836 52.4687C36.2655 52.4687 32.9473 52.4687 29.6299 52.4687C30.0073 48.9961 30.3863 45.5242 30.7638 42.0516ZM33.9764 43.2084C33.9764 43.594 33.9764 43.9804 33.9764 44.366C34.3964 44.366 34.8172 44.366 35.2371 44.366C35.2371 43.9804 35.2371 43.594 35.2371 43.2084C34.8172 43.2084 34.3964 43.2084 33.9764 43.2084ZM33.9764 45.5235C33.9764 45.9091 33.9764 46.2954 33.9764 46.681C34.3964 46.681 34.8172 46.681 35.2371 46.681C35.2371 46.2947 35.2371 45.9091 35.2371 45.5235C34.8172 45.5235 34.3964 45.5235 33.9764 45.5235ZM33.9764 47.8386C33.9764 48.2242 33.9764 48.6105 33.9764 48.9961C34.3964 48.9961 34.8172 48.9961 35.2371 48.9961C35.2371 48.6098 35.2371 48.2242 35.2371 47.8386C34.8172 47.8386 34.3964 47.8386 33.9764 47.8386ZM33.9764 50.1537C33.9764 50.5393 33.9764 50.9249 33.9764 51.3112C34.3964 51.3112 34.8172 51.3112 35.2371 51.3112C35.2371 50.9249 35.2371 50.5393 35.2371 50.1537C34.8172 50.1537 34.3964 50.1537 33.9764 50.1537Z" fill="white"/>
<rect x="33.75" y="42.9453" width="1.6786" height="8.39301" fill="white"/>
<path d="M27.53 53.6444C27.7325 53.6147 27.939 53.6299 28.143 53.6277C32.5841 53.6277 37.0259 53.6277 41.467 53.6277C41.7972 53.5973 42.1328 53.8238 42.1628 54.1335C42.1809 54.5459 42.1714 54.9605 42.1683 55.3737C42.1754 55.7087 41.8224 55.9779 41.4662 55.9431C36.8928 55.9431 32.3193 55.9431 27.7467 55.9431C27.4181 55.9721 27.0824 55.7485 27.0509 55.4403C27.032 55.0264 27.043 54.6111 27.0454 54.1972C27.0422 53.9389 27.2558 53.6972 27.53 53.6444Z" fill="white"/>
<path d="M28.9834 57.0977C32.7318 57.0977 36.481 57.0977 40.2294 57.0977C40.0687 58.0904 39.4998 59.0223 38.6503 59.6547C37.8955 60.2264 36.9286 60.5541 35.9507 60.5672C35.0808 60.5744 34.2116 60.5708 33.3425 60.5693C32.3552 60.5679 31.3718 60.2531 30.6027 59.6837C29.732 59.0506 29.1434 58.107 28.9834 57.0977Z" fill="white"/>
</svg>
