<svg width="80" height="80" viewBox="0 0 80 80" fill="none" xmlns="http://www.w3.org/2000/svg">
<circle opacity="0.1" cx="40" cy="40" r="40" fill="white"/>
<path d="M39.6951 21.0312H39.8741C41.3677 21.0727 42.7828 22.1235 43.2208 23.5736C43.5399 24.4791 43.4343 25.5091 43.008 26.3606C42.5767 27.2283 41.7866 27.887 40.8798 28.1953C40.8798 28.9845 40.8798 29.7729 40.8798 30.5621C40.147 30.4946 39.4119 30.4954 38.679 30.5621C38.6798 29.7736 38.6776 28.9852 38.6798 28.196C37.3747 27.7699 36.3542 26.5673 36.1877 25.1853C36.0336 24.1331 36.3916 23.0297 37.0974 22.248C37.7517 21.5077 38.7157 21.0676 39.6951 21.0312Z" fill="white"/>
<path d="M26.7308 26.3771C27.653 25.6034 28.9654 25.3115 30.1135 25.685C31.1662 25.9843 32.0473 26.8105 32.4383 27.8405C32.8293 28.809 32.753 29.9354 32.2916 30.8646C32.8447 31.4255 33.3993 31.9835 33.9517 32.5452C33.5967 32.8779 33.2042 33.1736 32.8924 33.5507C32.7288 33.7389 32.5623 33.9257 32.398 34.1139C31.8434 33.5552 31.2895 32.9965 30.7356 32.4377C29.4672 33.1128 27.8283 32.9127 26.7352 31.9872C25.8879 31.2758 25.4067 30.1517 25.45 29.0425C25.4888 28.028 25.9569 27.0291 26.7308 26.3771Z" fill="white"/>
<path d="M48.8248 25.943C50.2377 25.1568 52.1429 25.5206 53.2008 26.7418C54.1772 27.8429 54.4083 29.5635 53.7011 30.867C53.0401 32.2667 51.3946 33.0514 49.8981 32.7951C49.5239 32.738 49.1666 32.6024 48.8255 32.4394C48.2709 32.9973 47.7178 33.5575 47.1632 34.1155C46.9167 33.8406 46.6804 33.5568 46.4288 33.2871C46.1618 33.0329 45.8808 32.7943 45.6094 32.5453C46.1625 31.9859 46.7157 31.4264 47.2688 30.867C46.8631 30.06 46.7589 29.1026 47.0025 28.2305C47.2541 27.2568 47.9188 26.3802 48.8248 25.943Z" fill="white"/>
<path d="M38.7891 32.7966C40.1264 32.6054 41.5151 32.8085 42.7447 33.3709C43.881 33.8933 44.8824 34.7151 45.6124 35.7391C46.544 37.0233 47.0312 38.6276 46.9783 40.2185C46.9402 41.6657 46.4582 43.0966 45.6116 44.2644C44.8919 45.2729 43.9096 46.0873 42.7924 46.6089C41.2679 47.3247 39.4904 47.4722 37.8706 47.015C35.4651 46.3688 33.4777 44.3629 32.8373 41.9325C32.5578 40.921 32.505 39.8465 32.6759 38.8106C32.9613 37.0107 33.9597 35.3434 35.3917 34.2379C36.374 33.468 37.5581 32.9648 38.7891 32.7966Z" fill="white"/>
<path d="M23.4635 36.5409C24.3907 36.1934 25.4559 36.3009 26.3253 36.764C27.1616 37.2034 27.7925 37.9896 28.0925 38.8877C28.8738 38.8877 29.6544 38.8877 30.4357 38.8877C30.3689 39.628 30.3689 40.3705 30.4357 41.1107C29.6551 41.1107 28.8738 41.1107 28.0925 41.1107C27.6714 42.429 26.4801 43.459 25.1126 43.6272C24.0716 43.7828 22.9793 43.4212 22.2046 42.7083C21.4695 42.0451 21.033 41.0685 21 40.0763V39.9007C21.0425 38.4127 22.0549 37.0011 23.4635 36.5409Z" fill="white"/>
<path d="M51.4681 38.8881C51.8892 37.5698 53.0806 36.5399 54.4481 36.3716C55.4883 36.216 56.5799 36.5776 57.3546 37.289C58.0897 37.9507 58.5262 38.9274 58.5607 39.9181V40.0982C58.5181 41.5861 57.5057 42.997 56.0972 43.4579C55.1516 43.8121 54.0629 43.6943 53.1848 43.2067C52.3727 42.7636 51.7623 41.9899 51.4681 41.1111C50.6869 41.1111 49.9056 41.1111 49.125 41.1111C49.1918 40.3708 49.191 39.6284 49.125 38.8881C49.9056 38.8881 50.6869 38.8881 51.4681 38.8881Z" fill="white"/>
<path d="M30.7369 47.5636C31.2908 47.0042 31.8446 46.4454 32.3985 45.8867C32.7323 46.2483 33.0272 46.6492 33.4058 46.9664C33.5892 47.1286 33.7704 47.2931 33.953 47.4569C33.3999 48.0164 32.846 48.5758 32.2929 49.136C32.6472 49.8615 32.7851 50.6988 32.6303 51.4969C32.4264 52.598 31.7001 53.6072 30.6892 54.0852C29.4347 54.7521 27.8105 54.5402 26.7321 53.6235C25.81 52.8455 25.3192 51.5762 25.4791 50.3728C25.5385 49.7755 25.7792 49.2116 26.1012 48.7129C26.7263 47.8148 27.768 47.2213 28.8559 47.1672C29.5052 47.1198 30.1537 47.2798 30.7369 47.5636Z" fill="white"/>
<path d="M46.4317 46.7122C46.6826 46.4432 46.9174 46.1594 47.1646 45.8867C47.717 46.4462 48.2724 47.0042 48.8263 47.5636C49.5606 47.1976 50.4116 47.0605 51.2171 47.2339C51.9947 47.3887 52.7085 47.8193 53.2323 48.4172C54.0026 49.3228 54.3122 50.6203 53.985 51.774C53.8287 52.372 53.5177 52.9315 53.0937 53.3775C52.1964 54.306 50.7901 54.7054 49.5511 54.3468C48.6326 54.1082 47.8205 53.4842 47.3554 52.6476C46.7333 51.591 46.7208 50.226 47.2695 49.1353C46.7157 48.5758 46.1618 48.0164 45.6094 47.4554C45.8823 47.2064 46.164 46.9678 46.4317 46.7122Z" fill="white"/>
<path d="M38.6788 49.4414C39.4117 49.5081 40.1468 49.5088 40.8796 49.4414C40.8796 50.2298 40.8796 51.019 40.8796 51.8082C41.4819 52.0216 42.0439 52.3691 42.4694 52.8545C43.1949 53.6562 43.5294 54.7959 43.3651 55.8689C43.2455 56.5121 42.9866 57.1397 42.5603 57.6377C41.9074 58.4491 40.8921 58.9352 39.8621 58.9722H39.6817C38.2093 58.9292 36.8133 57.9081 36.3562 56.4876C36.0048 55.5317 36.1207 54.4313 36.6034 53.5436C37.0421 52.7226 37.808 52.1061 38.6796 51.8082C38.6781 51.019 38.6788 50.2298 38.6788 49.4414Z" fill="white"/>
</svg>
