<svg width="80" height="80" viewBox="0 0 80 80" fill="none" xmlns="http://www.w3.org/2000/svg">
<circle opacity="0.1" cx="40" cy="40" r="40" fill="white"/>
<path d="M48.9649 23.997C48.9649 23.4464 49.4112 23 49.9618 23H57V29.9718C57 30.5224 56.5537 30.9688 56.0031 30.9688C55.4531 30.9688 55.0071 30.5235 55.0073 29.9735C55.0079 28.7881 55.0111 27.6029 55.0039 26.4173C54.452 26.9386 53.9254 27.4851 53.3836 28.0163C50.2505 31.1295 47.1201 34.2452 43.9844 37.3557C41.3255 34.7041 38.6766 32.0425 36.0157 29.3929C32.4792 32.9032 28.9463 36.4176 25.4136 39.9317C25.0218 40.3214 24.3892 40.3263 23.9984 39.9356C23.606 39.5434 23.6132 38.9083 24.0067 38.5173C28.012 34.5381 32.0109 30.5531 36.0157 26.574C38.6759 29.2243 41.3248 31.8858 43.9851 34.5368C45.8312 32.7152 47.6653 30.8811 49.5081 29.0556C50.8641 27.7002 52.238 26.3628 53.5834 24.9968C52.3759 24.9885 51.1679 24.992 49.9601 24.9926C49.4102 24.9929 48.9649 24.5469 48.9649 23.997Z" fill="white"/>
<path d="M48.9648 37.9746C48.9648 36.3059 50.3176 34.9531 51.9863 34.9531C53.655 34.9531 55.0078 36.3059 55.0078 37.9746C55.0078 43.6524 55.0078 49.3299 55.0078 55.0078C55.3398 55.0075 55.6719 55.0075 56.0039 55.0076C56.554 55.0077 57 55.4538 57 56.0039C57 56.554 56.554 57 56.0039 57H23.9961C23.446 57 23 56.554 23 56.0039C23 55.4538 23.446 55.0078 23.9961 55.0078C24.3281 55.0078 24.6602 55.0078 24.9922 55.0078C24.9917 52.6501 24.9919 50.2927 24.9921 47.9352C24.9922 46.2667 26.3448 44.9141 28.0134 44.9141C29.6822 44.9141 31.0349 46.2671 31.035 47.9358C31.0351 50.2931 31.0356 52.6503 31.0352 55.0078C31.6992 55.0078 32.3633 55.0078 33.0273 55.0078C33.0273 50.6469 33.0273 46.2865 33.0273 41.9258C33.0273 40.2754 34.3652 38.9375 36.0156 38.9375C37.666 38.9375 39.0039 40.2754 39.0039 41.9258C39.0039 46.2865 39.0039 50.6469 39.0039 55.0078C39.668 55.0078 40.332 55.0078 40.9961 55.0078C40.9961 51.9751 40.9961 48.9427 40.9961 45.9102C40.9961 44.2598 42.334 42.9219 43.9844 42.9219C45.6348 42.9219 46.9727 44.2598 46.9727 45.9102C46.9727 48.9427 46.9727 51.9751 46.9727 55.0078C47.6367 55.0078 48.3008 55.0078 48.9648 55.0078C48.9643 49.3299 48.9647 43.6524 48.9648 37.9746Z" fill="white"/>
</svg>
