<svg width="80" height="80" viewBox="0 0 80 80" fill="none" xmlns="http://www.w3.org/2000/svg">
<circle opacity="0.1" cx="40" cy="40" r="40" fill="white"/>
<g opacity="0.9">
<path d="M36.5464 21H36.6567C38.4375 21.0051 40.1834 21.9053 41.2172 23.3543C41.9221 24.327 42.3104 25.5285 42.2945 26.7307C42.2974 27.0435 41.9932 27.3078 41.6847 27.2729C41.379 27.2541 41.1438 26.9593 41.1671 26.6588C41.1605 25.3978 40.6052 24.1514 39.6651 23.31C38.7308 22.457 37.4291 22.0272 36.1704 22.1557C35.0459 22.2588 33.9722 22.8054 33.2194 23.6461C32.4789 24.4635 32.0578 25.5575 32.0513 26.6602C32.0709 26.9405 31.8713 27.2192 31.5896 27.265C31.2673 27.3375 30.9239 27.0668 30.9246 26.7357C30.8963 25.1212 31.6136 23.5161 32.8215 22.4468C33.8357 21.5379 35.1845 21.0145 36.5464 21Z" fill="white"/>
<path d="M34.7408 27.0464C34.7263 26.0344 35.5568 25.0319 36.6036 25.0319C37.6613 25.0021 38.5187 26.0068 38.5114 27.0275C38.5187 31.8428 38.5099 36.658 38.515 41.4725C38.5085 41.6932 38.6392 41.9088 38.841 41.9995C39.0827 42.1179 39.4 42.0286 39.5466 41.8035C39.6468 41.6663 39.6453 41.4899 39.6461 41.3288C39.6424 39.9727 39.6468 38.6166 39.6439 37.2605C39.6141 36.6943 39.7934 36.1077 40.2007 35.7034C40.788 35.0761 41.8275 34.9702 42.5375 35.4478C43.1154 35.821 43.4486 36.5092 43.4406 37.1901C43.4413 38.4496 43.4413 39.7092 43.4399 40.9694C43.3673 41.3883 43.813 41.7861 44.2166 41.6032C44.4402 41.5182 44.5825 41.2808 44.5702 41.0442C44.5724 40.0983 44.5716 39.1516 44.5702 38.2057C44.5665 37.9023 44.5854 37.593 44.6863 37.3041C44.8722 36.7306 45.3223 36.2326 45.9037 36.0489C46.417 35.8805 47.0057 35.9749 47.4413 36.2943C47.98 36.6769 48.282 37.3375 48.2849 37.9908C48.2885 38.8859 48.287 39.781 48.2849 40.6761C48.2754 40.9128 48.2863 41.1908 48.4968 41.3455C48.8046 41.6191 49.3535 41.4159 49.4057 41.0072C49.4384 40.4141 49.4006 39.8188 49.4232 39.2257C49.4478 38.6202 49.7578 38.0308 50.2536 37.6794C50.7088 37.3455 51.3193 37.2489 51.8609 37.4006C52.409 37.5545 52.8569 37.9829 53.0776 38.5034C53.2736 38.9324 53.2576 39.413 53.2525 39.8732C53.2533 43.7941 53.2583 47.7142 53.2482 51.6343C53.238 53.6118 52.3473 55.5871 50.8032 56.838C49.7919 57.6706 48.4983 58.157 47.1858 58.1701H39.0326C37.6069 58.1229 36.2203 57.5211 35.1865 56.5432C34.6283 56.0227 34.1717 55.3984 33.8232 54.7211C31.5481 50.3509 29.2744 45.9799 27 41.6097C27.188 41.4536 27.3717 41.2939 27.5583 41.1378C28.1129 40.6754 28.8439 40.4329 29.5641 40.47C30.3764 40.5099 31.1611 40.9026 31.6853 41.5233C32.3691 42.3415 33.0385 43.1712 33.7194 43.9923C33.8871 44.2137 34.2232 44.2754 34.4577 44.1244C34.6464 44.014 34.7408 43.7919 34.7277 43.5792C34.7328 38.0685 34.7335 32.5571 34.7408 27.0464Z" fill="white"/>
</g>
</svg>
